<svg width="170" height="234" viewBox="0 0 170 234" fill="none" xmlns="http://www.w3.org/2000/svg">
<mask id="mask0_124_622" style="mask-type:alpha" maskUnits="userSpaceOnUse" x="0" y="0" width="170" height="234">
<rect width="170" height="234" rx="20" fill="#F7FAFF"/>
</mask>
<g mask="url(#mask0_124_622)">
<g filter="url(#filter0_f_124_622)">
<path d="M163 218.5C163 219.328 139.719 220 111 220C82.2812 220 59 219.328 59 218.5C59 217.672 82.2812 217 111 217C139.719 217 163 217.672 163 218.5Z" fill="#141414" fill-opacity="0.17"/>
</g>
<path d="M189.97 44.3803C226.795 72.9037 200.812 142.004 172.125 179.04C143.438 216.077 73.0192 210.078 36.1938 181.555C-0.631636 153.031 24.2567 91.2197 52.9437 54.1831C91.839 3.96705 153.144 15.8568 189.97 44.3803Z" fill="#E6EFFD"/>
<mask id="path-4-inside-1_124_622" fill="white">
<path fill-rule="evenodd" clip-rule="evenodd" d="M59.6789 113.287H60.0146C60.0146 80.2153 74.7121 44.7239 113.972 45.2879C148.103 45.7652 166.702 64.6512 173.106 96.8324H192.863C190.819 55.3104 149.486 28 113.972 28C79.7467 28 46.6591 51.3005 44.3002 106.865C43.7703 106.9 43.2405 106.942 42.7106 106.99C35.1485 107.672 29.2895 113.876 29.1533 121.512C28.9489 132.217 28.9489 142.853 29.1533 153.557C29.2895 161.739 35.8979 168.148 44.0051 168.421C46.1372 168.466 48.2391 168.451 50.351 168.436C51.4108 168.428 52.473 168.421 53.5429 168.421C57.903 168.421 59.7425 166.58 59.7425 162.216V137.671V137.671C59.7425 129.608 59.7425 121.48 59.6789 113.287ZM183.188 168.491C183.144 169.444 183.128 170.339 183.114 171.193C183.083 172.967 183.055 174.562 182.779 176.127C181.485 183.558 175.353 188.808 167.791 188.945C159.957 189.081 152.122 189.013 144.287 188.945C142.312 188.945 141.085 189.286 140.063 191.263C137.27 196.513 132.706 199.104 126.779 199.172C119.966 199.24 113.153 199.24 106.34 199.172C97.552 199.104 90.9436 192.49 90.8755 183.968C90.8074 175.309 97.4839 168.627 106.477 168.559C113.153 168.491 119.898 168.491 126.574 168.559C132.638 168.627 137.338 171.218 140.2 176.604C141.222 178.445 142.312 178.854 144.151 178.854C147.829 178.82 151.506 178.82 155.192 178.82H155.197C158.884 178.82 162.58 178.82 166.293 178.786C171.266 178.786 172.969 177.013 172.969 171.968V113.742C172.969 108.628 174.604 106.924 179.577 106.924C180.064 106.924 180.551 106.922 181.037 106.921C183.957 106.912 186.877 106.904 189.796 107.196C197.563 107.878 203.422 114.014 203.558 121.855C203.694 132.423 203.694 142.991 203.558 153.559C203.422 161.877 196.882 168.354 188.57 168.627C186.799 168.491 185.096 168.491 183.188 168.491Z"/>
</mask>
<path fill-rule="evenodd" clip-rule="evenodd" d="M59.6789 113.287H60.0146C60.0146 80.2153 74.7121 44.7239 113.972 45.2879C148.103 45.7652 166.702 64.6512 173.106 96.8324H192.863C190.819 55.3104 149.486 28 113.972 28C79.7467 28 46.6591 51.3005 44.3002 106.865C43.7703 106.9 43.2405 106.942 42.7106 106.99C35.1485 107.672 29.2895 113.876 29.1533 121.512C28.9489 132.217 28.9489 142.853 29.1533 153.557C29.2895 161.739 35.8979 168.148 44.0051 168.421C46.1372 168.466 48.2391 168.451 50.351 168.436C51.4108 168.428 52.473 168.421 53.5429 168.421C57.903 168.421 59.7425 166.58 59.7425 162.216V137.671V137.671C59.7425 129.608 59.7425 121.48 59.6789 113.287ZM183.188 168.491C183.144 169.444 183.128 170.339 183.114 171.193C183.083 172.967 183.055 174.562 182.779 176.127C181.485 183.558 175.353 188.808 167.791 188.945C159.957 189.081 152.122 189.013 144.287 188.945C142.312 188.945 141.085 189.286 140.063 191.263C137.27 196.513 132.706 199.104 126.779 199.172C119.966 199.24 113.153 199.24 106.34 199.172C97.552 199.104 90.9436 192.49 90.8755 183.968C90.8074 175.309 97.4839 168.627 106.477 168.559C113.153 168.491 119.898 168.491 126.574 168.559C132.638 168.627 137.338 171.218 140.2 176.604C141.222 178.445 142.312 178.854 144.151 178.854C147.829 178.82 151.506 178.82 155.192 178.82H155.197C158.884 178.82 162.58 178.82 166.293 178.786C171.266 178.786 172.969 177.013 172.969 171.968V113.742C172.969 108.628 174.604 106.924 179.577 106.924C180.064 106.924 180.551 106.922 181.037 106.921C183.957 106.912 186.877 106.904 189.796 107.196C197.563 107.878 203.422 114.014 203.558 121.855C203.694 132.423 203.694 142.991 203.558 153.559C203.422 161.877 196.882 168.354 188.57 168.627C186.799 168.491 185.096 168.491 183.188 168.491Z" fill="url(#paint0_radial_124_622)"/>
<path d="M59.6789 113.287V112.287H58.6711L58.6789 113.295L59.6789 113.287ZM60.0146 113.287V114.287H61.0146V113.287H60.0146ZM113.972 45.2879L113.957 46.2878L113.958 46.2878L113.972 45.2879ZM173.106 96.8324L172.125 97.0276L172.285 97.8324H173.106V96.8324ZM192.863 96.8324V97.8324H193.913L193.862 96.7833L192.863 96.8324ZM44.3002 106.865L44.3668 107.863L45.2613 107.803L45.2993 106.907L44.3002 106.865ZM42.7106 106.99L42.8004 107.986L42.8012 107.986L42.7106 106.99ZM29.1533 121.512L30.1531 121.532L30.1531 121.53L29.1533 121.512ZM29.1533 153.557L30.1532 153.541L30.1531 153.538L29.1533 153.557ZM44.0051 168.421L43.9714 169.42L43.9838 169.42L44.0051 168.421ZM50.351 168.436L50.3582 169.436H50.3582L50.351 168.436ZM183.114 171.193L182.114 171.176L183.114 171.193ZM183.188 168.491V167.491H182.233L182.189 168.444L183.188 168.491ZM182.779 176.127L181.795 175.953L181.794 175.955L182.779 176.127ZM167.791 188.945L167.809 189.945L167.809 189.945L167.791 188.945ZM144.287 188.945L144.296 187.945H144.287V188.945ZM140.063 191.263L140.946 191.733L140.952 191.722L140.063 191.263ZM126.779 199.172L126.789 200.172L126.79 200.172L126.779 199.172ZM106.34 199.172L106.35 198.172L106.348 198.172L106.34 199.172ZM90.8755 183.968L89.8755 183.975V183.976L90.8755 183.968ZM106.477 168.559L106.484 169.559L106.487 169.559L106.477 168.559ZM126.574 168.559L126.585 167.559L126.584 167.559L126.574 168.559ZM140.2 176.604L139.317 177.073L139.321 177.081L139.325 177.089L140.2 176.604ZM144.151 178.854V179.854L144.16 179.854L144.151 178.854ZM166.293 178.786V177.786L166.283 177.786L166.293 178.786ZM181.037 106.921L181.04 107.921H181.04L181.037 106.921ZM189.796 107.196L189.697 108.191L189.709 108.192L189.796 107.196ZM203.558 121.855L204.558 121.842L204.558 121.838L203.558 121.855ZM203.558 153.559L204.558 153.575L204.558 153.572L203.558 153.559ZM188.57 168.627L188.493 169.624L188.548 169.628L188.603 169.626L188.57 168.627ZM59.6789 114.287H60.0146V112.287H59.6789V114.287ZM61.0146 113.287C61.0146 96.8755 64.665 79.948 73.1041 67.2269C81.5099 54.5559 94.6889 46.011 113.957 46.2878L113.986 44.288C93.9947 44.0008 80.1953 52.9196 71.4375 66.1212C62.713 79.2726 59.0146 96.6265 59.0146 113.287H61.0146ZM113.958 46.2878C130.834 46.5238 143.766 51.3049 153.265 59.9122C162.776 68.5295 168.951 81.0755 172.125 97.0276L174.087 96.6373C170.857 80.4081 164.531 67.4205 154.608 58.4301C144.675 49.4298 131.24 44.5293 113.985 44.288L113.958 46.2878ZM173.106 97.8324H192.863V95.8324H173.106V97.8324ZM193.862 96.7833C192.823 75.6815 181.799 58.2242 166.593 46.0645C151.398 33.9127 131.968 27 113.972 27V29C131.49 29 150.484 35.7426 165.344 47.6265C180.195 59.5025 190.859 76.4614 191.864 96.8816L193.862 96.7833ZM113.972 27C96.6316 27 79.5378 32.9053 66.4811 45.8867C53.4216 58.8707 44.4888 78.8453 43.3011 106.823L45.2993 106.907C46.4705 79.3203 55.261 59.8623 67.8912 47.305C80.5242 34.7449 97.0866 29 113.972 29V27ZM42.8012 107.986C43.3226 107.938 43.8444 107.898 44.3668 107.863L44.2336 105.867C43.6962 105.903 43.1584 105.945 42.62 105.994L42.8012 107.986ZM30.1531 121.53C30.2802 114.411 35.7408 108.622 42.8004 107.986L42.6208 105.994C34.5562 106.721 28.2989 113.342 28.1534 121.495L30.1531 121.53ZM30.1531 153.538C29.949 142.847 29.949 132.223 30.1531 121.532L28.1535 121.493C27.9488 132.21 27.9488 142.859 28.1535 153.576L30.1531 153.538ZM44.0387 167.421C36.4401 167.166 30.2801 161.166 30.1531 153.541L28.1534 153.574C28.2989 162.312 35.3557 169.13 43.9714 169.42L44.0387 167.421ZM50.3439 167.436C48.2297 167.451 46.1419 167.466 44.0263 167.421L43.9838 169.42C46.1324 169.466 48.2485 169.451 50.3582 169.436L50.3439 167.436ZM53.5429 167.421C52.4688 167.421 51.403 167.428 50.3439 167.436L50.3582 169.436C51.4185 169.428 52.4772 169.421 53.5429 169.421V167.421ZM58.7425 162.216C58.7425 164.287 58.3018 165.516 57.5704 166.248C56.8391 166.98 55.6111 167.421 53.5429 167.421V169.421C55.8348 169.421 57.7066 168.941 58.9851 167.662C60.2634 166.382 60.7425 164.51 60.7425 162.216H58.7425ZM58.7425 137.671V162.216H60.7425V137.671H58.7425ZM58.7425 137.671V137.671H60.7425V137.671H58.7425ZM58.6789 113.295C58.7425 121.483 58.7425 129.607 58.7425 137.671H60.7425C60.7425 129.608 60.7425 121.477 60.6788 113.279L58.6789 113.295ZM184.113 171.21C184.128 170.355 184.144 169.473 184.187 168.537L182.189 168.444C182.144 169.414 182.128 170.323 182.114 171.176L184.113 171.21ZM183.764 176.3C184.056 174.645 184.083 172.968 184.113 171.21L182.114 171.176C182.083 172.965 182.054 174.48 181.795 175.953L183.764 176.3ZM167.809 189.945C175.85 189.8 182.388 184.203 183.764 176.298L181.794 175.955C180.582 182.914 174.857 187.817 167.773 187.945L167.809 189.945ZM144.279 189.945C152.111 190.013 159.959 190.081 167.809 189.945L167.774 187.945C159.954 188.081 152.133 188.013 144.296 187.945L144.279 189.945ZM140.952 191.722C141.396 190.864 141.822 190.473 142.256 190.261C142.724 190.033 143.333 189.945 144.287 189.945V187.945C143.266 187.945 142.274 188.027 141.379 188.464C140.451 188.917 139.753 189.685 139.175 190.804L140.952 191.722ZM126.79 200.172C133.059 200.1 137.971 197.325 140.946 191.733L139.181 190.793C136.57 195.7 132.352 198.108 126.767 198.172L126.79 200.172ZM106.33 200.172C113.15 200.24 119.969 200.24 126.789 200.172L126.769 198.172C119.963 198.24 113.157 198.24 106.35 198.172L106.33 200.172ZM89.8755 183.976C89.9481 193.055 97.0088 200.099 106.333 200.172L106.348 198.172C98.0952 198.108 91.9392 191.925 91.8755 183.96L89.8755 183.976ZM106.469 167.559C96.9466 167.631 89.8029 174.742 89.8755 183.975L91.8755 183.96C91.8119 175.876 98.0212 169.623 106.484 169.559L106.469 167.559ZM126.584 167.559C119.901 167.491 113.15 167.491 106.466 167.559L106.487 169.559C113.157 169.491 119.894 169.491 126.564 169.559L126.584 167.559ZM141.083 176.135C138.035 170.397 132.982 167.631 126.585 167.559L126.563 169.559C132.294 169.623 136.642 172.038 139.317 177.073L141.083 176.135ZM144.151 177.854C143.291 177.854 142.752 177.755 142.335 177.535C141.934 177.323 141.527 176.935 141.074 176.119L139.325 177.089C139.894 178.114 140.544 178.851 141.402 179.304C142.246 179.749 143.172 179.854 144.151 179.854V177.854ZM155.192 177.82C151.507 177.82 147.825 177.82 144.142 177.854L144.16 179.854C147.832 179.82 151.505 179.82 155.192 179.82V177.82ZM155.197 177.82H155.192V179.82H155.197V177.82ZM166.283 177.786C162.576 177.82 158.885 177.82 155.197 177.82V179.82C158.883 179.82 162.584 179.82 166.302 179.786L166.283 177.786ZM171.969 171.968C171.969 174.431 171.541 175.79 170.78 176.571C170.025 177.344 168.71 177.786 166.293 177.786V179.786C168.849 179.786 170.871 179.341 172.212 177.967C173.545 176.6 173.969 174.55 173.969 171.968H171.969ZM171.969 113.742V171.968H173.969V113.742H171.969ZM179.577 105.924C177.031 105.924 175.017 106.348 173.689 107.72C172.372 109.082 171.969 111.137 171.969 113.742H173.969C173.969 111.233 174.384 109.878 175.127 109.11C175.861 108.352 177.151 107.924 179.577 107.924V105.924ZM181.034 105.921C180.547 105.922 180.062 105.924 179.577 105.924V107.924C180.066 107.924 180.554 107.922 181.04 107.921L181.034 105.921ZM189.896 106.201C186.917 105.903 183.946 105.912 181.034 105.921L181.04 107.921C183.968 107.912 186.837 107.905 189.697 108.191L189.896 106.201ZM204.558 121.838C204.413 113.474 198.149 106.926 189.884 106.2L189.709 108.192C196.977 108.83 202.431 114.554 202.558 121.872L204.558 121.838ZM204.558 153.572C204.694 142.995 204.694 132.419 204.558 121.842L202.558 121.868C202.694 132.427 202.694 142.987 202.558 153.546L204.558 153.572ZM188.603 169.626C197.433 169.337 204.413 162.441 204.558 153.575L202.558 153.543C202.431 161.313 196.33 167.372 188.537 167.627L188.603 169.626ZM183.188 169.491C185.102 169.491 186.767 169.491 188.493 169.624L188.647 167.63C186.831 167.49 185.089 167.491 183.188 167.491V169.491Z" fill="url(#paint1_linear_124_622)" mask="url(#path-4-inside-1_124_622)"/>
<g filter="url(#filter1_b_124_622)">
<mask id="path-6-inside-2_124_622" fill="white">
<path fill-rule="evenodd" clip-rule="evenodd" d="M138.44 167.15C175.752 167.15 205.999 136.902 205.999 99.5905C205.999 62.2786 175.752 32.0312 138.44 32.0312C101.128 32.0312 70.8809 62.2786 70.8809 99.5905C70.8809 114.037 75.4156 127.425 83.1391 138.408L68.3333 164.603L104.512 158.025C114.483 163.827 126.073 167.15 138.44 167.15Z"/>
</mask>
<path fill-rule="evenodd" clip-rule="evenodd" d="M138.44 167.15C175.752 167.15 205.999 136.902 205.999 99.5905C205.999 62.2786 175.752 32.0312 138.44 32.0312C101.128 32.0312 70.8809 62.2786 70.8809 99.5905C70.8809 114.037 75.4156 127.425 83.1391 138.408L68.3333 164.603L104.512 158.025C114.483 163.827 126.073 167.15 138.44 167.15Z" fill="url(#paint2_radial_124_622)" fill-opacity="0.8"/>
<path d="M83.1391 138.408L84.0097 138.9C84.1997 138.564 84.1792 138.149 83.9571 137.833L83.1391 138.408ZM68.3333 164.603L67.4627 164.111C67.2718 164.449 67.2935 164.867 67.5183 165.183C67.7431 165.499 68.1305 165.657 68.5121 165.587L68.3333 164.603ZM104.512 158.025L105.015 157.161C104.809 157.041 104.567 156.999 104.333 157.042L104.512 158.025ZM204.999 99.5905C204.999 136.35 175.2 166.15 138.44 166.15V168.15C176.304 168.15 206.999 137.455 206.999 99.5905H204.999ZM138.44 33.0312C175.2 33.0312 204.999 62.8309 204.999 99.5905H206.999C206.999 61.7263 176.304 31.0312 138.44 31.0312V33.0312ZM71.8809 99.5905C71.8809 62.8309 101.681 33.0312 138.44 33.0312V31.0312C100.576 31.0312 69.8809 61.7263 69.8809 99.5905H71.8809ZM83.9571 137.833C76.3481 127.013 71.8809 113.825 71.8809 99.5905H69.8809C69.8809 114.25 74.483 127.838 82.3212 138.984L83.9571 137.833ZM69.2038 165.095L84.0097 138.9L82.2686 137.916L67.4627 164.111L69.2038 165.095ZM104.333 157.042L68.1544 163.619L68.5121 165.587L104.691 159.009L104.333 157.042ZM138.44 166.15C126.255 166.15 114.837 162.876 105.015 157.161L104.009 158.89C114.128 164.778 125.892 168.15 138.44 168.15V166.15Z" fill="url(#paint3_radial_124_622)" mask="url(#path-6-inside-2_124_622)"/>
</g>
<path fill-rule="evenodd" clip-rule="evenodd" d="M119.319 103.414C119.319 109.046 114.753 113.612 109.121 113.612C103.489 113.612 98.9238 109.046 98.9238 103.414C98.9238 97.7824 103.489 93.2168 109.121 93.2168C114.753 93.2168 119.319 97.7824 119.319 103.414ZM147.364 103.414C147.364 109.046 142.798 113.612 137.166 113.612C131.534 113.612 126.969 109.046 126.969 103.414C126.969 97.7824 131.534 93.2168 137.166 93.2168C142.798 93.2168 147.364 97.7824 147.364 103.414ZM165.209 113.612C170.841 113.612 175.407 109.046 175.407 103.414C175.407 97.7824 170.841 93.2168 165.209 93.2168C159.577 93.2168 155.012 97.7824 155.012 103.414C155.012 109.046 159.577 113.612 165.209 113.612Z" fill="white"/>
</g>
<defs>
<filter id="filter0_f_124_622" x="52" y="210" width="118" height="17" filterUnits="userSpaceOnUse" color-interpolation-filters="sRGB">
<feFlood flood-opacity="0" result="BackgroundImageFix"/>
<feBlend mode="normal" in="SourceGraphic" in2="BackgroundImageFix" result="shape"/>
<feGaussianBlur stdDeviation="3.5" result="effect1_foregroundBlur_124_622"/>
</filter>
<filter id="filter1_b_124_622" x="58.3333" y="22.0312" width="157.666" height="155.118" filterUnits="userSpaceOnUse" color-interpolation-filters="sRGB">
<feFlood flood-opacity="0" result="BackgroundImageFix"/>
<feGaussianBlur in="BackgroundImage" stdDeviation="5"/>
<feComposite in2="SourceAlpha" operator="in" result="effect1_backgroundBlur_124_622"/>
<feBlend mode="normal" in="SourceGraphic" in2="effect1_backgroundBlur_124_622" result="shape"/>
</filter>
<radialGradient id="paint0_radial_124_622" cx="0" cy="0" r="1" gradientUnits="userSpaceOnUse" gradientTransform="translate(78.2458 19.0595) rotate(76.7039) scale(131.24 202.995)">
<stop stop-color="#89E5B9"/>
<stop offset="1" stop-color="#2E9F70"/>
</radialGradient>
<linearGradient id="paint1_linear_124_622" x1="48.0629" y1="45.8811" x2="136.314" y2="203.306" gradientUnits="userSpaceOnUse">
<stop stop-color="white" stop-opacity="0.53"/>
<stop offset="1" stop-color="white" stop-opacity="0"/>
</linearGradient>
<radialGradient id="paint2_radial_124_622" cx="0" cy="0" r="1" gradientUnits="userSpaceOnUse" gradientTransform="translate(137.166 99.5905) rotate(31.9176) scale(63.892 103.616)">
<stop stop-color="white" stop-opacity="0.47"/>
<stop offset="0.963542" stop-color="#BCDFFF"/>
</radialGradient>
<radialGradient id="paint3_radial_124_622" cx="0" cy="0" r="1" gradientUnits="userSpaceOnUse" gradientTransform="translate(137.166 54.551) rotate(58.8779) scale(88.7829 110.304)">
<stop stop-color="white"/>
<stop offset="1" stop-color="white" stop-opacity="0"/>
</radialGradient>
</defs>
</svg>
