<svg width="60" height="60" viewBox="0 0 60 60" fill="none" xmlns="http://www.w3.org/2000/svg">
<path d="M9.35155 33.4852V34.4852C9.67152 34.4852 9.97217 34.3321 10.1603 34.0733C10.3485 33.8145 10.4015 33.4813 10.3028 33.1769L9.35155 33.4852ZM51.3592 26.9659C51.3592 38.5215 41.9605 47.8946 30.3599 47.8946V49.8946C43.059 49.8946 53.3592 39.6321 53.3592 26.9659H51.3592ZM9.36059 26.9659C9.36059 15.4103 18.7593 6.03711 30.3599 6.03711V4.03711C17.6608 4.03711 7.36059 14.2996 7.36059 26.9659H9.36059ZM30.3599 6.03711C41.9605 6.03711 51.3592 15.4103 51.3592 26.9659H53.3592C53.3592 14.2996 43.059 4.03711 30.3599 4.03711V6.03711ZM10.3028 33.1769C9.64899 31.1594 9.36059 29.2247 9.36059 26.9659H7.36059C7.36059 29.4154 7.67636 31.5598 8.40026 33.7935L10.3028 33.1769ZM3.60399 21.0514H9.35155V19.0514H3.60399V21.0514ZM9.35155 32.4852H3.60399V34.4852H9.35155V32.4852ZM2.62207 31.5097V22.027H0.62207V31.5097H2.62207ZM3.60399 32.4852C3.05866 32.4852 2.62207 32.0454 2.62207 31.5097H0.62207C0.62207 33.156 1.96015 34.4852 3.60399 34.4852V32.4852ZM3.60399 19.0514C1.96015 19.0514 0.62207 20.3806 0.62207 22.027H2.62207C2.62207 21.4912 3.05866 21.0514 3.60399 21.0514V19.0514Z" fill="#1A59BD"/>
<path d="M50.6393 20.5156H55.3789C57.0358 20.5156 58.3789 21.8588 58.3789 23.5156V30.4149C58.3789 32.0717 57.0358 33.4149 55.3789 33.4149H50.6393" stroke="#1A59BD" stroke-width="2"/>
<path d="M17.1016 52.3343C17.1016 50.4346 18.6416 48.8945 20.5414 48.8945H30.0008V50.6926C30.0008 53.4991 27.7257 55.7741 24.9193 55.7741H20.5414C18.6416 55.7741 17.1016 54.2341 17.1016 52.3343V52.3343Z" stroke="#1A59BD" stroke-width="2"/>
<path d="M47.1903 26.7883C47.1903 36.2587 39.5626 43.936 30.1533 43.936C26.8287 43.936 14.1269 43.5 14.1269 43.5C14.1269 43.5 16.7258 41.3202 18.8027 39.5764C15.3129 36.4363 13.1162 31.8705 13.1162 26.7883C13.1162 17.3179 20.744 9.64062 30.1533 9.64062C39.5626 9.64062 47.1903 17.3179 47.1903 26.7883Z" stroke="#1A59BD" stroke-width="2" stroke-linejoin="round"/>
<circle cx="23.0732" cy="26.8984" r="1.54882" fill="#1A59BD"/>
<ellipse cx="30.5957" cy="26.8984" rx="1.54882" ry="1.54882" fill="#1A59BD"/>
<ellipse cx="38.1191" cy="26.8984" rx="1.54882" ry="1.54882" fill="#1A59BD"/>
</svg>
