<svg width="60" height="60" viewBox="0 0 60 60" fill="none" xmlns="http://www.w3.org/2000/svg">
<path d="M29.51 1.94531H13.6406L14.1651 12.5786C14.6104 21.6053 18.6723 30.0722 25.4342 36.0686V36.0686C26.1913 36.74 26.6247 37.7035 26.6247 38.7155V38.8999M26.6247 47.7779V42.895" stroke="#1A59BD" stroke-width="2"/>
<path d="M29.5105 1.94531H45.3799L44.8554 12.5786C44.4101 21.6053 40.3482 30.0722 33.5864 36.0686V36.0686C32.8292 36.74 32.3958 37.7035 32.3958 38.7155V38.8999M32.3958 47.7779V42.895" stroke="#1A59BD" stroke-width="2"/>
<path d="M21.9639 48.7773C21.9639 48.2251 22.4116 47.7773 22.9639 47.7773H36.5003C37.0526 47.7773 37.5003 48.2251 37.5003 48.7773V51.5505H21.9639V48.7773Z" stroke="#1A59BD" stroke-width="2"/>
<rect x="24.6279" y="38.9004" width="10.2097" height="3.99508" rx="1.99754" stroke="#1A59BD" stroke-width="2"/>
<path d="M17.9688 52.5508C17.9688 51.9985 18.4165 51.5508 18.9688 51.5508H40.7173C41.2696 51.5508 41.7173 51.9985 41.7173 52.5508V57.3215H17.9688V52.5508Z" stroke="#1A59BD" stroke-width="2"/>
<line x1="13.9736" y1="6.81836" x2="45.0465" y2="6.81836" stroke="#1A59BD" stroke-width="2"/>
<path d="M45.376 9.04809L47.6965 8.36036C49.5653 7.76482 51.4233 8.11417 52.7338 9.04809C54.0254 9.96849 54.8097 11.4659 54.5768 13.319C54.1133 17.0059 53.0186 21.0612 50.6661 24.1319C48.3611 27.1406 45.3077 29.294 39.6094 29.1348" stroke="#1A59BD" stroke-width="2"/>
<path d="M13.8935 9.04809L11.573 8.36036C9.70423 7.76482 7.84619 8.11417 6.53568 9.04809C5.24415 9.96849 4.45982 11.4659 4.69276 13.319C5.15621 17.0059 6.25096 21.0612 8.60343 24.1319C10.9085 27.1406 13.9618 29.294 19.6602 29.1348" stroke="#1A59BD" stroke-width="2"/>
<path d="M19.459 18.6484C20.3468 23.3094 20.9017 24.3081 22.5663 27.4154" stroke="#1A59BD" stroke-width="2"/>
</svg>
