<svg width="77" height="86" viewBox="0 0 77 86" fill="none" xmlns="http://www.w3.org/2000/svg">
<g filter="url(#filter0_f_124_1931)">
<path d="M54.1959 74.757C54.1959 75.0667 45.4926 75.3178 34.7566 75.3178C24.0206 75.3178 15.3174 75.0667 15.3174 74.757C15.3174 74.4473 24.0206 74.1963 34.7566 74.1963C45.4926 74.1963 54.1959 74.4473 54.1959 74.757Z" fill="#141414" fill-opacity="0.17"/>
</g>
<path d="M64.2785 9.66524C78.0451 20.3282 68.3318 46.1599 57.6077 60.0054C46.8836 73.8508 20.5587 71.6084 6.79216 60.9455C-6.97435 50.2825 2.32968 27.1753 13.0538 13.3298C27.5941 -5.44252 50.512 -0.99773 64.2785 9.66524Z" fill="#E6EFFD"/>
<mask id="path-3-inside-1_124_1931" fill="white">
<path fill-rule="evenodd" clip-rule="evenodd" d="M15.5713 35.4249H15.6972C15.6972 23.0617 21.1916 9.79393 35.868 10.0048C48.6275 10.1832 55.5803 17.2434 57.9744 29.2737H65.3601C64.5961 13.7515 49.1446 3.54199 35.868 3.54199C23.074 3.54199 10.7051 12.252 9.82269 33.0226C9.62446 33.0359 9.42624 33.0513 9.22801 33.0694C6.40104 33.3243 4.21078 35.6437 4.15984 38.4983C4.08344 42.5 4.08344 46.4761 4.15984 50.4777C4.21078 53.5363 6.68119 55.9322 9.7119 56.0341C10.509 56.0511 11.2947 56.0455 12.0842 56.0398C12.4804 56.037 12.8775 56.0341 13.2774 56.0341C14.9074 56.0341 15.5951 55.3459 15.5951 53.7147V44.539C15.5951 41.5253 15.5951 38.4873 15.5713 35.4249ZM61.743 56.0618C61.7264 56.4181 61.7206 56.7528 61.7151 57.0721V57.0722C61.7036 57.7351 61.6933 58.3316 61.5901 58.9165C61.1062 61.6947 58.8141 63.6573 55.9871 63.7083C53.0584 63.7592 50.1297 63.7337 47.2011 63.7083H47.2006C46.462 63.7083 46.0036 63.8357 45.6216 64.5749C44.5774 66.5374 42.871 67.506 40.6553 67.5315C38.1085 67.557 35.5617 67.557 33.0148 67.5315C29.7295 67.506 27.259 65.0336 27.2336 61.8476C27.2081 58.6106 29.704 56.1128 33.0658 56.0873C35.5617 56.0618 38.083 56.0618 40.5789 56.0873C42.8456 56.1128 44.6029 57.0814 45.6725 59.0949C46.0546 59.7831 46.462 59.936 47.1497 59.936C48.525 59.9233 49.9002 59.9233 51.2787 59.9233H51.2799C52.658 59.9233 54.0392 59.9233 55.4268 59.9105C57.286 59.9105 57.9227 59.2479 57.9227 57.3617V35.5949C57.9227 33.6833 58.534 33.0461 60.3931 33.0461C60.5751 33.0461 60.757 33.0456 60.9389 33.0451C62.0304 33.042 63.1219 33.0388 64.2134 33.1481C67.1167 33.403 69.307 35.6969 69.3579 38.628C69.4089 42.5787 69.4089 46.5293 69.3579 50.48C69.307 53.5895 66.8621 56.0109 63.7549 56.1128C63.0928 56.0618 62.4561 56.0618 61.743 56.0618Z"/>
</mask>
<path fill-rule="evenodd" clip-rule="evenodd" d="M15.5713 35.4249H15.6972C15.6972 23.0617 21.1916 9.79393 35.868 10.0048C48.6275 10.1832 55.5803 17.2434 57.9744 29.2737H65.3601C64.5961 13.7515 49.1446 3.54199 35.868 3.54199C23.074 3.54199 10.7051 12.252 9.82269 33.0226C9.62446 33.0359 9.42624 33.0513 9.22801 33.0694C6.40104 33.3243 4.21078 35.6437 4.15984 38.4983C4.08344 42.5 4.08344 46.4761 4.15984 50.4777C4.21078 53.5363 6.68119 55.9322 9.7119 56.0341C10.509 56.0511 11.2947 56.0455 12.0842 56.0398C12.4804 56.037 12.8775 56.0341 13.2774 56.0341C14.9074 56.0341 15.5951 55.3459 15.5951 53.7147V44.539C15.5951 41.5253 15.5951 38.4873 15.5713 35.4249ZM61.743 56.0618C61.7264 56.4181 61.7206 56.7528 61.7151 57.0721V57.0722C61.7036 57.7351 61.6933 58.3316 61.5901 58.9165C61.1062 61.6947 58.8141 63.6573 55.9871 63.7083C53.0584 63.7592 50.1297 63.7337 47.2011 63.7083H47.2006C46.462 63.7083 46.0036 63.8357 45.6216 64.5749C44.5774 66.5374 42.871 67.506 40.6553 67.5315C38.1085 67.557 35.5617 67.557 33.0148 67.5315C29.7295 67.506 27.259 65.0336 27.2336 61.8476C27.2081 58.6106 29.704 56.1128 33.0658 56.0873C35.5617 56.0618 38.083 56.0618 40.5789 56.0873C42.8456 56.1128 44.6029 57.0814 45.6725 59.0949C46.0546 59.7831 46.462 59.936 47.1497 59.936C48.525 59.9233 49.9002 59.9233 51.2787 59.9233H51.2799C52.658 59.9233 54.0392 59.9233 55.4268 59.9105C57.286 59.9105 57.9227 59.2479 57.9227 57.3617V35.5949C57.9227 33.6833 58.534 33.0461 60.3931 33.0461C60.5751 33.0461 60.757 33.0456 60.9389 33.0451C62.0304 33.042 63.1219 33.0388 64.2134 33.1481C67.1167 33.403 69.307 35.6969 69.3579 38.628C69.4089 42.5787 69.4089 46.5293 69.3579 50.48C69.307 53.5895 66.8621 56.0109 63.7549 56.1128C63.0928 56.0618 62.4561 56.0618 61.743 56.0618Z" fill="url(#paint0_radial_124_1931)"/>
<path d="M15.5713 35.4249V34.4249H14.5635L14.5713 35.4327L15.5713 35.4249ZM15.6972 35.4249V36.4249H16.6972V35.4249H15.6972ZM35.868 10.0048L35.8536 11.0047L35.854 11.0047L35.868 10.0048ZM57.9744 29.2737L56.9936 29.4689L57.1537 30.2737H57.9744V29.2737ZM65.3601 29.2737V30.2737H66.4106L66.3589 29.2246L65.3601 29.2737ZM9.82269 33.0226L9.88923 34.0204L10.7837 33.9608L10.8218 33.0651L9.82269 33.0226ZM9.22801 33.0694L9.31781 34.0653L9.31861 34.0653L9.22801 33.0694ZM4.15984 38.4983L5.15966 38.5174L5.15968 38.5162L4.15984 38.4983ZM4.15984 50.4777L5.15971 50.4611L5.15966 50.4586L4.15984 50.4777ZM9.7119 56.0341L9.67828 57.0336L9.69062 57.0339L9.7119 56.0341ZM12.0842 56.0398L12.0771 55.0398H12.0771L12.0842 56.0398ZM61.7151 57.0721L60.7152 57.0548L60.7151 57.0635V57.0721H61.7151ZM61.743 56.0618V55.0618H60.7883L60.744 56.0154L61.743 56.0618ZM61.7151 57.0722L62.7149 57.0895L62.7151 57.0808V57.0722H61.7151ZM61.5901 58.9165L60.6053 58.7428L60.605 58.7449L61.5901 58.9165ZM55.9871 63.7083L56.0045 64.7081L56.0052 64.7081L55.9871 63.7083ZM47.2011 63.7083L47.2098 62.7083H47.2011V63.7083ZM45.6216 64.5749L46.5045 65.0446L46.51 65.034L45.6216 64.5749ZM40.6553 67.5315L40.6653 68.5314L40.6668 68.5314L40.6553 67.5315ZM33.0148 67.5315L33.0249 66.5315L33.0226 66.5315L33.0148 67.5315ZM27.2336 61.8476L26.2336 61.8555L26.2336 61.8556L27.2336 61.8476ZM33.0658 56.0873L33.0734 57.0873L33.076 57.0873L33.0658 56.0873ZM40.5789 56.0873L40.5901 55.0874L40.5891 55.0874L40.5789 56.0873ZM45.6725 59.0949L44.7894 59.5641L44.7937 59.5722L44.7982 59.5803L45.6725 59.0949ZM47.1497 59.936V60.9361L47.1589 60.936L47.1497 59.936ZM55.4268 59.9105V58.9105L55.4177 58.9106L55.4268 59.9105ZM60.9389 33.0451L60.936 32.0451H60.936L60.9389 33.0451ZM64.2134 33.1481L64.1138 34.1432L64.1259 34.1442L64.2134 33.1481ZM69.3579 38.628L70.3579 38.6151L70.3578 38.6106L69.3579 38.628ZM69.3579 50.48L70.3578 50.4963L70.3579 50.4929L69.3579 50.48ZM63.7549 56.1128L63.6782 57.1099L63.7329 57.1141L63.7877 57.1123L63.7549 56.1128ZM15.5713 36.4249H15.6972V34.4249H15.5713V36.4249ZM16.6972 35.4249C16.6972 29.3678 18.0468 23.1733 21.1122 18.5524C24.1444 13.9817 28.8769 10.9044 35.8536 11.0047L35.8823 9.00486C28.1826 8.89426 22.8298 12.3454 19.4456 17.4468C16.0948 22.4979 14.6972 29.1188 14.6972 35.4249H16.6972ZM35.854 11.0047C42.0447 11.0912 46.7213 12.8412 50.1368 15.9358C53.5633 19.0404 55.8242 23.5923 56.9936 29.4689L58.9551 29.0786C57.7305 22.9248 55.3179 17.9314 51.4797 14.4537C47.6304 10.9661 42.4508 9.09671 35.882 9.00486L35.854 11.0047ZM57.9744 30.2737H65.3601V28.2737H57.9744V30.2737ZM66.3589 29.2246C65.9601 21.1226 61.7262 14.4406 55.9308 9.80604C50.1453 5.17942 42.7455 2.54199 35.868 2.54199V4.54199C42.2671 4.54199 49.2313 7.00932 54.6817 11.368C60.1223 15.7188 63.9961 21.9026 64.3613 29.3229L66.3589 29.2246ZM35.868 2.54199C29.2435 2.54199 22.6871 4.79968 17.6735 9.78416C12.657 14.7714 9.27308 22.3998 8.82359 32.9802L10.8218 33.0651C11.2547 22.8749 14.4964 15.7629 19.0835 11.2025C23.6734 6.6393 29.6985 4.54199 35.868 4.54199V2.54199ZM9.31861 34.0653C9.50837 34.048 9.69856 34.0331 9.88923 34.0204L9.75615 32.0249C9.55037 32.0386 9.34411 32.0547 9.13741 32.0735L9.31861 34.0653ZM5.15968 38.5162C5.2014 36.1782 6.99335 34.2749 9.31781 34.0653L9.13821 32.0734C5.80873 32.3736 3.22016 35.1092 3.16 38.4805L5.15968 38.5162ZM5.15966 50.4586C5.0835 46.4697 5.0835 42.5063 5.15966 38.5174L3.16002 38.4792C3.08338 42.4936 3.08338 46.4825 3.16002 50.4968L5.15966 50.4586ZM9.74552 55.0347C7.22341 54.9498 5.20138 52.9634 5.1597 50.4611L3.15998 50.4944C3.22018 54.1091 6.13897 56.9145 9.67828 57.0335L9.74552 55.0347ZM12.0771 55.0398C11.2853 55.0455 10.5137 55.051 9.73319 55.0343L9.69062 57.0339C10.5042 57.0512 11.3041 57.0454 12.0914 57.0398L12.0771 55.0398ZM13.2774 55.0341C12.8733 55.0341 12.4727 55.037 12.0771 55.0398L12.0914 57.0398C12.4881 57.0369 12.8817 57.0341 13.2774 57.0341V55.0341ZM14.5951 53.7147C14.5951 54.4188 14.4423 54.677 14.3401 54.7793C14.2381 54.8814 13.9806 55.0341 13.2774 55.0341V57.0341C14.2043 57.0341 15.1056 56.8427 15.7549 56.193C16.404 55.5433 16.5951 54.6418 16.5951 53.7147H14.5951ZM14.5951 44.539V53.7147H16.5951V44.539H14.5951ZM14.5713 35.4327C14.595 38.4905 14.5951 41.5247 14.5951 44.539H16.5951C16.5951 41.5259 16.5951 38.484 16.5713 35.4172L14.5713 35.4327ZM62.7149 57.0894C62.7205 56.7686 62.7261 56.4478 62.7419 56.1083L60.744 56.0154C60.7267 56.3884 60.7207 56.7371 60.7152 57.0548L62.7149 57.0894ZM62.7151 57.0722V57.0721H60.7151V57.0722H62.7151ZM62.5749 59.0902C62.6942 58.414 62.7037 57.7367 62.7149 57.0895L60.7152 57.0549C60.7035 57.7336 60.6924 58.2493 60.6053 58.7428L62.5749 59.0902ZM56.0052 64.7081C59.3105 64.6485 62.009 62.3393 62.5753 59.0881L60.605 58.7449C60.2035 61.0501 58.3178 62.6661 55.9691 62.7084L56.0052 64.7081ZM47.1924 64.7082C50.1189 64.7337 53.0606 64.7593 56.0045 64.7081L55.9697 62.7084C53.0563 62.7591 50.1406 62.7338 47.2098 62.7083L47.1924 64.7082ZM47.2006 64.7083H47.2011V62.7083H47.2006V64.7083ZM46.51 65.034C46.6337 64.7946 46.7082 64.7669 46.7159 64.7631C46.7573 64.7429 46.8652 64.7083 47.2006 64.7083V62.7083C46.7975 62.7083 46.3068 62.7373 45.8389 62.9656C45.3372 63.2104 44.9915 63.6159 44.7332 64.1157L46.51 65.034ZM40.6668 68.5314C43.2246 68.502 45.2778 67.35 46.5044 65.0446L44.7388 64.1051C43.877 65.7248 42.5175 66.51 40.6438 66.5315L40.6668 68.5314ZM33.0048 68.5314C35.5583 68.557 38.1118 68.557 40.6653 68.5314L40.6453 66.5315C38.1051 66.5569 35.565 66.5569 33.0249 66.5315L33.0048 68.5314ZM26.2336 61.8556C26.2635 65.5984 29.1863 68.5018 33.0071 68.5314L33.0226 66.5315C30.2726 66.5102 28.2546 64.4689 28.2335 61.8396L26.2336 61.8556ZM33.0582 55.0874C29.1667 55.1169 26.2036 58.0438 26.2336 61.8555L28.2335 61.8398C28.2126 59.1775 30.2413 57.1088 33.0734 57.0873L33.0582 55.0874ZM40.5891 55.0874C38.0864 55.0618 35.5583 55.0618 33.0556 55.0874L33.076 57.0873C35.5651 57.0619 38.0796 57.0619 40.5687 57.0873L40.5891 55.0874ZM46.5557 58.6258C45.2993 56.2609 43.1895 55.1166 40.5901 55.0874L40.5676 57.0873C42.5016 57.109 43.9064 57.9019 44.7894 59.5641L46.5557 58.6258ZM47.1497 58.936C46.865 58.936 46.785 58.9006 46.763 58.889C46.7558 58.8852 46.6803 58.85 46.5469 58.6096L44.7982 59.5803C45.0468 60.028 45.3661 60.4134 45.83 60.6581C46.2792 60.895 46.7467 60.936 47.1497 60.936V58.936ZM51.2787 58.9233C49.901 58.9233 48.5211 58.9233 47.1404 58.9361L47.1589 60.936C48.5288 60.9233 49.8995 60.9233 51.2787 60.9233V58.9233ZM51.2799 58.9233H51.2787V60.9233H51.2799V58.9233ZM55.4177 58.9106C54.0354 58.9233 52.6587 58.9233 51.2799 58.9233V60.9233C52.6573 60.9233 54.0431 60.9233 55.436 60.9105L55.4177 58.9106ZM56.9227 57.3617C56.9227 58.2449 56.7617 58.5369 56.6561 58.6452C56.5572 58.7466 56.2868 58.9105 55.4268 58.9105V60.9105C56.4261 60.9105 57.4036 60.7432 58.0878 60.0417C58.7654 59.3471 58.9227 58.3647 58.9227 57.3617H56.9227ZM56.9227 35.5949V57.3617H58.9227V35.5949H56.9227ZM60.3931 32.0461C59.4035 32.0461 58.424 32.2033 57.742 32.9084C57.0694 33.6038 56.9227 34.5912 56.9227 35.5949H58.9227C58.9227 34.6871 59.0817 34.4001 59.1795 34.2989C59.2679 34.2075 59.5236 34.0461 60.3931 34.0461V32.0461ZM60.936 32.0451C60.7539 32.0456 60.5734 32.0461 60.3931 32.0461V34.0461C60.5767 34.0461 60.7601 34.0456 60.9417 34.0451L60.936 32.0451ZM64.3129 32.153C63.1619 32.0379 62.0191 32.042 60.936 32.0451L60.9417 34.0451C62.0417 34.0419 63.0818 34.0398 64.1138 34.1431L64.3129 32.153ZM70.3578 38.6106C70.2978 35.157 67.7031 32.4506 64.3008 32.1519L64.1259 34.1442C66.5303 34.3553 68.3162 36.2367 68.3581 38.6454L70.3578 38.6106ZM70.3579 50.4929C70.4089 46.5336 70.4089 42.5744 70.3579 38.6151L68.358 38.6409C68.4088 42.583 68.4088 46.525 68.358 50.4671L70.3579 50.4929ZM63.7877 57.1123C67.4133 56.9933 70.2979 54.1533 70.3578 50.4963L68.3581 50.4636C68.3161 53.0257 66.3108 55.0284 63.7221 55.1134L63.7877 57.1123ZM61.743 57.0618C62.4624 57.0618 63.0607 57.0623 63.6782 57.1099L63.8317 55.1158C63.1248 55.0614 62.4497 55.0618 61.743 55.0618V57.0618Z" fill="url(#paint1_linear_124_1931)" mask="url(#path-3-inside-1_124_1931)"/>
<g filter="url(#filter1_b_124_1931)">
<mask id="path-5-inside-2_124_1931" fill="white">
<path fill-rule="evenodd" clip-rule="evenodd" d="M45.0143 55.5614C58.9627 55.5614 70.2701 44.254 70.2701 30.3056C70.2701 16.3572 58.9627 5.0498 45.0143 5.0498C31.0659 5.0498 19.7585 16.3572 19.7585 30.3056C19.7585 35.7065 21.4538 40.7115 24.3413 44.8173L18.8066 54.6095L32.331 52.1505C36.0583 54.3193 40.3913 55.5614 45.0143 55.5614Z"/>
</mask>
<path fill-rule="evenodd" clip-rule="evenodd" d="M45.0143 55.5614C58.9627 55.5614 70.2701 44.254 70.2701 30.3056C70.2701 16.3572 58.9627 5.0498 45.0143 5.0498C31.0659 5.0498 19.7585 16.3572 19.7585 30.3056C19.7585 35.7065 21.4538 40.7115 24.3413 44.8173L18.8066 54.6095L32.331 52.1505C36.0583 54.3193 40.3913 55.5614 45.0143 55.5614Z" fill="url(#paint2_radial_124_1931)" fill-opacity="0.8"/>
<path d="M24.3413 44.8173L25.2119 45.3094C25.4019 44.9733 25.3814 44.5579 25.1593 44.2421L24.3413 44.8173ZM18.8066 54.6095L17.9361 54.1174C17.7452 54.4552 17.7669 54.8728 17.9917 55.189C18.2165 55.5051 18.6038 55.6628 18.9855 55.5934L18.8066 54.6095ZM32.331 52.1505L32.8339 51.2862C32.6282 51.1664 32.3864 51.124 32.1521 51.1666L32.331 52.1505ZM69.2701 30.3056C69.2701 43.7017 58.4104 54.5614 45.0143 54.5614V56.5614C59.515 56.5614 71.2701 44.8063 71.2701 30.3056H69.2701ZM45.0143 6.0498C58.4104 6.0498 69.2701 16.9095 69.2701 30.3056H71.2701C71.2701 15.8049 59.515 4.0498 45.0143 4.0498V6.0498ZM20.7585 30.3056C20.7585 16.9095 31.6182 6.0498 45.0143 6.0498V4.0498C30.5136 4.0498 18.7585 15.8049 18.7585 30.3056H20.7585ZM25.1593 44.2421C22.3864 40.2992 20.7585 35.494 20.7585 30.3056H18.7585C18.7585 35.9191 20.5213 41.1238 23.5233 45.3926L25.1593 44.2421ZM19.6772 55.1015L25.2119 45.3094L23.4708 44.3253L17.9361 54.1174L19.6772 55.1015ZM32.1521 51.1666L18.6278 53.6256L18.9855 55.5934L32.5099 53.1344L32.1521 51.1666ZM45.0143 54.5614C40.5727 54.5614 36.4126 53.3685 32.8339 51.2862L31.8281 53.0148C35.704 55.2701 40.2099 56.5614 45.0143 56.5614V54.5614Z" fill="url(#paint3_radial_124_1931)" mask="url(#path-5-inside-2_124_1931)"/>
</g>
<path fill-rule="evenodd" clip-rule="evenodd" d="M37.8666 31.7351C37.8666 33.8405 36.1598 35.5472 34.0544 35.5472C31.949 35.5472 30.2422 33.8405 30.2422 31.7351C30.2422 29.6296 31.949 27.9229 34.0544 27.9229C36.1598 27.9229 37.8666 29.6296 37.8666 31.7351ZM48.351 31.7351C48.351 33.8405 46.6442 35.5472 44.5388 35.5472C42.4333 35.5472 40.7266 33.8405 40.7266 31.7351C40.7266 29.6296 42.4333 27.9229 44.5388 27.9229C46.6442 27.9229 48.351 29.6296 48.351 31.7351ZM55.0222 35.5472C57.1276 35.5472 58.8344 33.8405 58.8344 31.7351C58.8344 29.6296 57.1276 27.9229 55.0222 27.9229C52.9167 27.9229 51.21 29.6296 51.21 31.7351C51.21 33.8405 52.9167 35.5472 55.0222 35.5472Z" fill="white"/>
<defs>
<filter id="filter0_f_124_1931" x="8.31738" y="67.1963" width="52.8789" height="15.1211" filterUnits="userSpaceOnUse" color-interpolation-filters="sRGB">
<feFlood flood-opacity="0" result="BackgroundImageFix"/>
<feBlend mode="normal" in="SourceGraphic" in2="BackgroundImageFix" result="shape"/>
<feGaussianBlur stdDeviation="3.5" result="effect1_foregroundBlur_124_1931"/>
</filter>
<filter id="filter1_b_124_1931" x="8.80664" y="-4.9502" width="71.4639" height="70.5117" filterUnits="userSpaceOnUse" color-interpolation-filters="sRGB">
<feFlood flood-opacity="0" result="BackgroundImageFix"/>
<feGaussianBlur in="BackgroundImage" stdDeviation="5"/>
<feComposite in2="SourceAlpha" operator="in" result="effect1_backgroundBlur_124_1931"/>
<feBlend mode="normal" in="SourceGraphic" in2="effect1_backgroundBlur_124_1931" result="shape"/>
</filter>
<radialGradient id="paint0_radial_124_1931" cx="0" cy="0" r="1" gradientUnits="userSpaceOnUse" gradientTransform="translate(22.5122 0.199739) rotate(76.7039) scale(49.0616 75.8861)">
<stop stop-color="#89E5B9"/>
<stop offset="1" stop-color="#2E9F70"/>
</radialGradient>
<linearGradient id="paint1_linear_124_1931" x1="11.2289" y1="10.2265" x2="44.2198" y2="69.077" gradientUnits="userSpaceOnUse">
<stop stop-color="white" stop-opacity="0.53"/>
<stop offset="1" stop-color="white" stop-opacity="0"/>
</linearGradient>
<radialGradient id="paint2_radial_124_1931" cx="0" cy="0" r="1" gradientUnits="userSpaceOnUse" gradientTransform="translate(44.5384 30.3056) rotate(31.9179) scale(23.8847 38.7349)">
<stop stop-color="white" stop-opacity="0.47"/>
<stop offset="0.963542" stop-color="#BCDFFF"/>
</radialGradient>
<radialGradient id="paint3_radial_124_1931" cx="0" cy="0" r="1" gradientUnits="userSpaceOnUse" gradientTransform="translate(44.5384 13.4684) rotate(58.8781) scale(33.1898 41.2348)">
<stop stop-color="white"/>
<stop offset="1" stop-color="white" stop-opacity="0"/>
</radialGradient>
</defs>
</svg>
