<svg width="78" height="98" viewBox="0 0 78 98" fill="none" xmlns="http://www.w3.org/2000/svg">
<path d="M67.5852 19.6628C82.1019 30.9069 71.8593 58.1464 60.5508 72.7464C49.2422 87.3464 21.4827 84.9817 6.96597 73.7377C-7.55077 62.4936 2.2603 38.1271 13.5689 23.5271C28.9016 3.73172 53.0684 8.41874 67.5852 19.6628Z" fill="#E6EFFD"/>
<path d="M65.5778 43.3734C65.5778 47.946 63.967 52.8693 61.514 57.7066C59.0635 62.5387 55.7907 67.25 52.5086 71.3893C49.2278 75.5271 45.9456 79.0835 43.4832 81.6057C42.2522 82.8665 41.2268 83.8682 40.5098 84.5541C40.1781 84.8714 39.9125 85.1211 39.723 85.2976C39.5336 85.1211 39.2679 84.8714 38.9362 84.5541C38.2192 83.8682 37.1938 82.8665 35.9628 81.6057C33.5004 79.0835 30.2182 75.5271 26.9374 71.3893C23.6553 67.25 20.3825 62.5387 17.932 57.7066C15.479 52.8693 13.8682 47.946 13.8682 43.3734C13.8682 29.0942 25.4438 17.5186 39.723 17.5186C54.0022 17.5186 65.5778 29.0942 65.5778 43.3734Z" fill="url(#paint0_radial_124_1891)" stroke="url(#paint1_linear_124_1891)"/>
<g filter="url(#filter0_f_124_1891)">
<path d="M58.0537 91.2407C58.0537 91.5414 49.604 91.7851 39.1807 91.7851C28.7574 91.7851 20.3076 91.5414 20.3076 91.2407C20.3076 90.94 28.7574 90.6963 39.1807 90.6963C49.604 90.6963 58.0537 90.94 58.0537 91.2407Z" fill="#141414" fill-opacity="0.17"/>
</g>
<g filter="url(#filter1_b_124_1891)">
<ellipse cx="40.4173" cy="42.68" rx="11.7903" ry="11.7903" fill="url(#paint2_radial_124_1891)"/>
<path d="M51.7076 42.68C51.7076 48.9155 46.6528 53.9703 40.4173 53.9703C34.1818 53.9703 29.127 48.9155 29.127 42.68C29.127 36.4445 34.1818 31.3896 40.4173 31.3896C46.6528 31.3896 51.7076 36.4445 51.7076 42.68Z" stroke="url(#paint3_radial_124_1891)" stroke-linecap="round" stroke-linejoin="round"/>
</g>
<defs>
<filter id="filter0_f_124_1891" x="13.3076" y="83.6963" width="51.7461" height="15.0889" filterUnits="userSpaceOnUse" color-interpolation-filters="sRGB">
<feFlood flood-opacity="0" result="BackgroundImageFix"/>
<feBlend mode="normal" in="SourceGraphic" in2="BackgroundImageFix" result="shape"/>
<feGaussianBlur stdDeviation="3.5" result="effect1_foregroundBlur_124_1891"/>
</filter>
<filter id="filter1_b_124_1891" x="18.627" y="20.8896" width="43.5811" height="43.5811" filterUnits="userSpaceOnUse" color-interpolation-filters="sRGB">
<feFlood flood-opacity="0" result="BackgroundImageFix"/>
<feGaussianBlur in="BackgroundImage" stdDeviation="5"/>
<feComposite in2="SourceAlpha" operator="in" result="effect1_backgroundBlur_124_1891"/>
<feBlend mode="normal" in="SourceGraphic" in2="effect1_backgroundBlur_124_1891" result="shape"/>
</filter>
<radialGradient id="paint0_radial_124_1891" cx="0" cy="0" r="1" gradientUnits="userSpaceOnUse" gradientTransform="translate(28.2298 13.4178) rotate(79.9583) scale(52.2396 61.9837)">
<stop stop-color="#E5D689"/>
<stop offset="1" stop-color="#FF6D2E"/>
</radialGradient>
<linearGradient id="paint1_linear_124_1891" x1="19.121" y1="24.2201" x2="59.09" y2="77.645" gradientUnits="userSpaceOnUse">
<stop stop-color="white" stop-opacity="0.53"/>
<stop offset="1" stop-color="white" stop-opacity="0"/>
</linearGradient>
<radialGradient id="paint2_radial_124_1891" cx="0" cy="0" r="1" gradientUnits="userSpaceOnUse" gradientTransform="translate(43.1915 54.4703) rotate(-101.31) scale(28.2914 46.2541)">
<stop stop-color="white" stop-opacity="0.47"/>
<stop offset="0.963542" stop-color="#BCDFFF"/>
</radialGradient>
<radialGradient id="paint3_radial_124_1891" cx="0" cy="0" r="1" gradientUnits="userSpaceOnUse" gradientTransform="translate(40.4173 34.8198) rotate(59.3493) scale(15.4182 18.987)">
<stop stop-color="white"/>
<stop offset="1" stop-color="white" stop-opacity="0"/>
</radialGradient>
</defs>
</svg>
