<svg width="170" height="260" viewBox="0 0 170 260" fill="none" xmlns="http://www.w3.org/2000/svg">
<mask id="mask0_124_579" style="mask-type:alpha" maskUnits="userSpaceOnUse" x="0" y="0" width="170" height="286">
<rect width="170" height="286" rx="20" fill="#F7FAFF"/>
</mask>
<g mask="url(#mask0_124_579)">
<path d="M197.14 52.0754C235.972 82.1533 208.573 155.019 178.323 194.074C148.073 233.129 73.816 226.804 34.9837 196.726C-3.84861 166.648 22.396 101.467 52.6464 62.4125C93.6614 9.45976 158.308 21.9975 197.14 52.0754Z" fill="#E6EFFD"/>
<path d="M192.608 115.499C192.608 127.916 188.238 141.221 181.646 154.219C175.057 167.212 166.266 179.863 157.466 190.962C148.667 202.059 139.867 211.594 133.266 218.356C129.966 221.736 127.216 224.422 125.292 226.263C124.33 227.183 123.575 227.892 123.06 228.37C122.879 228.538 122.728 228.678 122.609 228.788C122.489 228.678 122.338 228.538 122.157 228.37C121.643 227.892 120.887 227.183 119.925 226.263C118.001 224.422 115.251 221.736 111.951 218.356C105.35 211.594 96.5497 202.059 87.7508 190.962C78.9507 179.863 70.1598 167.212 63.5708 154.219C56.9792 141.221 52.6094 127.916 52.6094 115.499C52.6094 76.8397 83.9491 45.5 122.609 45.5C161.268 45.5 192.608 76.8397 192.608 115.499Z" fill="url(#paint0_radial_124_579)" stroke="url(#paint1_linear_124_579)"/>
<g filter="url(#filter0_f_124_579)">
<path d="M171.643 243.544C171.643 244.348 149.04 245.001 121.157 245.001C93.275 245.001 70.6719 244.348 70.6719 243.544C70.6719 242.74 93.275 242.088 121.157 242.088C149.04 242.088 171.643 242.74 171.643 243.544Z" fill="#141414" fill-opacity="0.17"/>
</g>
<g filter="url(#filter1_b_124_579)">
<circle cx="124.465" cy="113.645" r="31.5391" fill="url(#paint2_radial_124_579)"/>
<circle cx="124.465" cy="113.645" r="31.0391" stroke="url(#paint3_radial_124_579)" stroke-linecap="round" stroke-linejoin="round"/>
</g>
</g>
<defs>
<filter id="filter0_f_124_579" x="63.6719" y="235.088" width="114.971" height="16.9131" filterUnits="userSpaceOnUse" color-interpolation-filters="sRGB">
<feFlood flood-opacity="0" result="BackgroundImageFix"/>
<feBlend mode="normal" in="SourceGraphic" in2="BackgroundImageFix" result="shape"/>
<feGaussianBlur stdDeviation="3.5" result="effect1_foregroundBlur_124_579"/>
</filter>
<filter id="filter1_b_124_579" x="82.9258" y="72.1055" width="83.0781" height="83.0781" filterUnits="userSpaceOnUse" color-interpolation-filters="sRGB">
<feFlood flood-opacity="0" result="BackgroundImageFix"/>
<feGaussianBlur in="BackgroundImage" stdDeviation="5"/>
<feComposite in2="SourceAlpha" operator="in" result="effect1_backgroundBlur_124_579"/>
<feBlend mode="normal" in="SourceGraphic" in2="effect1_backgroundBlur_124_579" result="shape"/>
</filter>
<radialGradient id="paint0_radial_124_579" cx="0" cy="0" r="1" gradientUnits="userSpaceOnUse" gradientTransform="translate(91.8641 35.368) rotate(79.9583) scale(139.741 165.806)">
<stop stop-color="#E5D689"/>
<stop offset="1" stop-color="#FF6D2E"/>
</radialGradient>
<linearGradient id="paint1_linear_124_579" x1="67.4983" y1="64.264" x2="174.415" y2="207.176" gradientUnits="userSpaceOnUse">
<stop stop-color="white" stop-opacity="0.53"/>
<stop offset="1" stop-color="white" stop-opacity="0"/>
</linearGradient>
<radialGradient id="paint2_radial_124_579" cx="0" cy="0" r="1" gradientUnits="userSpaceOnUse" gradientTransform="translate(131.886 145.184) rotate(-101.31) scale(75.6793 123.73)">
<stop stop-color="white" stop-opacity="0.47"/>
<stop offset="0.963542" stop-color="#BCDFFF"/>
</radialGradient>
<radialGradient id="paint3_radial_124_579" cx="0" cy="0" r="1" gradientUnits="userSpaceOnUse" gradientTransform="translate(124.465 92.6185) rotate(59.3493) scale(41.2436 50.7903)">
<stop stop-color="white"/>
<stop offset="1" stop-color="white" stop-opacity="0"/>
</radialGradient>
</defs>
</svg>
