<svg width="80" height="83" viewBox="0 0 80 83" fill="none" xmlns="http://www.w3.org/2000/svg">
<g filter="url(#filter0_f_124_1903)">
<path d="M60.9073 70.363C60.9073 70.6617 49.5279 70.9038 35.4908 70.9038C21.4536 70.9038 10.0742 70.6617 10.0742 70.363C10.0742 70.0644 21.4536 69.8223 35.4908 69.8223C49.5279 69.8223 60.9073 70.0644 60.9073 70.363Z" fill="#141414" fill-opacity="0.17"/>
</g>
<path d="M62.3388 9.39424C75.615 19.6775 66.2477 44.5892 55.9055 57.9416C45.5633 71.294 20.1759 69.1314 6.89966 58.8482C-6.37658 48.565 2.59611 26.2807 12.9383 12.9283C26.9608 -5.17548 49.0625 -0.88899 62.3388 9.39424Z" fill="#E6EFFD"/>
<rect x="16.5244" y="58.8945" width="4.02194" height="8.04386" rx="2.01097" fill="#B1B3E7"/>
<rect x="63.7822" y="58.8945" width="4.02193" height="8.04386" rx="2.01097" fill="#B1B3E7"/>
<path d="M71.6048 38.3996H71.6055C74.9735 38.3996 77.3541 40.8452 77.3799 44.2249C77.3985 46.8348 77.3923 49.4304 77.3861 52.0328C77.383 53.337 77.3799 54.6429 77.3799 55.9531C77.3799 57.9027 76.7675 59.4438 75.71 60.5032C74.6523 61.5626 73.1004 62.1894 71.128 62.2163C61.1762 62.2163 53.0008 62.1851 44.4283 62.1523L43.1144 62.1473C34.0665 62.1128 24.4593 62.0784 11.7793 62.0783C8.85995 61.5273 7.01646 59.309 6.99063 56.3909C6.96276 52.3079 6.96276 48.1974 6.99063 44.1144C7.01645 40.8855 9.4687 38.4259 12.7674 38.3996C32.3706 38.372 51.9737 38.372 71.6048 38.3996Z" fill="url(#paint0_radial_124_1903)" stroke="url(#paint1_linear_124_1903)"/>
<path d="M20.6579 33.7572C19.403 33.7572 18.1481 33.8124 16.9211 33.7296C16.6144 33.702 16.1682 33.3707 16.0567 33.0671C12.9891 26.0555 9.92164 19.0162 6.9099 11.9494C6.38006 10.6796 6.85413 9.465 7.9417 9.02332C9.02927 8.58164 10.1726 9.02332 10.7025 10.2103C14.0488 17.8568 17.3673 25.531 20.6579 33.2051C20.6858 33.3431 20.6579 33.4811 20.6579 33.7572Z" fill="#4E5E7F"/>
<path d="M63.5186 33.757C65.1917 29.8923 66.7534 26.2761 68.315 22.6599C70.044 18.6572 71.7451 14.6269 73.5298 10.6518C73.8365 9.98928 74.5058 9.24395 75.203 9.02311C75.7328 8.82988 76.8483 9.16113 77.1272 9.60281C77.5176 10.2377 77.6849 11.3143 77.406 12.0044C76.179 15.1238 74.7847 18.1603 73.4461 21.252C71.773 25.0891 70.0998 28.8985 68.4823 32.7632C68.1756 33.5085 67.7852 33.8398 66.9486 33.7846C65.9168 33.7018 64.8292 33.757 63.5186 33.757Z" fill="#4E5E7F"/>
<g filter="url(#filter1_b_124_1903)">
<ellipse cx="41.4259" cy="22.0743" rx="20.7501" ry="20.7501" fill="url(#paint2_radial_124_1903)" fill-opacity="0.8"/>
<path d="M61.676 22.0743C61.676 33.2581 52.6097 42.3244 41.4259 42.3244C30.2421 42.3244 21.1758 33.2581 21.1758 22.0743C21.1758 10.8905 30.2421 1.82422 41.4259 1.82422C52.6097 1.82422 61.676 10.8905 61.676 22.0743Z" stroke="url(#paint3_radial_124_1903)" stroke-linecap="round" stroke-linejoin="round"/>
</g>
<g filter="url(#filter2_b_124_1903)">
<path fill-rule="evenodd" clip-rule="evenodd" d="M52.9772 17.8311C49.7558 14.7892 45.896 13.2756 40.908 13.2168C40.7347 13.2394 40.5097 13.2605 40.2495 13.285C39.6627 13.3402 38.8976 13.4122 38.1468 13.5548C34.9105 14.172 32.1196 15.6562 29.7592 17.9487C29.0912 18.5953 29.1654 19.5064 29.9225 19.8297C30.5312 20.0942 31.0062 19.8297 31.4516 19.4035C37.1076 14.0838 45.7773 14.0838 51.4333 19.4035C52.1013 20.0354 52.7545 20.1089 53.2444 19.6093C53.764 19.0802 53.6749 18.4924 52.9772 17.8311ZM49.8595 20.9463C47.4843 18.7861 44.6934 17.6546 41.4571 17.5958C41.1899 17.6234 40.9227 17.6447 40.6555 17.6661C40.2101 17.7016 39.7647 17.7372 39.3194 17.8015C36.8402 18.213 34.6877 19.3152 32.9062 21.0639C32.6242 21.3431 32.4906 21.9015 32.5499 22.2983C32.5945 22.5775 33.0695 22.9743 33.3664 22.989C33.7524 23.0184 34.2275 22.7832 34.5244 22.5187C37.2856 20.094 40.4476 19.3152 44.0253 20.1675C45.7177 20.5789 47.1428 21.4607 48.4195 22.6363C49.1618 23.3123 50.1416 23.0919 50.3494 22.2395C50.483 21.6958 50.2455 21.299 49.8595 20.9463ZM47.4407 25.1195C47.3468 25.2302 47.261 25.3488 47.1784 25.4629C46.9867 25.7279 46.8124 25.969 46.5945 26.0307C46.2085 26.1335 45.6295 26.0453 45.3326 25.7955C44.4271 25.0608 43.4621 24.5464 42.3042 24.3701C40.6564 24.1203 39.1718 24.517 37.8655 25.531C37.7987 25.5824 37.7356 25.6412 37.6725 25.7C37.6094 25.7588 37.5463 25.8176 37.4795 25.869C36.9154 26.3099 36.3364 26.2805 35.891 25.8102C35.4754 25.3694 35.5051 24.7228 35.995 24.2378C37.0193 23.2238 38.2514 22.5919 39.6617 22.3127C42.2893 21.769 44.6497 22.3274 46.6835 24.1056C46.8697 24.2608 47.0042 24.4672 47.1637 24.7121C47.2459 24.8383 47.3347 24.9747 47.4407 25.1195ZM41.5214 30.9295C42.7305 30.9295 43.7107 29.9493 43.7107 28.7401C43.7107 27.531 42.7305 26.5508 41.5214 26.5508C40.3122 26.5508 39.332 27.531 39.332 28.7401C39.332 29.9493 40.3122 30.9295 41.5214 30.9295Z" fill="#4E5E7F"/>
</g>
<g filter="url(#filter3_b_124_1903)">
<mask id="path-11-inside-1_124_1903" fill="white">
<path fill-rule="evenodd" clip-rule="evenodd" d="M18.0332 47.834C16.645 47.834 15.5195 48.9594 15.5195 50.3477C15.5195 51.736 16.645 52.8614 18.0332 52.8614H40.1538C41.5421 52.8614 42.6676 51.736 42.6676 50.3477C42.6676 48.9594 41.5421 47.834 40.1538 47.834H18.0332ZM51.7169 50.3477C51.7169 51.736 50.5915 52.8614 49.2032 52.8614C47.8149 52.8614 46.6895 51.736 46.6895 50.3477C46.6895 48.9594 47.8149 47.834 49.2032 47.834C50.5915 47.834 51.7169 48.9594 51.7169 50.3477ZM58.253 52.8614C59.6412 52.8614 60.7667 51.736 60.7667 50.3477C60.7667 48.9594 59.6412 47.834 58.253 47.834C56.8647 47.834 55.7393 48.9594 55.7393 50.3477C55.7393 51.736 56.8647 52.8614 58.253 52.8614ZM67.3018 52.8614C68.6901 52.8614 69.8155 51.736 69.8155 50.3477C69.8155 48.9594 68.6901 47.834 67.3018 47.834C65.9135 47.834 64.7881 48.9594 64.7881 50.3477C64.7881 51.736 65.9135 52.8614 67.3018 52.8614Z"/>
</mask>
<path fill-rule="evenodd" clip-rule="evenodd" d="M18.0332 47.834C16.645 47.834 15.5195 48.9594 15.5195 50.3477C15.5195 51.736 16.645 52.8614 18.0332 52.8614H40.1538C41.5421 52.8614 42.6676 51.736 42.6676 50.3477C42.6676 48.9594 41.5421 47.834 40.1538 47.834H18.0332ZM51.7169 50.3477C51.7169 51.736 50.5915 52.8614 49.2032 52.8614C47.8149 52.8614 46.6895 51.736 46.6895 50.3477C46.6895 48.9594 47.8149 47.834 49.2032 47.834C50.5915 47.834 51.7169 48.9594 51.7169 50.3477ZM58.253 52.8614C59.6412 52.8614 60.7667 51.736 60.7667 50.3477C60.7667 48.9594 59.6412 47.834 58.253 47.834C56.8647 47.834 55.7393 48.9594 55.7393 50.3477C55.7393 51.736 56.8647 52.8614 58.253 52.8614ZM67.3018 52.8614C68.6901 52.8614 69.8155 51.736 69.8155 50.3477C69.8155 48.9594 68.6901 47.834 67.3018 47.834C65.9135 47.834 64.7881 48.9594 64.7881 50.3477C64.7881 51.736 65.9135 52.8614 67.3018 52.8614Z" fill="url(#paint4_radial_124_1903)"/>
<path d="M16.5195 50.3477C16.5195 49.5117 17.1972 48.834 18.0332 48.834V46.834C16.0927 46.834 14.5195 48.4071 14.5195 50.3477H16.5195ZM18.0332 51.8614C17.1972 51.8614 16.5195 51.1837 16.5195 50.3477H14.5195C14.5195 52.2883 16.0927 53.8614 18.0332 53.8614V51.8614ZM40.1538 51.8614H18.0332V53.8614H40.1538V51.8614ZM41.6676 50.3477C41.6676 51.1837 40.9898 51.8614 40.1538 51.8614V53.8614C42.0944 53.8614 43.6676 52.2883 43.6676 50.3477H41.6676ZM40.1538 48.834C40.9898 48.834 41.6676 49.5117 41.6676 50.3477H43.6676C43.6676 48.4071 42.0944 46.834 40.1538 46.834V48.834ZM18.0332 48.834H40.1538V46.834H18.0332V48.834ZM49.2032 53.8614C51.1438 53.8614 52.7169 52.2883 52.7169 50.3477H50.7169C50.7169 51.1837 50.0392 51.8614 49.2032 51.8614V53.8614ZM45.6895 50.3477C45.6895 52.2883 47.2627 53.8614 49.2032 53.8614V51.8614C48.3672 51.8614 47.6895 51.1837 47.6895 50.3477H45.6895ZM49.2032 46.834C47.2627 46.834 45.6895 48.4071 45.6895 50.3477H47.6895C47.6895 49.5117 48.3672 48.834 49.2032 48.834V46.834ZM52.7169 50.3477C52.7169 48.4071 51.1438 46.834 49.2032 46.834V48.834C50.0392 48.834 50.7169 49.5117 50.7169 50.3477H52.7169ZM59.7667 50.3477C59.7667 51.1837 59.089 51.8614 58.253 51.8614V53.8614C60.1935 53.8614 61.7667 52.2883 61.7667 50.3477H59.7667ZM58.253 48.834C59.089 48.834 59.7667 49.5117 59.7667 50.3477H61.7667C61.7667 48.4071 60.1935 46.834 58.253 46.834V48.834ZM56.7393 50.3477C56.7393 49.5117 57.417 48.834 58.253 48.834V46.834C56.3124 46.834 54.7393 48.4071 54.7393 50.3477H56.7393ZM58.253 51.8614C57.417 51.8614 56.7393 51.1837 56.7393 50.3477H54.7393C54.7393 52.2883 56.3124 53.8614 58.253 53.8614V51.8614ZM68.8155 50.3477C68.8155 51.1837 68.1378 51.8614 67.3018 51.8614V53.8614C69.2424 53.8614 70.8155 52.2883 70.8155 50.3477H68.8155ZM67.3018 48.834C68.1378 48.834 68.8155 49.5117 68.8155 50.3477H70.8155C70.8155 48.4071 69.2424 46.834 67.3018 46.834V48.834ZM65.7881 50.3477C65.7881 49.5117 66.4658 48.834 67.3018 48.834V46.834C65.3612 46.834 63.7881 48.4071 63.7881 50.3477H65.7881ZM67.3018 51.8614C66.4658 51.8614 65.7881 51.1837 65.7881 50.3477H63.7881C63.7881 52.2883 65.3612 53.8614 67.3018 53.8614V51.8614Z" fill="url(#paint5_radial_124_1903)" mask="url(#path-11-inside-1_124_1903)"/>
</g>
<defs>
<filter id="filter0_f_124_1903" x="3.07422" y="62.8223" width="64.833" height="15.082" filterUnits="userSpaceOnUse" color-interpolation-filters="sRGB">
<feFlood flood-opacity="0" result="BackgroundImageFix"/>
<feBlend mode="normal" in="SourceGraphic" in2="BackgroundImageFix" result="shape"/>
<feGaussianBlur stdDeviation="3.5" result="effect1_foregroundBlur_124_1903"/>
</filter>
<filter id="filter1_b_124_1903" x="10.6758" y="-8.67578" width="61.5" height="61.5" filterUnits="userSpaceOnUse" color-interpolation-filters="sRGB">
<feFlood flood-opacity="0" result="BackgroundImageFix"/>
<feGaussianBlur in="BackgroundImage" stdDeviation="5"/>
<feComposite in2="SourceAlpha" operator="in" result="effect1_backgroundBlur_124_1903"/>
<feBlend mode="normal" in="SourceGraphic" in2="effect1_backgroundBlur_124_1903" result="shape"/>
</filter>
<filter id="filter2_b_124_1903" x="19.3027" y="3.2168" width="44.2744" height="37.7129" filterUnits="userSpaceOnUse" color-interpolation-filters="sRGB">
<feFlood flood-opacity="0" result="BackgroundImageFix"/>
<feGaussianBlur in="BackgroundImage" stdDeviation="5"/>
<feComposite in2="SourceAlpha" operator="in" result="effect1_backgroundBlur_124_1903"/>
<feBlend mode="normal" in="SourceGraphic" in2="effect1_backgroundBlur_124_1903" result="shape"/>
</filter>
<filter id="filter3_b_124_1903" x="5.51953" y="37.834" width="74.2959" height="25.0273" filterUnits="userSpaceOnUse" color-interpolation-filters="sRGB">
<feFlood flood-opacity="0" result="BackgroundImageFix"/>
<feGaussianBlur in="BackgroundImage" stdDeviation="5"/>
<feComposite in2="SourceAlpha" operator="in" result="effect1_backgroundBlur_124_1903"/>
<feBlend mode="normal" in="SourceGraphic" in2="effect1_backgroundBlur_124_1903" result="shape"/>
</filter>
<radialGradient id="paint0_radial_124_1903" cx="0" cy="0" r="1" gradientUnits="userSpaceOnUse" gradientTransform="translate(26.6075 36.582) rotate(56.3291) scale(22.2619 70.9862)">
<stop stop-color="#9BA9DE"/>
<stop offset="1" stop-color="#6F51C5"/>
</radialGradient>
<linearGradient id="paint1_linear_124_1903" x1="14.265" y1="40.4727" x2="20.0062" y2="69.3433" gradientUnits="userSpaceOnUse">
<stop stop-color="white" stop-opacity="0.53"/>
<stop offset="1" stop-color="white" stop-opacity="0"/>
</linearGradient>
<radialGradient id="paint2_radial_124_1903" cx="0" cy="0" r="1" gradientUnits="userSpaceOnUse" gradientTransform="translate(41.4259 22.0743) rotate(32.3998) scale(19.3628 31.6566)">
<stop stop-color="white" stop-opacity="0.47"/>
<stop offset="0.963542" stop-color="#BCDFFF"/>
</radialGradient>
<radialGradient id="paint3_radial_124_1903" cx="0" cy="0" r="1" gradientUnits="userSpaceOnUse" gradientTransform="translate(41.4259 8.24092) rotate(59.3493) scale(27.1348 33.4158)">
<stop stop-color="white"/>
<stop offset="1" stop-color="white" stop-opacity="0"/>
</radialGradient>
<radialGradient id="paint4_radial_124_1903" cx="0" cy="0" r="1" gradientUnits="userSpaceOnUse" gradientTransform="translate(42.6675 50.3477) rotate(3.36289) scale(21.4262 4.53418)">
<stop stop-color="white" stop-opacity="0.47"/>
<stop offset="0.963542" stop-color="#BCDFFF"/>
</radialGradient>
<radialGradient id="paint5_radial_124_1903" cx="0" cy="0" r="1" gradientUnits="userSpaceOnUse" gradientTransform="translate(42.6675 48.6719) rotate(8.8807) scale(18.3183 7.84526)">
<stop stop-color="white"/>
<stop offset="1" stop-color="white" stop-opacity="0"/>
</radialGradient>
</defs>
</svg>
