<svg width="170" height="234" viewBox="0 0 170 234" fill="none" xmlns="http://www.w3.org/2000/svg">
<mask id="mask0_124_593" style="mask-type:alpha" maskUnits="userSpaceOnUse" x="0" y="0" width="170" height="234">
<rect width="170" height="234" rx="20" fill="#F7FAFF"/>
</mask>
<g mask="url(#mask0_124_593)">
<g filter="url(#filter0_f_124_593)">
<path d="M174 210.5C174 211.328 142.436 212 103.5 212C64.5639 212 33 211.328 33 210.5C33 209.672 64.5639 209 103.5 209C142.436 209 174 209.672 174 210.5Z" fill="#141414" fill-opacity="0.17"/>
</g>
<path d="M177.97 41.3881C214.795 69.9116 188.812 139.011 160.125 176.048C131.438 213.085 61.0192 207.086 24.1938 178.563C-12.6316 150.039 12.2567 88.2275 40.9437 51.1909C79.839 0.974859 141.144 12.8647 177.97 41.3881Z" fill="#E6EFFD"/>
<rect x="50.8906" y="178.688" width="11.156" height="22.3119" rx="5.57798" fill="#B1B3E7"/>
<path d="M220.576 137.988C220.628 145.232 220.611 152.439 220.594 159.661C220.585 163.277 220.576 166.897 220.576 170.527C220.576 176.124 218.814 180.64 215.685 183.774C212.556 186.908 208.012 188.71 202.354 188.786C174.746 188.786 152.067 188.7 128.287 188.609L124.641 188.595C99.525 188.499 72.8561 188.403 37.6455 188.403C29.0873 186.824 23.6333 180.297 23.558 171.748C23.4807 160.418 23.4807 149.012 23.558 137.682C23.6333 128.234 30.8341 121.025 40.4643 120.95C94.841 120.873 149.218 120.873 203.672 120.95H203.673C213.52 120.95 220.501 128.145 220.576 137.988ZM220.576 137.988L221.076 137.984M220.576 137.988C220.576 137.988 220.577 137.988 220.577 137.988L221.076 137.984M221.076 137.984C220.999 127.877 213.805 120.45 203.673 120.45L37.6 188.903C74.5399 188.903 102.079 189.009 128.283 189.109C152.064 189.2 174.746 189.286 202.358 189.286C213.883 189.133 221.076 181.935 221.076 170.527C221.076 166.899 221.085 163.281 221.094 159.665C221.111 152.442 221.128 145.23 221.076 137.984Z" fill="url(#paint0_radial_124_593)" stroke="url(#paint1_linear_124_593)"/>
<path d="M62.3546 108.963C58.8738 108.963 55.393 109.116 51.9895 108.886C51.1387 108.809 49.9011 107.891 49.5917 107.048C41.0831 87.5997 32.5744 68.0744 24.2205 48.4726C22.7509 44.9504 24.0658 41.5813 27.0825 40.3562C30.0992 39.1311 33.2706 40.3562 34.7403 43.6487C44.0224 64.8585 53.2272 86.1449 62.3546 107.431C62.4319 107.814 62.3546 108.197 62.3546 108.963Z" fill="#4E5E7F"/>
<g filter="url(#filter1_b_124_593)">
<circle cx="119.963" cy="76.5563" r="57.5563" fill="url(#paint2_radial_124_593)" fill-opacity="0.8"/>
<circle cx="119.963" cy="76.5563" r="57.0563" stroke="url(#paint3_radial_124_593)" stroke-linecap="round" stroke-linejoin="round"/>
</g>
<g filter="url(#filter2_b_124_593)">
<path fill-rule="evenodd" clip-rule="evenodd" d="M152.004 64.7874C143.068 56.3498 132.362 52.1513 118.526 51.9883C118.046 52.0509 117.422 52.1096 116.7 52.1775C115.072 52.3307 112.95 52.5304 110.867 52.9258C101.891 54.6378 94.1494 58.7547 87.6021 65.1135C85.7491 66.907 85.955 69.4343 88.0551 70.331C89.7434 71.0647 91.0611 70.331 92.2964 69.1489C107.985 54.3932 132.033 54.3932 147.721 69.1489C149.574 70.9017 151.386 71.1055 152.745 69.7196C154.186 68.2522 153.939 66.6217 152.004 64.7874ZM143.356 73.4284C136.768 67.4365 129.026 64.2978 120.05 64.1348C119.309 64.2112 118.567 64.2704 117.826 64.3297C116.591 64.4284 115.355 64.5271 114.12 64.7054C107.243 65.8468 101.273 68.9039 96.3314 73.7545C95.549 74.529 95.1784 76.0779 95.3432 77.1785C95.4667 77.953 96.7844 79.0535 97.6079 79.0943C98.6785 79.1758 99.9962 78.5236 100.82 77.7899C108.479 71.0642 117.25 68.9039 127.173 71.2681C131.868 72.4094 135.821 74.8551 139.362 78.116C141.421 79.991 144.139 79.3796 144.715 77.0154C145.086 75.5073 144.427 74.4067 143.356 73.4284ZM135.918 85.9552L135.918 85.9553C135.387 86.6903 134.903 87.3591 134.299 87.53C133.228 87.8153 131.622 87.5708 130.799 86.8778C128.287 84.8397 125.61 83.4131 122.398 82.9239C117.828 82.231 113.71 83.3315 110.086 86.1441C109.901 86.2868 109.726 86.4498 109.551 86.6129C109.376 86.7759 109.201 86.9389 109.016 87.0816C107.451 88.3045 105.845 88.2229 104.61 86.9186C103.457 85.6957 103.539 83.9022 104.898 82.5571C107.739 79.7445 111.157 77.9918 115.069 77.2173C122.357 75.7091 128.904 77.2581 134.546 82.1902C135.062 82.6207 135.435 83.1932 135.877 83.8727C136.105 84.2226 136.352 84.6009 136.646 85.0028C136.385 85.3096 136.147 85.6385 135.918 85.9552ZM120.229 101.122C123.583 101.122 126.302 98.4032 126.302 95.0493C126.302 91.6954 123.583 88.9766 120.229 88.9766C116.875 88.9766 114.156 91.6954 114.156 95.0493C114.156 98.4032 116.875 101.122 120.229 101.122Z" fill="#4E5E7F"/>
</g>
<g filter="url(#filter3_b_124_593)">
<mask id="path-10-inside-1_124_593" fill="white">
<path fill-rule="evenodd" clip-rule="evenodd" d="M53.1016 148.008C50.3401 148.008 48.1016 150.246 48.1016 153.008V156.953C48.1016 159.714 50.3401 161.953 53.1016 161.953H118.404C121.166 161.953 123.404 159.714 123.404 156.953V153.008C123.404 150.246 121.166 148.008 118.404 148.008H53.1016ZM148.506 154.98C148.506 158.831 145.384 161.953 141.533 161.953C137.682 161.953 134.561 158.831 134.561 154.98C134.561 151.129 137.682 148.008 141.533 148.008C145.384 148.008 148.506 151.129 148.506 154.98ZM166.635 161.953C170.485 161.953 173.607 158.831 173.607 154.98C173.607 151.129 170.485 148.008 166.635 148.008C162.784 148.008 159.662 151.129 159.662 154.98C159.662 158.831 162.784 161.953 166.635 161.953ZM191.734 161.953C195.585 161.953 198.707 158.831 198.707 154.98C198.707 151.129 195.585 148.008 191.734 148.008C187.883 148.008 184.762 151.129 184.762 154.98C184.762 158.831 187.883 161.953 191.734 161.953Z"/>
</mask>
<path fill-rule="evenodd" clip-rule="evenodd" d="M53.1016 148.008C50.3401 148.008 48.1016 150.246 48.1016 153.008V156.953C48.1016 159.714 50.3401 161.953 53.1016 161.953H118.404C121.166 161.953 123.404 159.714 123.404 156.953V153.008C123.404 150.246 121.166 148.008 118.404 148.008H53.1016ZM148.506 154.98C148.506 158.831 145.384 161.953 141.533 161.953C137.682 161.953 134.561 158.831 134.561 154.98C134.561 151.129 137.682 148.008 141.533 148.008C145.384 148.008 148.506 151.129 148.506 154.98ZM166.635 161.953C170.485 161.953 173.607 158.831 173.607 154.98C173.607 151.129 170.485 148.008 166.635 148.008C162.784 148.008 159.662 151.129 159.662 154.98C159.662 158.831 162.784 161.953 166.635 161.953ZM191.734 161.953C195.585 161.953 198.707 158.831 198.707 154.98C198.707 151.129 195.585 148.008 191.734 148.008C187.883 148.008 184.762 151.129 184.762 154.98C184.762 158.831 187.883 161.953 191.734 161.953Z" fill="url(#paint4_radial_124_593)"/>
<path d="M49.1016 153.008C49.1016 150.799 50.8924 149.008 53.1016 149.008V147.008C49.7879 147.008 47.1016 149.694 47.1016 153.008H49.1016ZM49.1016 156.953V153.008H47.1016V156.953H49.1016ZM53.1016 160.953C50.8924 160.953 49.1016 159.162 49.1016 156.953H47.1016C47.1016 160.266 49.7879 162.953 53.1016 162.953V160.953ZM118.404 160.953H53.1016V162.953H118.404V160.953ZM122.404 156.953C122.404 159.162 120.613 160.953 118.404 160.953V162.953C121.718 162.953 124.404 160.266 124.404 156.953H122.404ZM122.404 153.008V156.953H124.404V153.008H122.404ZM118.404 149.008C120.613 149.008 122.404 150.799 122.404 153.008H124.404C124.404 149.694 121.718 147.008 118.404 147.008V149.008ZM53.1016 149.008H118.404V147.008H53.1016V149.008ZM141.533 162.953C145.936 162.953 149.506 159.383 149.506 154.98H147.506C147.506 158.279 144.832 160.953 141.533 160.953V162.953ZM133.561 154.98C133.561 159.383 137.13 162.953 141.533 162.953V160.953C138.235 160.953 135.561 158.279 135.561 154.98H133.561ZM141.533 147.008C137.13 147.008 133.561 150.577 133.561 154.98H135.561C135.561 151.682 138.235 149.008 141.533 149.008V147.008ZM149.506 154.98C149.506 150.577 145.936 147.008 141.533 147.008V149.008C144.832 149.008 147.506 151.682 147.506 154.98H149.506ZM172.607 154.98C172.607 158.279 169.933 160.953 166.635 160.953V162.953C171.038 162.953 174.607 159.383 174.607 154.98H172.607ZM166.635 149.008C169.933 149.008 172.607 151.682 172.607 154.98H174.607C174.607 150.577 171.038 147.008 166.635 147.008V149.008ZM160.662 154.98C160.662 151.682 163.336 149.008 166.635 149.008V147.008C162.232 147.008 158.662 150.577 158.662 154.98H160.662ZM166.635 160.953C163.336 160.953 160.662 158.279 160.662 154.98H158.662C158.662 159.383 162.232 162.953 166.635 162.953V160.953ZM197.707 154.98C197.707 158.279 195.033 160.953 191.734 160.953V162.953C196.137 162.953 199.707 159.383 199.707 154.98H197.707ZM191.734 149.008C195.033 149.008 197.707 151.682 197.707 154.98H199.707C199.707 150.577 196.137 147.008 191.734 147.008V149.008ZM185.762 154.98C185.762 151.682 188.436 149.008 191.734 149.008V147.008C187.331 147.008 183.762 150.577 183.762 154.98H185.762ZM191.734 160.953C188.436 160.953 185.762 158.279 185.762 154.98H183.762C183.762 159.383 187.331 162.953 191.734 162.953V160.953Z" fill="url(#paint5_radial_124_593)" mask="url(#path-10-inside-1_124_593)"/>
</g>
</g>
<defs>
<filter id="filter0_f_124_593" x="26" y="202" width="155" height="17" filterUnits="userSpaceOnUse" color-interpolation-filters="sRGB">
<feFlood flood-opacity="0" result="BackgroundImageFix"/>
<feBlend mode="normal" in="SourceGraphic" in2="BackgroundImageFix" result="shape"/>
<feGaussianBlur stdDeviation="3.5" result="effect1_foregroundBlur_124_593"/>
</filter>
<filter id="filter1_b_124_593" x="52.4062" y="9" width="135.113" height="135.112" filterUnits="userSpaceOnUse" color-interpolation-filters="sRGB">
<feFlood flood-opacity="0" result="BackgroundImageFix"/>
<feGaussianBlur in="BackgroundImage" stdDeviation="5"/>
<feComposite in2="SourceAlpha" operator="in" result="effect1_backgroundBlur_124_593"/>
<feBlend mode="normal" in="SourceGraphic" in2="effect1_backgroundBlur_124_593" result="shape"/>
</filter>
<filter id="filter2_b_124_593" x="76.3359" y="41.9883" width="87.3318" height="69.1338" filterUnits="userSpaceOnUse" color-interpolation-filters="sRGB">
<feFlood flood-opacity="0" result="BackgroundImageFix"/>
<feGaussianBlur in="BackgroundImage" stdDeviation="5"/>
<feComposite in2="SourceAlpha" operator="in" result="effect1_backgroundBlur_124_593"/>
<feBlend mode="normal" in="SourceGraphic" in2="effect1_backgroundBlur_124_593" result="shape"/>
</filter>
<filter id="filter3_b_124_593" x="38.1016" y="138.008" width="170.605" height="33.9453" filterUnits="userSpaceOnUse" color-interpolation-filters="sRGB">
<feFlood flood-opacity="0" result="BackgroundImageFix"/>
<feGaussianBlur in="BackgroundImage" stdDeviation="5"/>
<feComposite in2="SourceAlpha" operator="in" result="effect1_backgroundBlur_124_593"/>
<feBlend mode="normal" in="SourceGraphic" in2="effect1_backgroundBlur_124_593" result="shape"/>
</filter>
<radialGradient id="paint0_radial_124_593" cx="0" cy="0" r="1" gradientUnits="userSpaceOnUse" gradientTransform="translate(78.8577 116.795) rotate(56.3291) scale(61.7498 196.9)">
<stop stop-color="#9BA9DE"/>
<stop offset="1" stop-color="#6F51C5"/>
</radialGradient>
<linearGradient id="paint1_linear_124_593" x1="44.6223" y1="127.587" x2="60.5472" y2="207.668" gradientUnits="userSpaceOnUse">
<stop stop-color="white" stop-opacity="0.53"/>
<stop offset="1" stop-color="white" stop-opacity="0"/>
</linearGradient>
<radialGradient id="paint2_radial_124_593" cx="0" cy="0" r="1" gradientUnits="userSpaceOnUse" gradientTransform="translate(119.963 76.5563) rotate(32.3998) scale(53.7081 87.8085)">
<stop stop-color="white" stop-opacity="0.47"/>
<stop offset="0.963542" stop-color="#BCDFFF"/>
</radialGradient>
<radialGradient id="paint3_radial_124_593" cx="0" cy="0" r="1" gradientUnits="userSpaceOnUse" gradientTransform="translate(119.963 38.1854) rotate(59.3493) scale(75.2661 92.6881)">
<stop stop-color="white"/>
<stop offset="1" stop-color="white" stop-opacity="0"/>
</radialGradient>
<radialGradient id="paint4_radial_124_593" cx="0" cy="0" r="1" gradientUnits="userSpaceOnUse" gradientTransform="translate(123.404 154.98) rotate(3.36288) scale(59.4316 12.5768)">
<stop stop-color="white" stop-opacity="0.47"/>
<stop offset="0.963542" stop-color="#BCDFFF"/>
</radialGradient>
<radialGradient id="paint5_radial_124_593" cx="0" cy="0" r="1" gradientUnits="userSpaceOnUse" gradientTransform="translate(123.404 150.332) rotate(8.88068) scale(50.8108 21.761)">
<stop stop-color="white"/>
<stop offset="1" stop-color="white" stop-opacity="0"/>
</radialGradient>
</defs>
</svg>
