<svg width="101" height="102" viewBox="0 0 101 102" fill="none" xmlns="http://www.w3.org/2000/svg">
<g filter="url(#filter0_f_144_771)">
<path d="M78.5295 94.9796C78.5295 95.2957 66.3415 95.552 51.3068 95.552C36.272 95.552 24.084 95.2957 24.084 94.9796C24.084 94.6635 36.272 94.4072 51.3068 94.4072C66.3415 94.4072 78.5295 94.6635 78.5295 94.9796Z" fill="#141414" fill-opacity="0.13"/>
</g>
<path d="M80.0628 24.7906C94.2825 35.6745 84.2495 62.0416 73.1723 76.174C62.0952 90.3063 34.9036 88.0175 20.6839 77.1335C6.4642 66.2496 16.0745 42.6635 27.1517 28.5311C42.1707 9.36971 65.8431 13.9066 80.0628 24.7906Z" fill="#E6EFFD"/>
<mask id="path-3-inside-1_144_771" fill="white">
<path fill-rule="evenodd" clip-rule="evenodd" d="M66.7788 28.4908C56.3887 40.8464 46.028 53.1731 35.5499 65.6738C36.0688 65.8505 36.5831 66.0258 37.094 66.2001C40.0219 67.1984 42.8357 68.1578 45.7345 69.0962C53.1015 71.5906 60.4978 74.0849 67.8648 76.5503C69.9193 77.2464 71.2694 76.5793 71.5629 74.636C72.9718 65.3837 74.3512 56.1315 75.7307 46.8792C76.2004 43.7465 76.6668 40.6138 77.1331 37.4811C78.0658 31.2166 78.9985 24.952 79.9572 18.6874L79.9626 18.6501C80.1368 17.4462 80.2983 16.3295 79.2234 15.497C78.0494 14.5689 76.9341 15.1199 75.8188 15.7C67.2779 20.1376 58.7076 24.5461 50.1374 28.9547L50.1371 28.9548C35.726 36.4088 21.3442 43.8338 6.93314 51.2588C5.84717 51.8389 4.8786 52.477 4.99601 53.8692C5.11341 55.2614 6.14068 55.7835 7.3147 56.1605C9.1753 56.7825 11.0359 57.4103 12.8974 58.0384C16.9383 59.4019 20.9835 60.7668 25.0424 62.0773C25.6001 62.2513 26.5393 62.1353 26.9795 61.7583C34.9068 55.1074 42.8167 48.4223 50.736 41.7292C53.1084 39.7242 55.4815 37.7185 57.8563 35.7127C59.3092 34.48 60.7695 33.2472 62.2298 32.0145C63.6899 30.7819 65.15 29.5493 66.6027 28.3167L66.7788 28.4908ZM39.8356 72.0524C37.361 71.2189 34.8732 70.3809 32.292 69.502C32.292 74.1426 32.292 78.5802 32.2627 83.0468C32.2627 84.323 32.4681 85.5121 33.8476 86.0052C35.2858 86.4983 36.225 85.7152 37.0468 84.613C38.7368 82.3116 40.4413 80.0246 42.15 77.7317C42.8747 76.7592 43.6002 75.7857 44.3257 74.8097C44.4503 74.6338 44.5533 74.4366 44.6675 74.218C44.7416 74.0762 44.8203 73.9253 44.9128 73.7655C43.2095 73.1888 41.5257 72.6216 39.8356 72.0524Z"/>
</mask>
<path fill-rule="evenodd" clip-rule="evenodd" d="M66.7788 28.4908C56.3887 40.8464 46.028 53.1731 35.5499 65.6738C36.0688 65.8505 36.5831 66.0258 37.094 66.2001C40.0219 67.1984 42.8357 68.1578 45.7345 69.0962C53.1015 71.5906 60.4978 74.0849 67.8648 76.5503C69.9193 77.2464 71.2694 76.5793 71.5629 74.636C72.9718 65.3837 74.3512 56.1315 75.7307 46.8792C76.2004 43.7465 76.6668 40.6138 77.1331 37.4811C78.0658 31.2166 78.9985 24.952 79.9572 18.6874L79.9626 18.6501C80.1368 17.4462 80.2983 16.3295 79.2234 15.497C78.0494 14.5689 76.9341 15.1199 75.8188 15.7C67.2779 20.1376 58.7076 24.5461 50.1374 28.9547L50.1371 28.9548C35.726 36.4088 21.3442 43.8338 6.93314 51.2588C5.84717 51.8389 4.8786 52.477 4.99601 53.8692C5.11341 55.2614 6.14068 55.7835 7.3147 56.1605C9.1753 56.7825 11.0359 57.4103 12.8974 58.0384C16.9383 59.4019 20.9835 60.7668 25.0424 62.0773C25.6001 62.2513 26.5393 62.1353 26.9795 61.7583C34.9068 55.1074 42.8167 48.4223 50.736 41.7292C53.1084 39.7242 55.4815 37.7185 57.8563 35.7127C59.3092 34.48 60.7695 33.2472 62.2298 32.0145C63.6899 30.7819 65.15 29.5493 66.6027 28.3167L66.7788 28.4908ZM39.8356 72.0524C37.361 71.2189 34.8732 70.3809 32.292 69.502C32.292 74.1426 32.292 78.5802 32.2627 83.0468C32.2627 84.323 32.4681 85.5121 33.8476 86.0052C35.2858 86.4983 36.225 85.7152 37.0468 84.613C38.7368 82.3116 40.4413 80.0246 42.15 77.7317C42.8747 76.7592 43.6002 75.7857 44.3257 74.8097C44.4503 74.6338 44.5533 74.4366 44.6675 74.218C44.7416 74.0762 44.8203 73.9253 44.9128 73.7655C43.2095 73.1888 41.5257 72.6216 39.8356 72.0524Z" fill="url(#paint0_radial_144_771)"/>
<path d="M35.5499 65.6738L34.7835 65.0314L33.8459 66.15L35.2276 66.6204L35.5499 65.6738ZM66.7788 28.4908L67.5442 29.1344L68.1381 28.4281L67.4817 27.7795L66.7788 28.4908ZM37.094 66.2001L37.4168 65.2536L37.094 66.2001ZM45.7345 69.0962L46.0552 68.149L46.0425 68.1449L45.7345 69.0962ZM67.8648 76.5503L68.1857 75.6031L68.1821 75.602L67.8648 76.5503ZM71.5629 74.636L70.5743 74.4855L70.5742 74.4867L71.5629 74.636ZM75.7307 46.8792L74.7418 46.731L74.7416 46.7318L75.7307 46.8792ZM77.1331 37.4811L78.1222 37.6284V37.6284L77.1331 37.4811ZM79.9572 18.6874L80.9457 18.8387L80.9469 18.8308L79.9572 18.6874ZM79.9626 18.6501L80.9523 18.7935L80.9523 18.7933L79.9626 18.6501ZM79.2234 15.497L78.6032 16.2815L78.6111 16.2876L79.2234 15.497ZM75.8188 15.7L76.2798 16.5874L76.2802 16.5872L75.8188 15.7ZM50.1374 28.9547L49.6799 28.0654L49.6754 28.0678L50.1374 28.9547ZM50.1371 28.9548L50.5965 29.843L50.599 29.8417L50.1371 28.9548ZM6.93314 51.2588L6.47513 50.3699L6.46853 50.3733L6.46198 50.3768L6.93314 51.2588ZM4.99601 53.8692L5.99247 53.7852H5.99247L4.99601 53.8692ZM7.3147 56.1605L7.63178 55.212L7.62047 55.2084L7.3147 56.1605ZM12.8974 58.0384L13.2171 57.0909L12.8974 58.0384ZM25.0424 62.0773L24.7351 63.029L24.7445 63.0319L25.0424 62.0773ZM26.9795 61.7583L26.3368 60.9921L26.329 60.9987L26.9795 61.7583ZM50.736 41.7292L50.0905 40.9654L50.736 41.7292ZM57.8563 35.7127L58.5015 36.4767L58.5032 36.4753L57.8563 35.7127ZM62.2298 32.0145L61.5847 31.2504L62.2298 32.0145ZM66.6027 28.3167L67.3056 27.6054L66.6541 26.9617L65.9557 27.5542L66.6027 28.3167ZM32.292 69.502L32.6144 68.5553L31.292 68.105V69.502H32.292ZM39.8356 72.0524L39.5164 73.0001L39.8356 72.0524ZM32.2627 83.0468L31.2627 83.0402V83.0468H32.2627ZM33.8476 86.0052L33.511 86.9469L33.5233 86.9511L33.8476 86.0052ZM37.0468 84.613L37.8485 85.2108L37.8528 85.2049L37.0468 84.613ZM42.15 77.7317L42.9518 78.3293L42.15 77.7317ZM44.3257 74.8097L45.1283 75.4062L45.1351 75.397L45.1418 75.3877L44.3257 74.8097ZM44.6675 74.218L45.5539 74.6809V74.6809L44.6675 74.218ZM44.9128 73.7655L45.7784 74.2661L46.3893 73.2097L45.2335 72.8184L44.9128 73.7655ZM36.3163 66.3162C46.7939 53.8161 57.1542 41.49 67.5442 29.1344L66.0135 27.8471C55.6233 40.2029 45.2622 52.5301 34.7835 65.0314L36.3163 66.3162ZM37.4168 65.2536C36.9059 65.0794 36.3913 64.9039 35.8722 64.7272L35.2276 66.6204C35.7462 66.797 36.2604 66.9723 36.7713 67.1465L37.4168 65.2536ZM46.0425 68.1449C43.1523 67.2092 40.3458 66.2523 37.4168 65.2536L36.7713 67.1465C39.698 68.1445 42.5191 69.1064 45.4265 70.0476L46.0425 68.1449ZM68.1821 75.602C60.8166 73.1371 53.4214 70.6432 46.0552 68.1491L45.4138 70.0434C52.7815 72.538 60.179 75.0328 67.5474 77.4986L68.1821 75.602ZM70.5742 74.4867C70.4582 75.2545 70.1735 75.5624 69.919 75.6925C69.6266 75.842 69.085 75.9079 68.1857 75.6031L67.5439 77.4974C68.699 77.8888 69.8598 77.9691 70.8295 77.4732C71.837 76.9581 72.3742 75.9608 72.5517 74.7853L70.5742 74.4867ZM74.7416 46.7318C73.3621 55.9843 71.9829 65.235 70.5743 74.4855L72.5515 74.7865C73.9606 65.5325 75.3403 56.2787 76.7198 47.0267L74.7416 46.7318ZM76.1441 37.3339C75.6776 40.4667 75.2113 43.5989 74.7418 46.731L76.7197 47.0275C77.1894 43.8942 77.6559 40.761 78.1222 37.6284L76.1441 37.3339ZM78.9687 18.5361C78.0096 24.8031 77.0766 31.0696 76.1441 37.3339L78.1222 37.6284C79.0549 31.3635 79.9873 25.1009 80.9457 18.8387L78.9687 18.5361ZM78.9729 18.5068L78.9675 18.5441L80.9469 18.8308L80.9523 18.7935L78.9729 18.5068ZM78.6111 16.2876C78.9219 16.5283 79.03 16.7696 79.0704 17.0683C79.1203 17.437 79.0649 17.8707 78.9729 18.507L80.9523 18.7933C81.0344 18.2257 81.1469 17.499 81.0524 16.8002C80.9484 16.0315 80.5998 15.2982 79.8358 14.7064L78.6111 16.2876ZM76.2802 16.5872C76.8627 16.2842 77.281 16.0831 77.6636 16.0193C77.9698 15.9682 78.2527 16.0043 78.6033 16.2815L79.8436 14.7125C79.0202 14.0616 78.1584 13.9091 77.3345 14.0466C76.5871 14.1713 75.8902 14.5357 75.3573 14.8128L76.2802 16.5872ZM50.5948 29.8439C59.1647 25.4355 67.7368 21.026 76.2798 16.5874L75.3577 14.8126C66.8189 19.2491 58.2505 23.6567 49.6799 28.0654L50.5948 29.8439ZM50.599 29.8417L50.5993 29.8416L49.6754 28.0678L49.6751 28.0679L50.599 29.8417ZM7.39115 52.1478C21.8027 44.7225 36.185 37.2973 50.5965 29.843L49.6777 28.0666C35.267 35.5204 20.8857 42.9451 6.47513 50.3699L7.39115 52.1478ZM5.99247 53.7852C5.958 53.3764 6.0698 53.1373 6.25864 52.9262C6.49203 52.6652 6.86115 52.431 7.4043 52.1409L6.46198 50.3768C5.91916 50.6667 5.26101 51.0416 4.76798 51.5928C4.23039 52.1938 3.91661 52.9698 3.99954 53.9532L5.99247 53.7852ZM7.62047 55.2084C7.05816 55.0278 6.66472 54.8505 6.40268 54.6301C6.18325 54.4456 6.02831 54.2101 5.99247 53.7852L3.99954 53.9532C4.08111 54.9204 4.49849 55.6421 5.11555 56.1609C5.69 56.6439 6.39721 56.9161 7.00892 57.1126L7.62047 55.2084ZM13.2171 57.0909C11.3558 56.4629 9.49391 55.8346 7.63176 55.2121L6.99763 57.1089C8.8567 57.7304 10.716 58.3578 12.5777 58.9859L13.2171 57.0909ZM25.3497 61.1257C21.298 59.8175 17.259 58.4547 13.2171 57.0909L12.5777 58.9859C16.6175 60.349 20.6689 61.716 24.7351 63.0289L25.3497 61.1257ZM26.329 60.9987C26.3304 60.9976 26.3224 61.0045 26.301 61.0166C26.2798 61.0286 26.2497 61.0432 26.2098 61.0586C26.1285 61.0899 26.0242 61.1177 25.9054 61.1357C25.6498 61.1744 25.4359 61.1525 25.3403 61.1227L24.7445 63.0319C25.2066 63.1761 25.7411 63.1833 26.2045 63.1132C26.6565 63.0448 27.2101 62.8774 27.63 62.5178L26.329 60.9987ZM50.0905 40.9654C42.171 47.6587 34.2625 54.3427 26.3368 60.9922L27.6223 62.5243C35.5512 55.8722 43.4625 49.1858 51.3815 42.4929L50.0905 40.9654ZM57.211 34.9488C54.8361 36.9546 52.4628 38.9604 50.0905 40.9654L51.3815 42.4929C53.7539 40.4879 56.1269 38.4823 58.5015 36.4767L57.211 34.9488ZM61.5847 31.2504C60.1246 32.483 58.6633 33.7165 57.2093 34.9502L58.5032 36.4753C59.9551 35.2434 61.4144 34.0115 62.8748 32.7786L61.5847 31.2504ZM65.9557 27.5542C64.5041 28.7859 63.045 30.0176 61.5847 31.2504L62.8748 32.7786C64.3348 31.5462 65.7958 30.3128 67.2497 29.0793L65.9557 27.5542ZM67.4817 27.7795L67.3056 27.6054L65.8998 29.028L66.0759 29.202L67.4817 27.7795ZM31.9697 70.4486C34.5526 71.3281 37.042 72.1666 39.5164 73.0001L40.1548 71.1047C37.68 70.2711 35.1937 69.4337 32.6144 68.5553L31.9697 70.4486ZM33.2627 83.0534C33.292 78.5829 33.292 74.142 33.292 69.502H31.292C31.292 74.1432 31.292 78.5775 31.2627 83.0402L33.2627 83.0534ZM34.1842 85.0635C33.7582 84.9113 33.571 84.6899 33.456 84.4233C33.3168 84.1009 33.2627 83.6562 33.2627 83.0468H31.2627C31.2627 83.7136 31.3113 84.5015 31.6197 85.216C31.9523 85.9863 32.5576 86.6061 33.511 86.9469L34.1842 85.0635ZM36.2452 84.0152C35.8614 84.5299 35.5297 84.8557 35.2131 85.0221C34.9479 85.1615 34.6399 85.2197 34.1719 85.0592L33.5233 86.9511C34.4935 87.2838 35.3742 87.1969 36.1436 86.7925C36.8616 86.4151 37.4104 85.7983 37.8485 85.2108L36.2452 84.0152ZM41.3482 77.1341C39.6398 79.4265 37.9332 81.7164 36.2408 84.0211L37.8528 85.2049C39.5404 82.9068 41.2427 80.6226 42.9518 78.3293L41.3482 77.1341ZM43.5232 74.2131C42.7981 75.1886 42.073 76.1616 41.3482 77.1341L42.9518 78.3293C43.6765 77.3569 44.4024 76.3829 45.1283 75.4062L43.5232 74.2131ZM43.7811 73.755C43.6601 73.9867 43.5881 74.121 43.5097 74.2317L45.1418 75.3877C45.3126 75.1466 45.4466 74.8864 45.5539 74.6809L43.7811 73.755ZM44.0471 73.2649C43.9424 73.446 43.8543 73.6149 43.7811 73.7551L45.5539 74.6809C45.6289 74.5374 45.6983 74.4047 45.7784 74.2661L44.0471 73.2649ZM39.5164 73.0001C41.2066 73.5694 42.8897 74.1363 44.592 74.7127L45.2335 72.8184C43.5294 72.2413 41.8448 71.6739 40.1548 71.1047L39.5164 73.0001Z" fill="url(#paint1_linear_144_771)" mask="url(#path-3-inside-1_144_771)"/>
<g filter="url(#filter1_b_144_771)">
<ellipse cx="72.772" cy="66.7032" rx="15.2525" ry="15.0724" fill="url(#paint2_radial_144_771)" fill-opacity="0.8"/>
<path d="M87.5245 66.7032C87.5245 74.7457 80.9252 81.2756 72.772 81.2756C64.6188 81.2756 58.0195 74.7457 58.0195 66.7032C58.0195 58.6607 64.6188 52.1309 72.772 52.1309C80.9252 52.1309 87.5245 58.6607 87.5245 66.7032Z" stroke="url(#paint3_radial_144_771)" stroke-linecap="round" stroke-linejoin="round"/>
</g>
<path d="M71.0294 61.8119C72.8308 61.2361 74.6323 60.6602 76.4337 60.0844C77.1596 59.8524 77.8056 60.0702 78.12 60.6498C78.3226 61.0326 78.3804 61.4559 78.2549 61.8564C78.1044 62.323 77.945 62.8157 77.6574 63.2041C76.5015 64.7768 75.2912 66.3088 74.116 67.8585C73.603 68.5399 72.9531 68.736 72.138 68.485C70.2472 67.9036 68.3528 67.3466 66.4603 66.76C65.9092 66.599 65.4259 66.2885 65.0313 65.874C64.6367 65.4596 64.5369 64.9625 64.6544 64.4135C64.7646 63.8958 65.1694 63.685 65.6251 63.5394C67.4265 62.9635 69.2279 62.3877 71.0294 61.8119Z" fill="#4E5E7F"/>
<path d="M70.6704 69.0855C70.9892 69.1813 71.3254 69.3298 71.6796 69.3911C72.1784 69.4818 72.6912 69.5796 73.1906 69.5479C74.0181 69.4985 74.5327 68.9092 75.019 68.323C75.2444 68.0473 75.4523 67.7539 75.6459 67.4883C77.3491 68.3517 79.0311 69.2043 80.7641 70.0872C80.6188 70.2151 80.4752 70.3658 80.3035 70.4847C80.1743 70.5726 80.0188 70.6165 79.8704 70.664C76.2925 71.8083 72.7199 72.9509 69.142 74.0953C68.7869 74.2089 68.4266 74.2892 68.0905 74.1232C68.9529 72.4393 69.8098 70.7746 70.6704 69.0855Z" fill="#4E5E7F"/>
<path d="M67.2457 73.0526C66.6444 71.2323 66.024 69.3543 65.4141 67.5078C66.7668 67.9222 68.1319 68.3385 69.4583 68.7439C68.7172 70.1813 67.9726 71.6255 67.2457 73.0526Z" fill="#4E5E7F"/>
<path d="M76.4278 66.4954C77.2515 65.4144 78.1054 64.2832 78.9592 63.1694C79.5657 65.0054 80.1861 66.8834 80.7874 68.7037C79.364 67.9871 77.9021 67.2422 76.4278 66.4954Z" fill="#4E5E7F"/>
<defs>
<filter id="filter0_f_144_771" x="20.084" y="90.4072" width="62.4453" height="9.14453" filterUnits="userSpaceOnUse" color-interpolation-filters="sRGB">
<feFlood flood-opacity="0" result="BackgroundImageFix"/>
<feBlend mode="normal" in="SourceGraphic" in2="BackgroundImageFix" result="shape"/>
<feGaussianBlur stdDeviation="2" result="effect1_foregroundBlur_144_771"/>
</filter>
<filter id="filter1_b_144_771" x="47.5195" y="41.6309" width="50.5049" height="50.1445" filterUnits="userSpaceOnUse" color-interpolation-filters="sRGB">
<feFlood flood-opacity="0" result="BackgroundImageFix"/>
<feGaussianBlur in="BackgroundImage" stdDeviation="5"/>
<feComposite in2="SourceAlpha" operator="in" result="effect1_backgroundBlur_144_771"/>
<feBlend mode="normal" in="SourceGraphic" in2="effect1_backgroundBlur_144_771" result="shape"/>
</filter>
<radialGradient id="paint0_radial_144_771" cx="0" cy="0" r="1" gradientUnits="userSpaceOnUse" gradientTransform="translate(26.1616 11.2845) rotate(76.2599) scale(54.6416 87.1237)">
<stop stop-color="#89D3E5"/>
<stop offset="1" stop-color="#2E62FF"/>
</radialGradient>
<linearGradient id="paint1_linear_144_771" x1="13.1832" y1="22.4309" x2="49.1961" y2="88.9007" gradientUnits="userSpaceOnUse">
<stop stop-color="white" stop-opacity="0.53"/>
<stop offset="1" stop-color="white" stop-opacity="0"/>
</linearGradient>
<radialGradient id="paint2_radial_144_771" cx="0" cy="0" r="1" gradientUnits="userSpaceOnUse" gradientTransform="translate(72.772 66.7032) rotate(32.0927) scale(14.1847 23.0725)">
<stop stop-color="white" stop-opacity="0.47"/>
<stop offset="0.963542" stop-color="#BCDFFF"/>
</radialGradient>
<radialGradient id="paint3_radial_144_771" cx="0" cy="0" r="1" gradientUnits="userSpaceOnUse" gradientTransform="translate(72.772 56.655) rotate(59.05) scale(19.7716 24.4861)">
<stop stop-color="white"/>
<stop offset="1" stop-color="white" stop-opacity="0"/>
</radialGradient>
</defs>
</svg>
