<svg width="195" height="49" viewBox="0 0 195 49" fill="none" xmlns="http://www.w3.org/2000/svg">
<path d="M65.04 38.9998V32.7598H65.95V37.4398L69.72 32.7598H70.5V38.9998H69.59V34.3198L65.82 38.9998H65.04Z" fill="#363843"/>
<path d="M72.5811 38.9998V32.7598H73.4911V35.4248H77.0661V32.7598H77.9761V38.9998H77.0661V36.2698H73.4911V38.9998H72.5811Z" fill="#363843"/>
<path d="M81.4886 38.9998V33.6048H79.2786V32.7598H84.6086V33.6048H82.3986V38.9998H81.4886Z" fill="#363843"/>
<path d="M90.4642 37.2448L91.0492 37.8298C90.8845 38.0551 90.6635 38.2718 90.3862 38.4798C89.7795 38.9131 89.1338 39.1298 88.4492 39.1298C87.5912 39.1298 86.8545 38.8134 86.2392 38.1808C85.6325 37.5481 85.3292 36.7811 85.3292 35.8798C85.3292 34.9784 85.6325 34.2114 86.2392 33.5788C86.8458 32.9461 87.5608 32.6298 88.3842 32.6298C89.2422 32.6298 89.9528 32.9244 90.5162 33.5138C91.0882 34.1031 91.3742 34.8484 91.3742 35.7498C91.3742 35.7931 91.3612 35.9058 91.3352 36.0878L91.3092 36.2178L86.2392 36.2048C86.2738 36.7681 86.5035 37.2578 86.9282 37.6738C87.3615 38.0811 87.8685 38.2848 88.4492 38.2848C88.9778 38.2848 89.4762 38.1114 89.9442 37.7648C90.1695 37.5828 90.3428 37.4094 90.4642 37.2448ZM86.2392 35.4248H90.4642C90.3948 34.8614 90.1652 34.3978 89.7752 34.0338C89.3938 33.6611 88.9302 33.4748 88.3842 33.4748C87.8382 33.4748 87.3615 33.6654 86.9542 34.0468C86.5468 34.4281 86.3085 34.8874 86.2392 35.4248Z" fill="#363843"/>
<path d="M92.9951 41.7298V32.7598H93.9051V33.6698C94.0525 33.4704 94.2301 33.2971 94.4381 33.1498C94.9061 32.8031 95.4435 32.6298 96.0501 32.6298C96.9081 32.6298 97.6318 32.9374 98.2211 33.5528C98.8105 34.1681 99.1051 34.9438 99.1051 35.8798C99.1051 36.8158 98.8105 37.5914 98.2211 38.2068C97.6318 38.8221 96.9081 39.1298 96.0501 39.1298C95.4435 39.1298 94.9061 38.9564 94.4381 38.6098C94.2301 38.4624 94.0525 38.2891 93.9051 38.0898V41.7298H92.9951ZM96.0501 38.2848C96.6481 38.2848 97.1551 38.0594 97.5711 37.6088C97.9871 37.1581 98.1951 36.5818 98.1951 35.8798C98.1951 35.1778 97.9871 34.6014 97.5711 34.1508C97.1551 33.7001 96.6481 33.4748 96.0501 33.4748C95.4868 33.4748 94.9884 33.7088 94.5551 34.1768C94.1218 34.6448 93.9051 35.2124 93.9051 35.8798C93.9051 36.5471 94.1218 37.1148 94.5551 37.5828C94.9884 38.0508 95.4868 38.2848 96.0501 38.2848Z" fill="#363843"/>
<path d="M100.727 38.9998V32.7598H101.637V35.4248H105.212V32.7598H106.122V38.9998H105.212V36.2698H101.637V38.9998H100.727Z" fill="#363843"/>
<path d="M112.884 37.2448L113.469 37.8298C113.304 38.0551 113.083 38.2718 112.806 38.4798C112.199 38.9131 111.554 39.1298 110.869 39.1298C110.011 39.1298 109.274 38.8134 108.659 38.1808C108.052 37.5481 107.749 36.7811 107.749 35.8798C107.749 34.9784 108.052 34.2114 108.659 33.5788C109.266 32.9461 109.981 32.6298 110.804 32.6298C111.662 32.6298 112.373 32.9244 112.936 33.5138C113.508 34.1031 113.794 34.8484 113.794 35.7498C113.794 35.7931 113.781 35.9058 113.755 36.0878L113.729 36.2178L108.659 36.2048C108.694 36.7681 108.923 37.2578 109.348 37.6738C109.781 38.0811 110.288 38.2848 110.869 38.2848C111.398 38.2848 111.896 38.1114 112.364 37.7648C112.589 37.5828 112.763 37.4094 112.884 37.2448ZM108.659 35.4248H112.884C112.815 34.8614 112.585 34.3978 112.195 34.0338C111.814 33.6611 111.35 33.4748 110.804 33.4748C110.258 33.4748 109.781 33.6654 109.374 34.0468C108.967 34.4281 108.728 34.8874 108.659 35.4248Z" fill="#363843"/>
<path d="M116.718 38.9998V33.6048H114.508V32.7598H119.838V33.6048H117.628V38.9998H116.718Z" fill="#363843"/>
<path d="M122.576 40.5598V38.1548H123.031C123.239 37.9381 123.421 37.6521 123.577 37.2968C123.95 36.4994 124.136 35.5938 124.136 34.5798V32.7598H128.426V38.1548H129.401V40.5598H128.491V38.9998H123.486V40.5598H122.576ZM124.006 38.1548H127.516V33.6048H125.046V34.5798C125.046 35.5591 124.873 36.4561 124.526 37.2708C124.37 37.6174 124.197 37.9121 124.006 38.1548Z" fill="#363843"/>
<path d="M129.787 38.9998V38.0898C129.839 38.1244 129.891 38.1461 129.943 38.1548C130.056 38.1981 130.177 38.2198 130.307 38.2198C130.576 38.2198 130.784 38.1418 130.931 37.9858C131.087 37.8298 131.217 37.4788 131.321 36.9328C131.425 36.3781 131.477 35.5938 131.477 34.5798V32.7598H136.027V38.9998H135.117V33.6048H132.387V34.5798C132.387 35.4984 132.339 36.2654 132.244 36.8808C132.157 37.4874 132.023 37.9511 131.841 38.2718C131.659 38.5924 131.455 38.8178 131.23 38.9478C131.013 39.0691 130.749 39.1298 130.437 39.1298C130.281 39.1298 130.129 39.1081 129.982 39.0648C129.939 39.0561 129.874 39.0344 129.787 38.9998Z" fill="#363843"/>
<path d="M137.582 38.9998L139.012 36.7248C138.778 36.6554 138.561 36.5384 138.362 36.3738C137.928 36.0098 137.712 35.4984 137.712 34.8398C137.712 34.2418 137.92 33.7478 138.336 33.3578C138.76 32.9591 139.311 32.7598 139.987 32.7598H142.652V38.9998H141.742V36.9198H139.922L138.622 38.9998H137.582ZM139.987 36.0748H141.742V33.6048H139.987C139.571 33.6048 139.237 33.7174 138.986 33.9428C138.743 34.1681 138.622 34.4671 138.622 34.8398C138.622 35.2124 138.743 35.5114 138.986 35.7368C139.237 35.9621 139.571 36.0748 139.987 36.0748Z" fill="#363843"/>
<path d="M152.528 29.5098L152.983 30.2248C152.87 30.3201 152.701 30.4111 152.476 30.4978C151.982 30.7144 151.328 30.9051 150.513 31.0698C149.82 31.2171 149.265 31.5464 148.849 32.0578C148.433 32.5604 148.208 33.2494 148.173 34.1248C148.32 33.8908 148.502 33.6871 148.719 33.5138C149.204 33.0978 149.759 32.8898 150.383 32.8898C151.198 32.8898 151.9 33.1931 152.489 33.7998C153.078 34.4064 153.373 35.1431 153.373 36.0098C153.373 36.8851 153.074 37.6261 152.476 38.2328C151.887 38.8308 151.167 39.1298 150.318 39.1298C149.399 39.1298 148.65 38.7788 148.069 38.0768C147.488 37.3748 147.198 36.3824 147.198 35.0998C147.198 33.5918 147.484 32.4434 148.056 31.6548C148.628 30.8661 149.404 30.3894 150.383 30.2248C151.033 30.1034 151.583 29.9518 152.034 29.7698C152.277 29.6571 152.441 29.5704 152.528 29.5098ZM148.797 37.6348C149.213 38.0681 149.72 38.2848 150.318 38.2848C150.916 38.2848 151.423 38.0681 151.839 37.6348C152.255 37.1928 152.463 36.6511 152.463 36.0098C152.463 35.3684 152.255 34.8311 151.839 34.3978C151.423 33.9558 150.916 33.7348 150.318 33.7348C149.72 33.7348 149.213 33.9558 148.797 34.3978C148.381 34.8311 148.173 35.3684 148.173 36.0098C148.173 36.6511 148.381 37.1928 148.797 37.6348Z" fill="#363843"/>
<path d="M155.062 38.9998V32.7598H155.973V37.4398L159.743 32.7598H160.522V38.9998H159.613V34.3198L155.842 38.9998H155.062Z" fill="#363843"/>
<path d="M161.889 38.0248L162.474 37.4398C162.612 37.6131 162.768 37.7561 162.942 37.8688C163.34 38.1461 163.769 38.2848 164.229 38.2848C164.723 38.2848 165.095 38.1894 165.347 37.9988C165.598 37.8081 165.724 37.5568 165.724 37.2448C165.724 36.9328 165.598 36.6814 165.347 36.4908C165.095 36.3001 164.723 36.2048 164.229 36.2048H163.514V35.3598H164.229C164.601 35.3598 164.9 35.2644 165.126 35.0738C165.351 34.8831 165.464 34.6534 165.464 34.3848C165.464 34.1161 165.36 33.8994 165.152 33.7348C164.944 33.5614 164.636 33.4748 164.229 33.4748C163.804 33.4748 163.423 33.5961 163.085 33.8388C162.92 33.9514 162.781 34.0684 162.669 34.1898L162.019 33.5398C162.149 33.4011 162.339 33.2494 162.591 33.0848C163.111 32.7814 163.657 32.6298 164.229 32.6298C164.853 32.6298 165.364 32.8074 165.763 33.1628C166.17 33.5094 166.374 33.9168 166.374 34.3848C166.374 34.8614 166.209 35.2298 165.88 35.4898C165.732 35.6111 165.572 35.6978 165.399 35.7498C165.615 35.8018 165.819 35.8884 166.01 36.0098C166.426 36.2871 166.634 36.6988 166.634 37.2448C166.634 37.7648 166.421 38.2111 165.997 38.5838C165.581 38.9478 164.991 39.1298 164.229 39.1298C163.596 39.1298 163.011 38.9478 162.474 38.5838C162.248 38.4191 162.053 38.2328 161.889 38.0248Z" fill="#363843"/>
<path d="M168.329 38.9998V32.7598H169.239V35.4248H172.814V32.7598H173.724V38.9998H172.814V36.2698H169.239V38.9998H168.329Z" fill="#363843"/>
<path d="M180.487 37.2448L181.072 37.8298C180.907 38.0551 180.686 38.2718 180.409 38.4798C179.802 38.9131 179.156 39.1298 178.472 39.1298C177.614 39.1298 176.877 38.8134 176.262 38.1808C175.655 37.5481 175.352 36.7811 175.352 35.8798C175.352 34.9784 175.655 34.2114 176.262 33.5788C176.868 32.9461 177.583 32.6298 178.407 32.6298C179.265 32.6298 179.975 32.9244 180.539 33.5138C181.111 34.1031 181.397 34.8484 181.397 35.7498C181.397 35.7931 181.384 35.9058 181.358 36.0878L181.332 36.2178L176.262 36.2048C176.296 36.7681 176.526 37.2578 176.951 37.6738C177.384 38.0811 177.891 38.2848 178.472 38.2848C179 38.2848 179.499 38.1114 179.967 37.7648C180.192 37.5828 180.365 37.4094 180.487 37.2448ZM176.262 35.4248H180.487C180.417 34.8614 180.188 34.3978 179.798 34.0338C179.416 33.6611 178.953 33.4748 178.407 33.4748C177.861 33.4748 177.384 33.6654 176.977 34.0468C176.569 34.4281 176.331 34.8874 176.262 35.4248Z" fill="#363843"/>
<path d="M187.633 37.2448L188.283 37.8298C188.109 38.0464 187.88 38.2631 187.594 38.4798C186.987 38.9131 186.35 39.1298 185.683 39.1298C184.825 39.1298 184.088 38.8134 183.473 38.1808C182.866 37.5481 182.563 36.7811 182.563 35.8798C182.563 34.9784 182.866 34.2114 183.473 33.5788C184.088 32.9461 184.825 32.6298 185.683 32.6298C186.359 32.6298 186.983 32.8378 187.555 33.2538C187.789 33.4271 188.01 33.6308 188.218 33.8648L187.568 34.5148C187.429 34.3241 187.269 34.1508 187.087 33.9948C186.671 33.6481 186.203 33.4748 185.683 33.4748C185.085 33.4748 184.565 33.7088 184.123 34.1768C183.689 34.6361 183.473 35.2038 183.473 35.8798C183.473 36.5558 183.689 37.1278 184.123 37.5958C184.565 38.0551 185.085 38.2848 185.683 38.2848C186.177 38.2848 186.658 38.1114 187.126 37.7648C187.325 37.6001 187.494 37.4268 187.633 37.2448Z" fill="#363843"/>
<path d="M193.478 38.9998V38.1548C193.348 38.3368 193.183 38.5014 192.984 38.6488C192.525 38.9694 192.018 39.1298 191.463 39.1298C190.83 39.1298 190.302 38.9478 189.877 38.5838C189.461 38.2111 189.253 37.7864 189.253 37.3098C189.253 36.2524 189.86 35.6241 191.073 35.4248L193.478 35.0348C193.478 34.5754 193.331 34.2028 193.036 33.9168C192.75 33.6221 192.377 33.4748 191.918 33.4748C191.467 33.4748 191.038 33.6264 190.631 33.9298C190.44 34.0944 190.284 34.2461 190.163 34.3848L189.578 33.7998C189.743 33.5831 189.946 33.3881 190.189 33.2148C190.718 32.8248 191.294 32.6298 191.918 32.6298C192.629 32.6298 193.218 32.8594 193.686 33.3188C194.154 33.7781 194.388 34.3501 194.388 35.0348V38.9998H193.478ZM193.478 36.2048V35.8148L191.333 36.2048C190.553 36.3434 190.163 36.7118 190.163 37.3098C190.163 37.5871 190.276 37.8211 190.501 38.0118C190.735 38.1938 191.056 38.2848 191.463 38.2848C192.061 38.2848 192.546 38.0941 192.919 37.7128C193.292 37.3314 193.478 36.8288 193.478 36.2048Z" fill="#363843"/>
<path d="M65.3545 24.1525V10.0946H75.6971V12.9061H68.3669V16.2198H74.0905V19.0314H68.3669V24.1525H65.3545Z" fill="#363843"/>
<path d="M84.1288 20.8389L85.5346 22.7467C85.2534 23.0279 84.8919 23.2956 84.4501 23.55C83.4861 24.0856 82.4418 24.3533 81.3172 24.3533C79.8712 24.3533 78.6395 23.8513 77.6219 22.8471C76.6044 21.843 76.0957 20.638 76.0957 19.2322C76.0957 17.8264 76.5977 16.6215 77.6019 15.6173C78.606 14.6132 79.811 14.1111 81.2168 14.1111C82.569 14.1111 83.7271 14.5931 84.6911 15.5571C85.6551 16.5211 86.1371 17.6792 86.1371 19.0314C86.1371 19.1653 86.117 19.4531 86.0768 19.895L86.0366 20.2364H78.9072C79.0679 20.7317 79.3625 21.1401 79.7909 21.4614C80.2327 21.7827 80.8084 21.9434 81.518 21.9434C82.2678 21.9434 82.9171 21.7627 83.466 21.4012C83.7338 21.2271 83.9547 21.0397 84.1288 20.8389ZM78.9072 18.2281H83.3255C83.1648 17.7461 82.8903 17.3444 82.5021 17.0231C82.1138 16.6884 81.6519 16.5211 81.1164 16.5211C80.5808 16.5211 80.1189 16.6884 79.7306 17.0231C79.3424 17.3444 79.0679 17.7461 78.9072 18.2281Z" fill="#363843"/>
<path d="M88.1516 24.1525V14.3119H90.8628V15.7177H90.9632C91.1774 15.4232 91.4251 15.1554 91.7063 14.9144C92.3489 14.3789 93.0719 14.1111 93.8752 14.1111C94.9061 14.1111 95.763 14.4927 96.4458 15.2558C97.142 16.0056 97.4901 16.9963 97.4901 18.2281V24.1525H94.7789V18.6297C94.7789 18.0273 94.6183 17.5587 94.2969 17.2239C93.9756 16.8892 93.5338 16.7219 92.9715 16.7219C92.369 16.7219 91.8669 16.9294 91.4653 17.3444C91.0636 17.7595 90.8628 18.2883 90.8628 18.931V24.1525H88.1516Z" fill="#363843"/>
<path d="M100.095 24.1525V14.3119H102.807V24.1525H100.095ZM100.336 12.5647C100.042 12.2568 99.8946 11.902 99.8946 11.5004C99.8946 11.0987 100.049 10.7506 100.356 10.456C100.664 10.1481 101.033 9.99414 101.461 9.99414C101.889 9.99414 102.251 10.1481 102.545 10.456C102.853 10.7506 103.007 11.0987 103.007 11.5004C103.007 11.902 102.853 12.2568 102.545 12.5647C102.238 12.8593 101.869 13.0066 101.441 13.0066C101.012 13.0066 100.644 12.8593 100.336 12.5647Z" fill="#363843"/>
<path d="M104.004 24.1525L107.519 19.1318L104.205 14.3119H107.318L109.186 17.3244H109.266L111.134 14.3119H114.247L110.933 19.1318L114.448 24.1525H111.335L109.266 20.9393H109.186L107.117 24.1525H104.004Z" fill="#363843"/>
<path d="M120.275 20.7384V17.0231H118.568V14.5128H119.472C120.209 14.5128 120.577 14.1111 120.577 13.3078V11.5004H122.987V14.5128H125.196V17.0231H122.987V20.3368C122.987 20.7786 123.1 21.1267 123.328 21.3811C123.569 21.6221 123.89 21.7426 124.292 21.7426C124.573 21.7426 124.834 21.7091 125.075 21.6422C125.156 21.6288 125.263 21.5953 125.397 21.5418V24.0521C125.343 24.0789 125.256 24.1123 125.135 24.1525C125.015 24.1793 124.928 24.1994 124.874 24.2128C124.5 24.3065 124.071 24.3533 123.589 24.3533C122.572 24.3533 121.762 24.0387 121.159 23.4095C120.57 22.7802 120.275 21.8899 120.275 20.7384Z" fill="#363843"/>
<path d="M134.748 20.8389L136.153 22.7467C135.872 23.0279 135.511 23.2956 135.069 23.55C134.105 24.0856 133.061 24.3533 131.936 24.3533C130.49 24.3533 129.258 23.8513 128.241 22.8471C127.223 21.843 126.715 20.638 126.715 19.2322C126.715 17.8264 127.217 16.6215 128.221 15.6173C129.225 14.6132 130.43 14.1111 131.836 14.1111C133.188 14.1111 134.346 14.5931 135.31 15.5571C136.274 16.5211 136.756 17.6792 136.756 19.0314C136.756 19.1653 136.736 19.4531 136.696 19.895L136.655 20.2364H129.526C129.687 20.7317 129.981 21.1401 130.41 21.4614C130.852 21.7827 131.427 21.9434 132.137 21.9434C132.887 21.9434 133.536 21.7627 134.085 21.4012C134.353 21.2271 134.574 21.0397 134.748 20.8389ZM129.526 18.2281H133.944C133.784 17.7461 133.509 17.3444 133.121 17.0231C132.733 16.6884 132.271 16.5211 131.735 16.5211C131.2 16.5211 130.738 16.6884 130.349 17.0231C129.961 17.3444 129.687 17.7461 129.526 18.2281Z" fill="#363843"/>
<path d="M138.871 24.1525V10.0946H141.582V24.1525H138.871Z" fill="#363843"/>
<path d="M151.732 20.8389L153.138 22.7467C152.856 23.0279 152.495 23.2956 152.053 23.55C151.089 24.0856 150.045 24.3533 148.92 24.3533C147.474 24.3533 146.242 23.8513 145.225 22.8471C144.207 21.843 143.699 20.638 143.699 19.2322C143.699 17.8264 144.201 16.6215 145.205 15.6173C146.209 14.6132 147.414 14.1111 148.82 14.1111C150.172 14.1111 151.33 14.5931 152.294 15.5571C153.258 16.5211 153.74 17.6792 153.74 19.0314C153.74 19.1653 153.72 19.4531 153.68 19.895L153.64 20.2364H146.51C146.671 20.7317 146.965 21.1401 147.394 21.4614C147.836 21.7827 148.411 21.9434 149.121 21.9434C149.871 21.9434 150.52 21.7627 151.069 21.4012C151.337 21.2271 151.558 21.0397 151.732 20.8389ZM146.51 18.2281H150.928C150.768 17.7461 150.493 17.3444 150.105 17.0231C149.717 16.6884 149.255 16.5211 148.719 16.5211C148.184 16.5211 147.722 16.6884 147.334 17.0231C146.945 17.3444 146.671 17.7461 146.51 18.2281Z" fill="#363843"/>
<path d="M162.784 20.638L164.491 22.3451C164.25 22.6932 163.915 23.0279 163.486 23.3492C162.549 24.0186 161.512 24.3533 160.374 24.3533C158.928 24.3533 157.696 23.8513 156.678 22.8471C155.661 21.843 155.152 20.638 155.152 19.2322C155.152 17.8264 155.661 16.6215 156.678 15.6173C157.696 14.6132 158.928 14.1111 160.374 14.1111C161.512 14.1111 162.549 14.4458 163.486 15.1153C163.915 15.4366 164.25 15.7713 164.491 16.1194L162.784 17.8264C162.609 17.6122 162.395 17.4114 162.141 17.2239C161.579 16.8223 160.989 16.6215 160.374 16.6215C159.664 16.6215 159.068 16.8692 158.586 17.3645C158.104 17.8599 157.863 18.4825 157.863 19.2322C157.863 19.982 158.104 20.6046 158.586 21.0999C159.068 21.5953 159.664 21.843 160.374 21.843C160.989 21.843 161.579 21.6422 162.141 21.2405C162.395 21.0531 162.609 20.8522 162.784 20.638Z" fill="#363843"/>
<path d="M168.824 21.0999C169.306 21.5953 169.902 21.843 170.611 21.843C171.321 21.843 171.916 21.5953 172.398 21.0999C172.88 20.6046 173.121 19.982 173.121 19.2322C173.121 18.4825 172.88 17.8599 172.398 17.3645C171.916 16.8692 171.321 16.6215 170.611 16.6215C169.902 16.6215 169.306 16.8692 168.824 17.3645C168.342 17.8599 168.101 18.4825 168.101 19.2322C168.101 19.982 168.342 20.6046 168.824 21.0999ZM166.916 22.8471C165.898 21.843 165.39 20.638 165.39 19.2322C165.39 17.8264 165.898 16.6215 166.916 15.6173C167.933 14.6132 169.165 14.1111 170.611 14.1111C172.057 14.1111 173.289 14.6132 174.306 15.6173C175.324 16.6215 175.833 17.8264 175.833 19.2322C175.833 20.638 175.324 21.843 174.306 22.8471C173.289 23.8513 172.057 24.3533 170.611 24.3533C169.165 24.3533 167.933 23.8513 166.916 22.8471Z" fill="#363843"/>
<path d="M177.838 24.1525V14.3119H180.549V15.7177H180.649C180.837 15.4098 181.051 15.142 181.292 14.9144C181.908 14.3789 182.597 14.1111 183.361 14.1111C184.231 14.1111 184.981 14.399 185.61 14.9747C185.878 15.2157 186.099 15.4968 186.273 15.8182H186.373C186.587 15.5102 186.862 15.2291 187.196 14.9747C187.933 14.399 188.729 14.1111 189.586 14.1111C190.577 14.1111 191.394 14.4726 192.036 15.1956C192.679 15.9052 193 16.8491 193 18.0273V24.1525H190.289V18.4289C190.289 17.2909 189.754 16.7219 188.682 16.7219C188.12 16.7219 187.658 16.9093 187.297 17.2842C186.949 17.6457 186.775 18.1277 186.775 18.7302V24.1525H184.063V18.4289C184.063 17.2909 183.528 16.7219 182.457 16.7219C181.895 16.7219 181.433 16.9093 181.071 17.2842C180.723 17.6457 180.549 18.1277 180.549 18.7302V24.1525H177.838Z" fill="#363843"/>
<path d="M-0.000417103 20.1866C-0.000415959 7.09904 19.6284 0.981839 32.6644 0.98184C45.7003 0.981841 56.3799 17.656 56.3799 30.7436C56.3799 43.8311 38.5409 48.9375 25.505 48.9375C7.83018 48.9375 -0.000418247 33.2741 -0.000417103 20.1866Z" fill="#1A59BD"/>
<mask id="mask0_144_108" style="mask-type:alpha" maskUnits="userSpaceOnUse" x="0" y="0" width="57" height="49">
<path d="M-0.000417103 20.1827C-0.000415959 7.09513 19.6284 0.977933 32.6644 0.977934C45.7003 0.977935 56.3799 17.6521 56.3799 30.7396C56.3799 43.8272 38.5409 48.9336 25.505 48.9336C7.83018 48.9336 -0.000418247 33.2702 -0.000417103 20.1827Z" fill="#1A59BD"/>
</mask>
<g mask="url(#mask0_144_108)">
<path fill-rule="evenodd" clip-rule="evenodd" d="M9.1644 21.907C3.42789 25.1242 0.264583 29.2926 0.599361 34.4389C0.999249 40.5861 4.01593 47.644 8.58868 53.0457C13.1913 58.4826 18.8554 61.6767 24.339 61.32C30.835 60.8974 38.8943 58.8254 45.1154 55.2971C51.4462 51.7066 54.9363 47.2144 54.6075 42.1603C54.1941 35.805 51.8304 29.025 47.5615 24.0466C43.3762 19.1658 37.3139 15.9356 29.0408 16.4738C22.4721 16.9011 14.8842 18.6993 9.1644 21.907ZM5.99452 16.2547C12.7789 12.45 21.3744 10.4783 28.6201 10.007C39.0772 9.3267 47.0691 13.5168 52.481 19.8282C57.8091 26.0418 60.5856 34.2259 61.0743 41.7397C61.6478 50.5547 55.3993 56.9149 48.3124 60.9341C41.1158 65.0156 32.0782 67.3107 24.7597 67.7868C16.4289 68.3288 8.95245 63.5053 3.6425 57.2328C-1.69731 50.925 -5.36514 42.5814 -5.86746 34.8596C-6.4349 26.1368 -0.773164 20.0501 5.99452 16.2547Z" fill="white"/>
<path fill-rule="evenodd" clip-rule="evenodd" d="M13.9257 34.808C9.83297 37.1033 7.8298 39.9236 8.04597 43.2467C8.32725 47.5707 10.4652 52.6039 13.7348 56.4662C17.0344 60.3639 20.971 62.504 24.6386 62.2654C29.3186 61.961 35.1303 60.463 39.5875 57.9351C44.1545 55.345 46.3643 52.2795 46.1542 49.0486C45.8593 44.5165 44.1714 39.7037 41.164 36.1965C38.2405 32.787 34.0257 30.5323 28.2148 30.9103C23.4622 31.2195 18.0017 32.5221 13.9257 34.808ZM10.7558 29.1557C15.8964 26.2728 22.3644 24.7967 27.7941 24.4435C35.789 23.9234 41.9333 27.138 46.0836 31.9781C50.1501 36.7205 52.2508 42.9374 52.621 48.6279C53.0758 55.6197 48.1075 60.5533 42.7845 63.5722C37.3518 66.6533 30.5617 68.3743 25.0593 68.7322C18.5446 69.156 12.7955 65.3866 8.78867 60.6534C4.75195 55.8849 1.96286 49.566 1.57914 43.6674C1.13032 36.7678 5.63192 32.0292 10.7558 29.1557Z" fill="white"/>
<path fill-rule="evenodd" clip-rule="evenodd" d="M21.3193 47.2758C19.5308 48.2788 19.1539 49.2093 19.2038 49.9767C19.3189 51.7449 20.225 53.9399 21.668 55.6445C23.1408 57.3843 24.6559 58.047 25.7778 57.974C27.9121 57.8352 30.5732 57.142 32.5579 56.0164C34.6522 54.8286 35.0675 53.7629 35.0235 53.0878C34.895 51.1115 34.1542 49.0562 32.9154 47.6116C31.7604 46.2646 30.1355 45.3772 27.7762 45.5307C25.5693 45.6743 23.0911 46.2822 21.3193 47.2758ZM18.1494 41.6235C20.9857 40.0329 24.4715 39.2515 27.3555 39.0639C31.8988 38.7683 35.4532 40.6156 37.835 43.3931C40.1329 46.073 41.2864 49.5324 41.4904 52.6672C41.7789 57.1032 38.6053 60.0369 35.7549 61.6534C32.7947 63.3323 29.1552 64.2485 26.1985 64.4408C22.2295 64.699 18.902 62.407 16.7218 59.8316C14.5117 57.221 12.9545 53.7402 12.737 50.3973C12.4544 46.0536 15.3298 43.2048 18.1494 41.6235Z" fill="white"/>
</g>
</svg>
