<svg width="195" height="50" viewBox="0 0 195 50" fill="none" xmlns="http://www.w3.org/2000/svg">
<path fill-rule="evenodd" clip-rule="evenodd" d="M36.2797 40.8197C36.4568 40.3587 36.7607 38.2214 36.7182 37.8809C28.3393 41.1151 2.06649 41.1638 0.110001 26.908C-0.315322 23.9718 0.621451 18.1843 0.742881 17.546C-1.39394 28.98 21.0327 35.22 36.4153 29.8475C36.3798 29.6347 35.9951 26.2884 35.9596 25.9871C44.6964 28.6823 46.3496 28.1453 46.3496 28.1453C46.3496 28.1453 44.9988 34.3657 36.2797 40.8197ZM24.5023 30.2626C24.5023 29.7094 24.5023 26.5035 24.5023 26.1844C17.8034 27.0002 3.32821 22.9928 2.60516 15.6734C1.98844 9.13426 11.7213 3.37514 12.5009 3.02066C-1.28655 12.3116 19.6038 19.1276 24.3534 17.5318C24.3534 17.3543 24.2824 13.9499 24.2824 13.9499C24.2824 13.9499 29.9711 18.6133 35.6953 19.9787C35.5358 20.2267 33.0512 25.4539 24.5023 30.2626ZM26.6061 2.12871C23.1504 0.692498 15.8136 3.53833 22.539 6.35757C22.5921 6.65014 23.8681 4.20325 23.8681 4.20325L25.3036 8.83106C25.3036 8.83106 19.163 14.2568 19.2161 14.0174C19.2693 13.778 20.2529 11.3311 20.0934 11.3577C19.9339 11.3843 11.3477 9.3098 13.5274 4.49581C15.7072 -0.318173 26.8188 -0.291576 29.6897 0.878675C28.7859 1.06485 26.8188 1.70317 26.6061 2.12871ZM15.3527 42.3366C14.8387 40.8472 14.9274 39.8544 14.9274 39.8544C14.9274 39.8544 21.8212 44.1275 28.6264 45.2978C28.3782 45.4218 24.5503 47.6738 18.2592 47.1951C18.0997 47.1595 16.8413 46.1665 16.8413 46.1665C16.8413 46.1665 8.82104 45.8257 2.59303 34.7832C2.59303 34.6836 5.86398 40.9232 15.3527 42.3366Z" fill="#1A59BD"/>
<path d="M60.7901 0.164686V6.79012H59.2707C59.2707 6.30873 59.2707 5.83156 59.2707 5.35862C59.2791 4.88567 59.2833 4.44651 59.2833 4.04113C59.2918 3.63575 59.296 3.28527 59.296 2.98968C59.3044 2.68564 59.3087 2.46184 59.3087 2.31827C59.0554 2.64764 58.7938 3.01079 58.5236 3.40773C58.2535 3.80466 57.9834 4.2016 57.7133 4.59853C57.4516 4.99546 57.2026 5.38395 56.9663 5.764C56.7299 6.14404 56.5231 6.48608 56.3459 6.79012H54.9911V0.164686H56.4978C56.4978 0.65452 56.4936 1.12324 56.4851 1.57085C56.4851 2.01001 56.4851 2.41117 56.4851 2.77432C56.4851 3.13747 56.4809 3.45418 56.4725 3.72443C56.4725 3.99468 56.4725 4.2016 56.4725 4.34517C56.7088 3.98201 56.9536 3.61042 57.2069 3.23037C57.4601 2.84188 57.7133 2.46606 57.9665 2.10291C58.2282 1.73131 58.4857 1.38083 58.7389 1.05145C58.9921 0.722083 59.2369 0.426494 59.4733 0.164686H60.7901Z" fill="#1A59BD"/>
<path d="M68.1756 6.79012H66.6435V4.0158H64.1492V6.79012H62.6172V0.164686H64.1492V2.74898H66.6435V0.164686H68.1756V6.79012Z" fill="#1A59BD"/>
<path d="M74.9846 1.44417H72.8448V6.79012H71.3127V1.44417H69.1856V0.164686H74.9846V1.44417Z" fill="#1A59BD"/>
<path d="M75.6351 3.50907C75.6351 2.92634 75.7195 2.41539 75.8883 1.97623C76.0656 1.53707 76.2977 1.17391 76.5847 0.886769C76.8717 0.591179 77.2009 0.371598 77.5723 0.228026C77.9437 0.0760088 78.3235 0 78.7118 0C79.6234 0 80.3325 0.282922 80.8389 0.848765C81.3538 1.41461 81.6113 2.25915 81.6113 3.38239C81.6113 3.46684 81.6071 3.56397 81.5986 3.67376C81.5986 3.7751 81.5944 3.868 81.586 3.95246H77.2177C77.26 4.48452 77.4457 4.89834 77.7749 5.19393C78.1125 5.48108 78.5979 5.62465 79.2309 5.62465C79.6023 5.62465 79.94 5.59087 80.2438 5.5233C80.5562 5.45574 80.801 5.38395 80.9782 5.30795L81.1808 6.56209C81.0964 6.60432 80.9782 6.65077 80.8263 6.70144C80.6828 6.74367 80.514 6.78167 80.3198 6.81545C80.1341 6.85768 79.9315 6.89146 79.7121 6.9168C79.4926 6.94213 79.2689 6.9548 79.041 6.9548C78.4586 6.9548 77.9521 6.87035 77.5216 6.70144C77.0911 6.52409 76.7366 6.28339 76.4581 5.97936C76.1795 5.66688 75.9727 5.30372 75.8376 4.8899C75.7026 4.46763 75.6351 4.00735 75.6351 3.50907ZM80.0792 2.82499C80.0792 2.61386 80.0497 2.41539 79.9906 2.22959C79.9315 2.03535 79.8429 1.87066 79.7247 1.73553C79.615 1.59196 79.4757 1.48217 79.3069 1.40616C79.1465 1.32171 78.9524 1.27948 78.7245 1.27948C78.4881 1.27948 78.2813 1.32593 78.1041 1.41883C77.9268 1.50328 77.7749 1.6173 77.6482 1.76087C77.5301 1.90444 77.4372 2.06913 77.3697 2.25493C77.3022 2.44073 77.2557 2.63075 77.2304 2.82499H80.0792Z" fill="#1A59BD"/>
<path d="M87.5025 3.50907C87.5025 2.82499 87.3464 2.29293 87.0341 1.91289C86.7302 1.53284 86.2364 1.34282 85.5527 1.34282C85.4092 1.34282 85.2572 1.35127 85.0969 1.36816C84.9449 1.3766 84.793 1.40194 84.641 1.44417V5.23194C84.7761 5.32484 84.9534 5.41351 85.1728 5.49797C85.4007 5.57398 85.6413 5.61198 85.8945 5.61198C86.4516 5.61198 86.8568 5.42196 87.11 5.04191C87.3717 4.66187 87.5025 4.15092 87.5025 3.50907ZM89.0726 3.48374C89.0726 3.99046 89.005 4.45496 88.87 4.87723C88.7434 5.2995 88.5577 5.66265 88.3129 5.96669C88.0681 6.27072 87.76 6.5072 87.3886 6.6761C87.0256 6.84501 86.612 6.92947 86.1478 6.92947C85.8354 6.92947 85.5485 6.89146 85.2868 6.81545C85.0251 6.73944 84.8099 6.65499 84.641 6.56209V9.13372H83.109V0.380044C83.4213 0.29559 83.8054 0.215358 84.2612 0.139349C84.717 0.0633401 85.1982 0.0253361 85.7046 0.0253361C86.228 0.0253361 86.6964 0.105567 87.11 0.26603C87.5236 0.426493 87.8739 0.658743 88.1609 0.962778C88.4564 1.25837 88.6801 1.62152 88.832 2.05224C88.9924 2.47451 89.0726 2.95167 89.0726 3.48374Z" fill="#1A59BD"/>
<path d="M96.0833 6.79012H94.5512V4.0158H92.0569V6.79012H90.5249V0.164686H92.0569V2.74898H94.5512V0.164686H96.0833V6.79012Z" fill="#1A59BD"/>
<path d="M97.5365 3.50907C97.5365 2.92634 97.6209 2.41539 97.7897 1.97623C97.967 1.53707 98.1991 1.17391 98.4861 0.886769C98.7731 0.591179 99.1023 0.371598 99.4737 0.228026C99.8451 0.0760088 100.225 0 100.613 0C101.525 0 102.234 0.282922 102.74 0.848765C103.255 1.41461 103.513 2.25915 103.513 3.38239C103.513 3.46684 103.508 3.56397 103.5 3.67376C103.5 3.7751 103.496 3.868 103.487 3.95246H99.1192C99.1614 4.48452 99.3471 4.89834 99.6763 5.19393C100.014 5.48108 100.499 5.62465 101.132 5.62465C101.504 5.62465 101.841 5.59087 102.145 5.5233C102.458 5.45574 102.702 5.38395 102.88 5.30795L103.082 6.56209C102.998 6.60432 102.88 6.65077 102.728 6.70144C102.584 6.74367 102.415 6.78167 102.221 6.81545C102.036 6.85768 101.833 6.89146 101.613 6.9168C101.394 6.94213 101.17 6.9548 100.942 6.9548C100.36 6.9548 99.8535 6.87035 99.423 6.70144C98.9926 6.52409 98.638 6.28339 98.3595 5.97936C98.0809 5.66688 97.8741 5.30372 97.7391 4.8899C97.604 4.46763 97.5365 4.00735 97.5365 3.50907ZM101.981 2.82499C101.981 2.61386 101.951 2.41539 101.892 2.22959C101.833 2.03535 101.744 1.87066 101.626 1.73553C101.516 1.59196 101.377 1.48217 101.208 1.40616C101.048 1.32171 100.854 1.27948 100.626 1.27948C100.39 1.27948 100.183 1.32593 100.005 1.41883C99.8282 1.50328 99.6763 1.6173 99.5497 1.76087C99.4315 1.90444 99.3386 2.06913 99.2711 2.25493C99.2036 2.44073 99.1572 2.63075 99.1318 2.82499H101.981Z" fill="#1A59BD"/>
<path d="M109.999 1.44417H107.859V6.79012H106.327V1.44417H104.2V0.164686H109.999V1.44417Z" fill="#1A59BD"/>
<path d="M113.035 5.53597H113.795C114.056 5.18971 114.259 4.80544 114.402 4.38317C114.554 3.95246 114.664 3.50485 114.732 3.04035C114.799 2.56741 114.841 2.08602 114.858 1.59618C114.875 1.10635 114.888 0.629184 114.896 0.164686H119.644V5.53597H120.657V8.665H119.29V6.79012H114.39V8.665H113.035V5.53597ZM118.112 5.53597V1.4315H116.314C116.297 1.77776 116.276 2.13247 116.251 2.49562C116.226 2.85033 116.179 3.20504 116.112 3.55974C116.044 3.90601 115.951 4.24805 115.833 4.58586C115.723 4.91523 115.576 5.23194 115.39 5.53597H118.112Z" fill="#1A59BD"/>
<path d="M124.549 1.4315C124.541 1.8031 124.528 2.19159 124.511 2.59697C124.494 2.9939 124.452 3.38661 124.385 3.7751C124.326 4.16359 124.228 4.53519 124.093 4.8899C123.958 5.2446 123.768 5.56553 123.524 5.85267C123.287 6.13137 122.988 6.36785 122.625 6.56209C122.27 6.74789 121.835 6.86613 121.321 6.9168L121.105 5.63732C121.536 5.55286 121.869 5.41774 122.106 5.23194C122.342 5.03769 122.523 4.79278 122.65 4.49719C122.751 4.2776 122.827 4.02846 122.878 3.74977C122.937 3.47107 122.979 3.1797 123.004 2.87566C123.038 2.56318 123.059 2.24648 123.068 1.92556C123.076 1.60463 123.08 1.29215 123.08 0.988114V0.164686H127.765V6.79012H126.233V1.4315H124.549Z" fill="#1A59BD"/>
<path d="M132.517 4.3325C132.416 4.3325 132.314 4.3325 132.213 4.3325C132.112 4.3325 132.015 4.32828 131.922 4.31983C131.652 4.72521 131.403 5.14326 131.175 5.57398C130.947 5.99625 130.736 6.40163 130.542 6.79012H128.972C129.2 6.2665 129.453 5.764 129.731 5.28261C130.01 4.80122 130.272 4.39162 130.516 4.0538C130.103 3.87645 129.799 3.63997 129.605 3.34439C129.419 3.04035 129.326 2.68564 129.326 2.28026C129.326 1.90866 129.394 1.58352 129.529 1.30482C129.672 1.01767 129.871 0.781201 130.124 0.595402C130.377 0.401157 130.681 0.257585 131.035 0.164686C131.39 0.0633406 131.782 0.0126676 132.213 0.0126676C132.711 0.0126676 133.192 0.042227 133.656 0.101345C134.129 0.160463 134.513 0.228026 134.809 0.304035V6.79012H133.277V4.3325H132.517ZM133.277 1.27948C133.184 1.26259 133.04 1.24992 132.846 1.24148C132.652 1.22459 132.454 1.21614 132.251 1.21614C131.314 1.21614 130.846 1.5624 130.846 2.25493C130.846 2.44073 130.879 2.59697 130.947 2.72365C131.023 2.84188 131.124 2.93901 131.251 3.01501C131.377 3.09102 131.525 3.14592 131.694 3.1797C131.863 3.20504 132.044 3.2177 132.238 3.2177H133.277V1.27948Z" fill="#1A59BD"/>
<path d="M138.617 6.79012C139.005 6.13982 139.449 5.51486 139.947 4.91523C140.445 4.30716 140.947 3.74554 141.453 3.23037C140.972 2.7152 140.504 2.19159 140.048 1.65952C139.592 1.11902 139.191 0.620738 138.845 0.164686H140.605C140.867 0.519393 141.171 0.912105 141.517 1.34282C141.871 1.77354 142.306 2.30138 142.821 2.92634V0.164686H144.302V2.92634C144.834 2.30982 145.273 1.78198 145.619 1.34282C145.965 0.90366 146.269 0.510948 146.531 0.164686H148.265C147.944 0.620738 147.556 1.11479 147.1 1.64686C146.653 2.17892 146.18 2.70253 145.682 3.2177C146.239 3.7751 146.75 4.34517 147.214 4.9279C147.687 5.51064 148.122 6.13137 148.518 6.79012H146.809C146.64 6.53675 146.455 6.27072 146.252 5.99202C146.058 5.71333 145.851 5.43885 145.632 5.1686C145.421 4.8899 145.201 4.62387 144.973 4.3705C144.745 4.11714 144.522 3.88067 144.302 3.66109V6.79012H142.821V3.66109C142.601 3.88912 142.378 4.13403 142.15 4.39584C141.922 4.65765 141.698 4.9279 141.479 5.2066C141.268 5.47685 141.061 5.74711 140.858 6.01736C140.664 6.28761 140.487 6.5452 140.326 6.79012H138.617Z" fill="#1A59BD"/>
<path d="M155.277 0.164686V6.79012H153.758C153.758 6.30873 153.758 5.83156 153.758 5.35862C153.766 4.88567 153.77 4.44651 153.77 4.04113C153.779 3.63575 153.783 3.28527 153.783 2.98968C153.791 2.68564 153.796 2.46184 153.796 2.31827C153.542 2.64764 153.281 3.01079 153.011 3.40773C152.74 3.80466 152.47 4.2016 152.2 4.59853C151.939 4.99546 151.69 5.38395 151.453 5.764C151.217 6.14404 151.01 6.48608 150.833 6.79012H149.478V0.164686H150.985C150.985 0.65452 150.98 1.12324 150.972 1.57085C150.972 2.01001 150.972 2.41117 150.972 2.77432C150.972 3.13747 150.968 3.45418 150.959 3.72443C150.959 3.99468 150.959 4.2016 150.959 4.34517C151.196 3.98201 151.441 3.61042 151.694 3.23037C151.947 2.84188 152.2 2.46606 152.453 2.10291C152.715 1.73131 152.973 1.38083 153.226 1.05145C153.479 0.722083 153.724 0.426494 153.96 0.164686H155.277Z" fill="#1A59BD"/>
<path d="M156.813 0.367375C156.923 0.325148 157.058 0.282921 157.218 0.240694C157.378 0.198467 157.551 0.160463 157.737 0.126681C157.923 0.0928995 158.117 0.0675636 158.32 0.050673C158.531 0.0253366 158.742 0.0126676 158.953 0.0126676C159.316 0.0126676 159.662 0.0464501 159.991 0.114014C160.32 0.181577 160.607 0.291367 160.852 0.443384C161.097 0.595402 161.291 0.789647 161.434 1.02612C161.586 1.26259 161.662 1.54551 161.662 1.87488C161.662 2.22959 161.565 2.5294 161.371 2.77432C161.177 3.01924 160.953 3.20081 160.7 3.31905C161.08 3.46262 161.371 3.67376 161.574 3.95246C161.776 4.23115 161.877 4.58586 161.877 5.01658C161.877 5.36284 161.801 5.65843 161.65 5.90335C161.506 6.14826 161.303 6.35095 161.042 6.51142C160.789 6.66343 160.489 6.77323 160.143 6.84079C159.797 6.9168 159.421 6.9548 159.016 6.9548C158.526 6.9548 158.071 6.91257 157.649 6.82812C157.226 6.75211 156.893 6.65921 156.648 6.54942L156.914 5.30795C157.075 5.37551 157.332 5.45574 157.687 5.54864C158.041 5.63309 158.459 5.67532 158.94 5.67532C159.868 5.67532 160.333 5.40507 160.333 4.86456C160.333 4.67032 160.291 4.51408 160.206 4.39584C160.122 4.2776 160.016 4.18893 159.89 4.12981C159.763 4.06225 159.619 4.02002 159.459 4.00313C159.299 3.97779 159.143 3.96512 158.991 3.96512H157.724V2.82499H158.978C159.29 2.82499 159.556 2.7701 159.776 2.66031C160.004 2.54207 160.118 2.33938 160.118 2.05224C160.118 1.81577 160.008 1.62997 159.788 1.49484C159.577 1.35127 159.278 1.27948 158.889 1.27948C158.721 1.27948 158.547 1.29215 158.37 1.31749C158.193 1.33438 158.02 1.35971 157.851 1.39349C157.691 1.42728 157.543 1.46528 157.408 1.50751C157.273 1.54129 157.167 1.57507 157.091 1.60885L156.813 0.367375Z" fill="#1A59BD"/>
<path d="M168.867 6.79012H167.335V4.0158H164.84V6.79012H163.308V0.164686H164.84V2.74898H167.335V0.164686H168.867V6.79012Z" fill="#1A59BD"/>
<path d="M176.486 0.164686V6.79012H174.967C174.967 6.30873 174.967 5.83156 174.967 5.35862C174.975 4.88567 174.979 4.44651 174.979 4.04113C174.988 3.63575 174.992 3.28527 174.992 2.98968C175 2.68564 175.005 2.46184 175.005 2.31827C174.751 2.64764 174.49 3.01079 174.22 3.40773C173.949 3.80466 173.679 4.2016 173.409 4.59853C173.148 4.99546 172.899 5.38395 172.662 5.764C172.426 6.14404 172.219 6.48608 172.042 6.79012H170.687V0.164686H172.194C172.194 0.65452 172.189 1.12324 172.181 1.57085C172.181 2.01001 172.181 2.41117 172.181 2.77432C172.181 3.13747 172.177 3.45418 172.168 3.72443C172.168 3.99468 172.168 4.2016 172.168 4.34517C172.405 3.98201 172.65 3.61042 172.903 3.23037C173.156 2.84188 173.409 2.46606 173.662 2.10291C173.924 1.73131 174.182 1.38083 174.435 1.05145C174.688 0.722083 174.933 0.426494 175.169 0.164686H176.486Z" fill="#1A59BD"/>
<path d="M64.3627 27.6833V29.5898H54.9032V13.8612H57.1036V27.6833H64.3627Z" fill="#363843"/>
<path d="M65.8951 13.8612H68.0955V29.5898H65.8951V13.8612Z" fill="#363843"/>
<path d="M83.9193 13.8612C83.3446 15.5256 82.7926 17.069 82.2633 18.4913C81.7491 19.8985 81.2425 21.2375 80.7434 22.5085C80.2444 23.7796 79.7453 24.9976 79.2462 26.1627C78.7623 27.3126 78.2632 28.455 77.7491 29.5898H75.6848C75.1706 28.455 74.664 27.3126 74.1649 26.1627C73.681 24.9976 73.1819 23.7796 72.6677 22.5085C72.1686 21.2375 71.6545 19.8985 71.1252 18.4913C70.5958 17.069 70.0514 15.5256 69.4919 13.8612H71.9191C72.7358 16.2519 73.5373 18.5518 74.3237 20.7609C75.1101 22.97 75.9192 25.043 76.7509 26.9798C77.5827 25.0581 78.3918 22.9927 79.1782 20.7836C79.9646 18.5594 80.7585 16.2519 81.5601 13.8612H83.9193Z" fill="#363843"/>
<path d="M85.3314 29.5898V13.8612H94.927V15.745H87.5318V20.4205H94.1103V22.2589H87.5318V27.706H95.4941V29.5898H85.3314Z" fill="#363843"/>
<path d="M112.501 13.8612V15.7677H107.556V29.5898H105.356V15.7677H100.411V13.8612H112.501Z" fill="#363843"/>
<path d="M114.054 29.5898V13.8612H123.649V15.745H116.254V20.4205H122.833V22.2589H116.254V27.706H124.216V29.5898H114.054Z" fill="#363843"/>
<path d="M135.701 27.6833V29.5898H126.242V13.8612H128.442V27.6833H135.701Z" fill="#363843"/>
<path d="M137.234 29.5898V13.8612H146.829V15.745H139.434V20.4205H146.013V22.2589H139.434V27.706H147.397V29.5898H137.234Z" fill="#363843"/>
<path d="M155.54 29.9303C154.436 29.9303 153.43 29.7487 152.523 29.3856C151.615 29.0224 150.836 28.4929 150.186 27.7968C149.536 27.1008 149.029 26.2459 148.666 25.2321C148.318 24.2032 148.144 23.0306 148.144 21.7142C148.144 20.3978 148.341 19.2327 148.734 18.2189C149.143 17.19 149.687 16.3275 150.368 15.6315C151.048 14.9355 151.842 14.4059 152.749 14.0428C153.657 13.6796 154.625 13.498 155.653 13.498C156.303 13.498 156.886 13.5434 157.4 13.6342C157.929 13.725 158.383 13.8309 158.761 13.952C159.154 14.073 159.472 14.1941 159.714 14.3151C159.956 14.4362 160.122 14.527 160.213 14.5875L159.577 16.4032C159.441 16.3124 159.245 16.2141 158.988 16.1081C158.731 16.0022 158.436 15.8963 158.103 15.7904C157.785 15.6845 157.43 15.6013 157.037 15.5407C156.659 15.4651 156.273 15.4272 155.88 15.4272C155.048 15.4272 154.3 15.571 153.634 15.8585C152.969 16.146 152.402 16.5621 151.933 17.1068C151.464 17.6515 151.101 18.3173 150.844 19.1041C150.602 19.8758 150.481 20.7458 150.481 21.7142C150.481 22.6523 150.587 23.5072 150.799 24.2789C151.025 25.0506 151.358 25.7163 151.797 26.2762C152.235 26.8209 152.78 27.2445 153.43 27.5472C154.095 27.8498 154.867 28.0011 155.744 28.0011C156.757 28.0011 157.596 27.8952 158.262 27.6833C158.927 27.4715 159.426 27.2824 159.759 27.1159L160.326 28.9317C160.22 29.0073 160.031 29.1057 159.759 29.2267C159.487 29.3326 159.146 29.4385 158.738 29.5445C158.33 29.6504 157.853 29.7412 157.309 29.8168C156.765 29.8925 156.175 29.9303 155.54 29.9303Z" fill="#363843"/>
<path d="M160.997 21.7142C160.997 20.3675 161.194 19.1797 161.587 18.1508C161.995 17.1219 162.54 16.267 163.22 15.5861C163.916 14.8901 164.717 14.3681 165.625 14.0201C166.547 13.6721 167.523 13.498 168.551 13.498C169.564 13.498 170.517 13.6721 171.409 14.0201C172.317 14.3681 173.111 14.8901 173.791 15.5861C174.472 16.267 175.009 17.1219 175.402 18.1508C175.81 19.1797 176.014 20.3675 176.014 21.7142C176.014 23.0608 175.81 24.2486 175.402 25.2775C175.009 26.3064 174.472 27.1689 173.791 27.8649C173.111 28.5458 172.317 29.0603 171.409 29.4083C170.517 29.7563 169.564 29.9303 168.551 29.9303C167.523 29.9303 166.547 29.7563 165.625 29.4083C164.717 29.0603 163.916 28.5458 163.22 27.8649C162.54 27.1689 161.995 26.3064 161.587 25.2775C161.194 24.2486 160.997 23.0608 160.997 21.7142ZM163.311 21.7142C163.311 22.6674 163.432 23.5375 163.674 24.3243C163.916 25.0959 164.256 25.7541 164.695 26.2989C165.149 26.8436 165.693 27.2672 166.328 27.5699C166.978 27.8574 167.704 28.0011 168.506 28.0011C169.307 28.0011 170.026 27.8574 170.661 27.5699C171.296 27.2672 171.833 26.8436 172.271 26.2989C172.725 25.7541 173.073 25.0959 173.315 24.3243C173.557 23.5375 173.678 22.6674 173.678 21.7142C173.678 20.7609 173.557 19.8985 173.315 19.1268C173.073 18.34 172.725 17.6742 172.271 17.1295C171.833 16.5848 171.296 16.1687 170.661 15.8812C170.026 15.5786 169.307 15.4272 168.506 15.4272C167.704 15.4272 166.978 15.5786 166.328 15.8812C165.693 16.1687 165.149 16.5848 164.695 17.1295C164.256 17.6742 163.916 18.34 163.674 19.1268C163.432 19.8985 163.311 20.7609 163.311 21.7142Z" fill="#363843"/>
<path d="M185.572 27.411C185.421 27.0478 185.217 26.5863 184.959 26.0265C184.717 25.4667 184.453 24.8614 184.165 24.2108C183.878 23.5602 183.568 22.8944 183.235 22.2135C182.918 21.5175 182.615 20.8668 182.328 20.2616C182.041 19.6412 181.768 19.0889 181.511 18.6048C181.269 18.1206 181.073 17.7499 180.922 17.4926C180.755 19.2781 180.619 21.2148 180.513 23.3029C180.407 25.3759 180.317 27.4715 180.241 29.5898H178.086C178.146 28.2281 178.215 26.8587 178.29 25.4818C178.366 24.0897 178.449 22.7279 178.54 21.3964C178.646 20.0498 178.751 18.7409 178.857 17.4699C178.978 16.1989 179.107 14.996 179.243 13.8612H181.171C181.579 14.527 182.018 15.3138 182.487 16.2216C182.956 17.1295 183.424 18.0827 183.893 19.0814C184.362 20.0649 184.816 21.056 185.254 22.0546C185.693 23.0381 186.094 23.9384 186.457 24.7555C186.82 23.9384 187.22 23.0381 187.659 22.0546C188.097 21.056 188.551 20.0649 189.02 19.0814C189.489 18.0827 189.958 17.1295 190.426 16.2216C190.895 15.3138 191.334 14.527 191.742 13.8612H193.67C194.184 18.9301 194.57 24.173 194.827 29.5898H192.672C192.597 27.4715 192.506 25.3759 192.4 23.3029C192.294 21.2148 192.158 19.2781 191.992 17.4926C191.84 17.7499 191.636 18.1206 191.379 18.6048C191.137 19.0889 190.873 19.6412 190.585 20.2616C190.298 20.8668 189.988 21.5175 189.655 22.2135C189.338 22.8944 189.035 23.5602 188.748 24.2108C188.46 24.8614 188.188 25.4667 187.931 26.0265C187.689 26.5863 187.493 27.0478 187.341 27.411H185.572Z" fill="#363843"/>
<path d="M56.9238 47.9521C56.6977 47.9521 56.4677 47.9443 56.2338 47.9287C55.9999 47.9131 55.7737 47.8936 55.5554 47.8702C55.3449 47.8468 55.1461 47.8233 54.9589 47.7999C54.7718 47.7687 54.6158 47.7375 54.4911 47.7063V41.7968C54.6158 41.7656 54.7718 41.7383 54.9589 41.7149C55.1461 41.6837 55.3449 41.6603 55.5554 41.6447C55.7737 41.6212 55.9999 41.6056 56.2338 41.5978C56.4677 41.5822 56.6977 41.5744 56.9238 41.5744C57.7504 41.5744 58.3936 41.7266 58.8537 42.0308C59.3137 42.3273 59.5437 42.7446 59.5437 43.2829C59.5437 43.5638 59.4736 43.8134 59.3332 44.0319C59.1929 44.2503 59.0096 44.4141 58.7835 44.5234C59.0642 44.6326 59.3059 44.8042 59.5086 45.0383C59.7114 45.2723 59.8127 45.6039 59.8127 46.0329C59.8127 46.6492 59.571 47.1251 59.0876 47.4606C58.6042 47.7882 57.8829 47.9521 56.9238 47.9521ZM56.9589 44.1723C57.3098 44.1723 57.5983 44.1216 57.8244 44.0202C58.0584 43.9188 58.1753 43.7159 58.1753 43.4117C58.1753 43.2634 58.1363 43.1425 58.0584 43.0489C57.9882 42.9553 57.8907 42.8812 57.766 42.8266C57.6412 42.772 57.4969 42.7368 57.3332 42.7212C57.1695 42.6978 56.9979 42.6861 56.8186 42.6861C56.6782 42.6861 56.5145 42.69 56.3274 42.6978C56.148 42.7056 56.0038 42.7173 55.8946 42.7329V44.1723H56.9589ZM55.8946 46.7819C55.9882 46.7975 56.1402 46.8131 56.3507 46.8287C56.5691 46.8365 56.7718 46.8404 56.9589 46.8404C57.38 46.8404 57.727 46.7819 57.9999 46.6648C58.2806 46.5478 58.4209 46.3255 58.4209 45.9978C58.4209 45.678 58.2923 45.4595 58.035 45.3425C57.7854 45.2177 57.458 45.1553 57.0525 45.1553H55.8946V46.7819Z" fill="#363843"/>
<path d="M63.1851 46.8404C63.6218 46.8404 63.9531 46.817 64.1793 46.7702V45.2021C64.1013 45.1787 63.9882 45.1553 63.8401 45.1319C63.6919 45.1085 63.5282 45.0968 63.3488 45.0968C63.1929 45.0968 63.0331 45.1085 62.8693 45.1319C62.7134 45.1553 62.5691 45.1982 62.4366 45.2606C62.3118 45.323 62.2104 45.4127 62.1325 45.5297C62.0545 45.639 62.0155 45.7794 62.0155 45.951C62.0155 46.2865 62.1208 46.5205 62.3313 46.6531C62.5418 46.778 62.8264 46.8404 63.1851 46.8404ZM63.0681 41.5627C63.536 41.5627 63.9297 41.6212 64.2494 41.7383C64.5691 41.8553 64.8225 42.0191 65.0097 42.2298C65.2046 42.4404 65.3411 42.6978 65.419 43.0021C65.5048 43.2985 65.5477 43.6262 65.5477 43.9851V47.6946C65.3294 47.7414 64.998 47.796 64.5535 47.8585C64.1169 47.9287 63.6218 47.9638 63.0681 47.9638C62.7017 47.9638 62.3664 47.9287 62.0623 47.8585C61.7582 47.7882 61.497 47.6751 61.2787 47.5191C61.0681 47.3631 60.9005 47.1602 60.7757 46.9106C60.6588 46.6609 60.6003 46.3528 60.6003 45.9861C60.6003 45.6351 60.6666 45.3386 60.7991 45.0968C60.9395 44.8549 61.1266 44.6599 61.3605 44.5117C61.5945 44.3556 61.8635 44.2464 62.1676 44.184C62.4794 44.1138 62.803 44.0787 63.1383 44.0787C63.2943 44.0787 63.458 44.0904 63.6295 44.1138C63.8011 44.1294 63.9843 44.1606 64.1793 44.2074V43.9734C64.1793 43.8095 64.1598 43.6535 64.1208 43.5053C64.0818 43.3571 64.0116 43.2283 63.9103 43.1191C63.8167 43.0021 63.688 42.9124 63.5243 42.85C63.3683 42.7876 63.1695 42.7564 62.9278 42.7564C62.6003 42.7564 62.3001 42.7798 62.0272 42.8266C61.7543 42.8734 61.5321 42.928 61.3605 42.9904L61.1851 41.8436C61.3644 41.7812 61.6256 41.7188 61.9687 41.6564C62.3118 41.5939 62.6783 41.5627 63.0681 41.5627Z" fill="#363843"/>
<path d="M67.1638 41.7149H68.579V46.6765H70.4972V41.7149H71.9124V46.6765H73.8305V41.7149H75.2457V47.8351H67.1638V41.7149Z" fill="#363843"/>
<path d="M84.8963 41.7149V47.8351H83.4928C83.4928 47.3904 83.4928 46.9496 83.4928 46.5127C83.5006 46.0758 83.5045 45.6702 83.5045 45.2957C83.5123 44.9212 83.5162 44.5975 83.5162 44.3244C83.524 44.0436 83.5279 43.8368 83.5279 43.7042C83.294 44.0085 83.0523 44.3439 82.8028 44.7106C82.5532 45.0773 82.3037 45.4439 82.0542 45.8106C81.8125 46.1773 81.5825 46.5361 81.3642 46.8872C81.1458 47.2382 80.9548 47.5542 80.7911 47.8351H79.5396V41.7149H80.9314C80.9314 42.1673 80.9275 42.6003 80.9197 43.0138C80.9197 43.4195 80.9197 43.79 80.9197 44.1255C80.9197 44.461 80.9158 44.7535 80.908 45.0031C80.908 45.2528 80.908 45.4439 80.908 45.5766C81.1263 45.2411 81.3525 44.8978 81.5864 44.5468C81.8203 44.1879 82.0542 43.8407 82.2881 43.5053C82.5299 43.162 82.7677 42.8383 83.0016 42.534C83.2355 42.2298 83.4616 41.9567 83.68 41.7149H84.8963Z" fill="#363843"/>
<path d="M91.7186 47.8351H90.3034V45.2723H87.9993V47.8351H86.5841V41.7149H87.9993V44.1021H90.3034V41.7149H91.7186V47.8351Z" fill="#363843"/>
<path d="M98.0084 42.8968H96.0318V47.8351H94.6166V42.8968H92.6517V41.7149H98.0084V42.8968Z" fill="#363843"/>
<path d="M98.6093 44.8042C98.6093 44.2659 98.6873 43.7939 98.8432 43.3883C99.0069 42.9826 99.2214 42.6471 99.4865 42.3819C99.7516 42.1088 100.056 41.906 100.399 41.7734C100.742 41.633 101.093 41.5627 101.451 41.5627C102.294 41.5627 102.948 41.8241 103.416 42.3468C103.892 42.8695 104.13 43.6496 104.13 44.6872C104.13 44.7652 104.126 44.8549 104.118 44.9563C104.118 45.05 104.114 45.1358 104.106 45.2138H100.071C100.11 45.7053 100.282 46.0875 100.586 46.3606C100.898 46.6258 101.346 46.7585 101.931 46.7585C102.274 46.7585 102.586 46.7273 102.867 46.6648C103.155 46.6024 103.381 46.5361 103.545 46.4659L103.732 47.6244C103.654 47.6634 103.545 47.7063 103.405 47.7531C103.272 47.7921 103.116 47.8272 102.937 47.8585C102.765 47.8975 102.578 47.9287 102.375 47.9521C102.173 47.9755 101.966 47.9872 101.755 47.9872C101.217 47.9872 100.75 47.9092 100.352 47.7531C99.9543 47.5893 99.6268 47.367 99.3695 47.0861C99.1122 46.7975 98.9212 46.462 98.7964 46.0797C98.6717 45.6897 98.6093 45.2645 98.6093 44.8042ZM102.715 44.1723C102.715 43.9773 102.687 43.7939 102.633 43.6223C102.578 43.4429 102.496 43.2907 102.387 43.1659C102.286 43.0333 102.157 42.9319 102.001 42.8617C101.853 42.7837 101.674 42.7446 101.463 42.7446C101.245 42.7446 101.054 42.7876 100.89 42.8734C100.726 42.9514 100.586 43.0567 100.469 43.1893C100.36 43.3219 100.274 43.4741 100.212 43.6457C100.149 43.8173 100.106 43.9929 100.083 44.1723H102.715Z" fill="#363843"/>
<path d="M109.572 44.8042C109.572 44.1723 109.428 43.6808 109.139 43.3298C108.858 42.9787 108.402 42.8032 107.771 42.8032C107.638 42.8032 107.498 42.811 107.35 42.8266C107.209 42.8344 107.069 42.8578 106.928 42.8968V46.3957C107.053 46.4815 107.217 46.5634 107.42 46.6414C107.63 46.7117 107.852 46.7468 108.086 46.7468C108.601 46.7468 108.975 46.5712 109.209 46.2202C109.451 45.8691 109.572 45.3971 109.572 44.8042ZM111.022 44.7808C111.022 45.2489 110.96 45.678 110.835 46.068C110.718 46.4581 110.546 46.7936 110.32 47.0744C110.094 47.3553 109.81 47.5737 109.467 47.7297C109.131 47.8858 108.749 47.9638 108.32 47.9638C108.032 47.9638 107.767 47.9287 107.525 47.8585C107.283 47.7882 107.084 47.7102 106.928 47.6244V49.9999H105.513V41.9138C105.802 41.8358 106.157 41.7617 106.578 41.6915C106.999 41.6212 107.443 41.5861 107.911 41.5861C108.394 41.5861 108.827 41.6603 109.209 41.8085C109.591 41.9567 109.915 42.1712 110.18 42.4521C110.453 42.7251 110.659 43.0606 110.8 43.4585C110.948 43.8485 111.022 44.2893 111.022 44.7808Z" fill="#363843"/>
<path d="M117.498 47.8351H116.083V45.2723H113.779V47.8351H112.364V41.7149H113.779V44.1021H116.083V41.7149H117.498V47.8351Z" fill="#363843"/>
<path d="M118.841 44.8042C118.841 44.2659 118.919 43.7939 119.074 43.3883C119.238 42.9826 119.453 42.6471 119.718 42.3819C119.983 42.1088 120.287 41.906 120.63 41.7734C120.973 41.633 121.324 41.5627 121.683 41.5627C122.525 41.5627 123.18 41.8241 123.648 42.3468C124.123 42.8695 124.361 43.6496 124.361 44.6872C124.361 44.7652 124.357 44.8549 124.349 44.9563C124.349 45.05 124.345 45.1358 124.338 45.2138H120.303C120.342 45.7053 120.513 46.0875 120.817 46.3606C121.129 46.6258 121.577 46.7585 122.162 46.7585C122.505 46.7585 122.817 46.7273 123.098 46.6648C123.386 46.6024 123.612 46.5361 123.776 46.4659L123.963 47.6244C123.885 47.6634 123.776 47.7063 123.636 47.7531C123.503 47.7921 123.347 47.8272 123.168 47.8585C122.996 47.8975 122.809 47.9287 122.607 47.9521C122.404 47.9755 122.197 47.9872 121.987 47.9872C121.449 47.9872 120.981 47.9092 120.583 47.7531C120.186 47.5893 119.858 47.367 119.601 47.0861C119.343 46.7975 119.152 46.462 119.028 46.0797C118.903 45.6897 118.841 45.2645 118.841 44.8042ZM122.946 44.1723C122.946 43.9773 122.919 43.7939 122.864 43.6223C122.809 43.4429 122.727 43.2907 122.618 43.1659C122.517 43.0333 122.388 42.9319 122.232 42.8617C122.084 42.7837 121.905 42.7446 121.694 42.7446C121.476 42.7446 121.285 42.7876 121.121 42.8734C120.957 42.9514 120.817 43.0567 120.7 43.1893C120.591 43.3219 120.505 43.4741 120.443 43.6457C120.38 43.8173 120.338 43.9929 120.314 44.1723H122.946Z" fill="#363843"/>
<path d="M130.353 42.8968H128.376V47.8351H126.961V42.8968H124.996V41.7149H130.353V42.8968Z" fill="#363843"/>
<path d="M130.341 43.8446H133.488V45.1436H130.341V43.8446Z" fill="#363843"/>
<path d="M139.633 41.7149V47.8351H138.218V42.8968H135.96V47.8351H134.545V41.7149H139.633Z" fill="#363843"/>
<path d="M145.374 44.8042C145.374 44.1723 145.23 43.6808 144.941 43.3298C144.661 42.9787 144.205 42.8032 143.573 42.8032C143.44 42.8032 143.3 42.811 143.152 42.8266C143.012 42.8344 142.871 42.8578 142.731 42.8968V46.3957C142.856 46.4815 143.019 46.5634 143.222 46.6414C143.433 46.7117 143.655 46.7468 143.889 46.7468C144.403 46.7468 144.778 46.5712 145.012 46.2202C145.253 45.8691 145.374 45.3971 145.374 44.8042ZM146.824 44.7808C146.824 45.2489 146.762 45.678 146.637 46.068C146.52 46.4581 146.349 46.7936 146.123 47.0744C145.897 47.3553 145.612 47.5737 145.269 47.7297C144.934 47.8858 144.552 47.9638 144.123 47.9638C143.834 47.9638 143.569 47.9287 143.327 47.8585C143.086 47.7882 142.887 47.7102 142.731 47.6244V49.9999H141.316V41.9138C141.604 41.8358 141.959 41.7617 142.38 41.6915C142.801 41.6212 143.245 41.5861 143.713 41.5861C144.197 41.5861 144.63 41.6603 145.012 41.8085C145.394 41.9567 145.717 42.1712 145.982 42.4521C146.255 42.7251 146.462 43.0606 146.602 43.4585C146.75 43.8485 146.824 44.2893 146.824 44.7808Z" fill="#363843"/>
<path d="M153.698 44.7691C153.698 45.2528 153.628 45.6936 153.488 46.0914C153.347 46.4893 153.148 46.8287 152.891 47.1095C152.634 47.3904 152.322 47.6088 151.955 47.7648C151.597 47.9209 151.199 47.9989 150.762 47.9989C150.326 47.9989 149.928 47.9209 149.57 47.7648C149.211 47.6088 148.903 47.3904 148.646 47.1095C148.388 46.8287 148.185 46.4893 148.037 46.0914C147.897 45.6936 147.827 45.2528 147.827 44.7691C147.827 44.2854 147.897 43.8485 148.037 43.4585C148.185 43.0606 148.388 42.7212 148.646 42.4404C148.911 42.1595 149.223 41.945 149.581 41.7968C149.94 41.6408 150.334 41.5627 150.762 41.5627C151.191 41.5627 151.585 41.6408 151.944 41.7968C152.31 41.945 152.622 42.1595 152.879 42.4404C153.137 42.7212 153.336 43.0606 153.476 43.4585C153.624 43.8485 153.698 44.2854 153.698 44.7691ZM152.248 44.7691C152.248 44.1606 152.115 43.6808 151.85 43.3298C151.593 42.9709 151.23 42.7915 150.762 42.7915C150.295 42.7915 149.928 42.9709 149.663 43.3298C149.406 43.6808 149.277 44.1606 149.277 44.7691C149.277 45.3854 149.406 45.873 149.663 46.2319C149.928 46.5907 150.295 46.7702 150.762 46.7702C151.23 46.7702 151.593 46.5907 151.85 46.2319C152.115 45.873 152.248 45.3854 152.248 44.7691Z" fill="#363843"/>
<path d="M157.472 47.9521C157.246 47.9521 157.016 47.9443 156.782 47.9287C156.548 47.9131 156.322 47.8936 156.104 47.8702C155.893 47.8468 155.694 47.8233 155.507 47.7999C155.32 47.7687 155.164 47.7375 155.039 47.7063V41.7968C155.164 41.7656 155.32 41.7383 155.507 41.7149C155.694 41.6837 155.893 41.6603 156.104 41.6447C156.322 41.6212 156.548 41.6056 156.782 41.5978C157.016 41.5822 157.246 41.5744 157.472 41.5744C158.298 41.5744 158.942 41.7266 159.402 42.0308C159.862 42.3273 160.092 42.7446 160.092 43.2829C160.092 43.5638 160.022 43.8134 159.881 44.0319C159.741 44.2503 159.558 44.4141 159.332 44.5234C159.612 44.6326 159.854 44.8042 160.057 45.0383C160.259 45.2723 160.361 45.6039 160.361 46.0329C160.361 46.6492 160.119 47.1251 159.636 47.4606C159.152 47.7882 158.431 47.9521 157.472 47.9521ZM157.507 44.1723C157.858 44.1723 158.146 44.1216 158.373 44.0202C158.606 43.9188 158.723 43.7159 158.723 43.4117C158.723 43.2634 158.684 43.1425 158.606 43.0489C158.536 42.9553 158.439 42.8812 158.314 42.8266C158.189 42.772 158.045 42.7368 157.881 42.7212C157.718 42.6978 157.546 42.6861 157.367 42.6861C157.226 42.6861 157.063 42.69 156.875 42.6978C156.696 42.7056 156.552 42.7173 156.443 42.7329V44.1723H157.507ZM156.443 46.7819C156.536 46.7975 156.688 46.8131 156.899 46.8287C157.117 46.8365 157.32 46.8404 157.507 46.8404C157.928 46.8404 158.275 46.7819 158.548 46.6648C158.829 46.5478 158.969 46.3255 158.969 45.9978C158.969 45.678 158.84 45.4595 158.583 45.3425C158.334 45.2177 158.006 45.1553 157.601 45.1553H156.443V46.7819Z" fill="#363843"/>
<path d="M163.733 46.8404C164.17 46.8404 164.501 46.817 164.727 46.7702V45.2021C164.649 45.1787 164.536 45.1553 164.388 45.1319C164.24 45.1085 164.076 45.0968 163.897 45.0968C163.741 45.0968 163.581 45.1085 163.417 45.1319C163.261 45.1553 163.117 45.1982 162.985 45.2606C162.86 45.323 162.759 45.4127 162.681 45.5297C162.603 45.639 162.564 45.7794 162.564 45.951C162.564 46.2865 162.669 46.5205 162.879 46.6531C163.09 46.778 163.375 46.8404 163.733 46.8404ZM163.616 41.5627C164.084 41.5627 164.478 41.6212 164.798 41.7383C165.117 41.8553 165.371 42.0191 165.558 42.2298C165.753 42.4404 165.889 42.6978 165.967 43.0021C166.053 43.2985 166.096 43.6262 166.096 43.9851V47.6946C165.877 47.7414 165.546 47.796 165.102 47.8585C164.665 47.9287 164.17 47.9638 163.616 47.9638C163.25 47.9638 162.914 47.9287 162.61 47.8585C162.306 47.7882 162.045 47.6751 161.827 47.5191C161.616 47.3631 161.449 47.1602 161.324 46.9106C161.207 46.6609 161.148 46.3528 161.148 45.9861C161.148 45.6351 161.215 45.3386 161.347 45.0968C161.488 44.8549 161.675 44.6599 161.909 44.5117C162.143 44.3556 162.412 44.2464 162.716 44.184C163.028 44.1138 163.351 44.0787 163.686 44.0787C163.842 44.0787 164.006 44.0904 164.178 44.1138C164.349 44.1294 164.532 44.1606 164.727 44.2074V43.9734C164.727 43.8095 164.708 43.6535 164.669 43.5053C164.63 43.3571 164.56 43.2283 164.458 43.1191C164.365 43.0021 164.236 42.9124 164.072 42.85C163.916 42.7876 163.718 42.7564 163.476 42.7564C163.148 42.7564 162.848 42.7798 162.575 42.8266C162.302 42.8734 162.08 42.928 161.909 42.9904L161.733 41.8436C161.913 41.7812 162.174 41.7188 162.517 41.6564C162.86 41.5939 163.226 41.5627 163.616 41.5627Z" fill="#363843"/>
<path d="M173.069 41.7149V47.8351H171.665C171.665 47.3904 171.665 46.9496 171.665 46.5127C171.673 46.0758 171.677 45.6702 171.677 45.2957C171.685 44.9212 171.689 44.5975 171.689 44.3244C171.696 44.0436 171.7 43.8368 171.7 43.7042C171.466 44.0085 171.225 44.3439 170.975 44.7106C170.726 45.0773 170.476 45.4439 170.227 45.8106C169.985 46.1773 169.755 46.5361 169.536 46.8872C169.318 47.2382 169.127 47.5542 168.963 47.8351H167.712V41.7149H169.104C169.104 42.1673 169.1 42.6003 169.092 43.0138C169.092 43.4195 169.092 43.79 169.092 44.1255C169.092 44.461 169.088 44.7535 169.08 45.0031C169.08 45.2528 169.08 45.4439 169.08 45.5766C169.299 45.2411 169.525 44.8978 169.759 44.5468C169.993 44.1879 170.227 43.8407 170.46 43.5053C170.702 43.162 170.94 42.8383 171.174 42.534C171.408 42.2298 171.634 41.9567 171.852 41.7149H173.069ZM170.402 40.8021C170.152 40.8021 169.919 40.767 169.7 40.6968C169.49 40.6266 169.299 40.5252 169.127 40.3925C168.956 40.2599 168.815 40.1 168.706 39.9127C168.597 39.7177 168.531 39.4993 168.507 39.2574L169.525 38.9883C169.657 39.5422 169.95 39.8191 170.402 39.8191C170.862 39.8191 171.154 39.5461 171.279 39L172.285 39.2691C172.254 39.511 172.184 39.7294 172.075 39.9244C171.973 40.1117 171.837 40.2716 171.665 40.4042C171.501 40.5291 171.31 40.6266 171.092 40.6968C170.874 40.767 170.644 40.8021 170.402 40.8021Z" fill="#363843"/>
<path d="M174.008 46.6765H174.71C174.951 46.3567 175.139 46.0017 175.271 45.6117C175.411 45.2138 175.513 44.8003 175.575 44.3712C175.638 43.9344 175.677 43.4897 175.692 43.0372C175.708 42.5847 175.719 42.1439 175.727 41.7149H180.113V46.6765H181.049V49.567H179.786V47.8351H175.259V49.567H174.008V46.6765ZM178.698 46.6765V42.8851H177.037C177.022 43.2049 177.002 43.5326 176.979 43.868C176.955 44.1957 176.912 44.5234 176.85 44.851C176.788 45.1709 176.702 45.4868 176.593 45.7989C176.491 46.1031 176.355 46.3957 176.183 46.6765H178.698Z" fill="#363843"/>
<path d="M181.702 44.8042C181.702 44.2659 181.78 43.7939 181.936 43.3883C182.099 42.9826 182.314 42.6471 182.579 42.3819C182.844 42.1088 183.148 41.906 183.491 41.7734C183.834 41.633 184.185 41.5627 184.544 41.5627C185.386 41.5627 186.041 41.8241 186.509 42.3468C186.984 42.8695 187.222 43.6496 187.222 44.6872C187.222 44.7652 187.218 44.8549 187.21 44.9563C187.21 45.05 187.207 45.1358 187.199 45.2138H183.164C183.203 45.7053 183.374 46.0875 183.678 46.3606C183.99 46.6258 184.438 46.7585 185.023 46.7585C185.366 46.7585 185.678 46.7273 185.959 46.6648C186.247 46.6024 186.474 46.5361 186.637 46.4659L186.824 47.6244C186.746 47.6634 186.637 47.7063 186.497 47.7531C186.364 47.7921 186.208 47.8272 186.029 47.8585C185.858 47.8975 185.67 47.9287 185.468 47.9521C185.265 47.9755 185.058 47.9872 184.848 47.9872C184.31 47.9872 183.842 47.9092 183.444 47.7531C183.047 47.5893 182.719 47.367 182.462 47.0861C182.205 46.7975 182.014 46.462 181.889 46.0797C181.764 45.6897 181.702 45.2645 181.702 44.8042ZM185.807 44.1723C185.807 43.9773 185.78 43.7939 185.725 43.6223C185.67 43.4429 185.589 43.2907 185.479 43.1659C185.378 43.0333 185.249 42.9319 185.093 42.8617C184.945 42.7837 184.766 42.7446 184.555 42.7446C184.337 42.7446 184.146 42.7876 183.982 42.8734C183.819 42.9514 183.678 43.0567 183.561 43.1893C183.452 43.3219 183.366 43.4741 183.304 43.6457C183.242 43.8173 183.199 43.9929 183.175 44.1723H185.807Z" fill="#363843"/>
<path d="M192.664 44.8042C192.664 44.1723 192.52 43.6808 192.231 43.3298C191.951 42.9787 191.495 42.8032 190.863 42.8032C190.73 42.8032 190.59 42.811 190.442 42.8266C190.302 42.8344 190.161 42.8578 190.021 42.8968V46.3957C190.146 46.4815 190.309 46.5634 190.512 46.6414C190.723 46.7117 190.945 46.7468 191.179 46.7468C191.693 46.7468 192.068 46.5712 192.302 46.2202C192.543 45.8691 192.664 45.3971 192.664 44.8042ZM194.114 44.7808C194.114 45.2489 194.052 45.678 193.927 46.068C193.81 46.4581 193.639 46.7936 193.413 47.0744C193.187 47.3553 192.902 47.5737 192.559 47.7297C192.224 47.8858 191.842 47.9638 191.413 47.9638C191.124 47.9638 190.859 47.9287 190.617 47.8585C190.376 47.7882 190.177 47.7102 190.021 47.6244V49.9999H188.606V41.9138C188.894 41.8358 189.249 41.7617 189.67 41.6915C190.091 41.6212 190.535 41.5861 191.003 41.5861C191.487 41.5861 191.919 41.6603 192.302 41.8085C192.684 41.9567 193.007 42.1712 193.272 42.4521C193.545 42.7251 193.752 43.0606 193.892 43.4585C194.04 43.8485 194.114 44.2893 194.114 44.7808Z" fill="#363843"/>
<rect x="54.4413" y="35.334" width="139.719" height="1.06387" fill="#1A59BD"/>
</svg>
