<svg width="193" height="50" viewBox="0 0 193 50" fill="none" xmlns="http://www.w3.org/2000/svg">
<path d="M65.2317 39.306V33.0847H66.139V37.7506L69.8976 33.0847H70.6753V39.306H69.768V34.64L66.0093 39.306H65.2317Z" fill="#363843"/>
<path d="M73.3333 39.306V33.0847H74.2406V35.7417H77.8049V33.0847H78.7121V39.306H77.8049V36.5842H74.2406V39.306H73.3333Z" fill="#363843"/>
<path d="M82.7974 39.306V33.9272H80.594V33.0847H85.908V33.9272H83.7046V39.306H82.7974Z" fill="#363843"/>
<path d="M92.3293 37.5562L92.9125 38.1395C92.7483 38.3641 92.528 38.5801 92.2515 38.7875C91.6467 39.2196 91.0029 39.4356 90.3203 39.4356C89.4649 39.4356 88.7304 39.1202 88.117 38.4894C87.5121 37.8587 87.2097 37.094 87.2097 36.1953C87.2097 35.2967 87.5121 34.532 88.117 33.9012C88.7218 33.2705 89.4347 32.9551 90.2555 32.9551C91.1109 32.9551 91.8195 33.2489 92.3811 33.8364C92.9514 34.424 93.2365 35.1671 93.2365 36.0657C93.2365 36.1089 93.2236 36.2212 93.1977 36.4027L93.1717 36.5323L88.117 36.5193C88.1515 37.081 88.3805 37.5692 88.8039 37.9839C89.2359 38.3901 89.7414 38.5931 90.3203 38.5931C90.8474 38.5931 91.3442 38.4203 91.8108 38.0747C92.0355 37.8932 92.2083 37.7204 92.3293 37.5562ZM88.117 35.7417H92.3293C92.2601 35.18 92.0312 34.7178 91.6423 34.3549C91.2621 33.9833 90.7999 33.7975 90.2555 33.7975C89.7112 33.7975 89.2359 33.9876 88.8298 34.3678C88.4237 34.748 88.1861 35.206 88.117 35.7417Z" fill="#363843"/>
<path d="M95.4359 42.0278V33.0847H96.3431V33.992C96.49 33.7932 96.6672 33.6204 96.8745 33.4735C97.3411 33.1279 97.8768 32.9551 98.4817 32.9551C99.3371 32.9551 100.059 33.2618 100.646 33.8753C101.234 34.4888 101.528 35.2621 101.528 36.1953C101.528 37.1285 101.234 37.9019 100.646 38.5153C100.059 39.1288 99.3371 39.4356 98.4817 39.4356C97.8768 39.4356 97.3411 39.2628 96.8745 38.9171C96.6672 38.7702 96.49 38.5974 96.3431 38.3987V42.0278H95.4359ZM98.4817 38.5931C99.0779 38.5931 99.5834 38.3685 99.9981 37.9191C100.413 37.4698 100.62 36.8952 100.62 36.1953C100.62 35.4954 100.413 34.9208 99.9981 34.4715C99.5834 34.0222 99.0779 33.7975 98.4817 33.7975C97.92 33.7975 97.4232 34.0308 96.9912 34.4974C96.5591 34.964 96.3431 35.53 96.3431 36.1953C96.3431 36.8607 96.5591 37.4266 96.9912 37.8932C97.4232 38.3598 97.92 38.5931 98.4817 38.5931Z" fill="#363843"/>
<path d="M103.727 39.306V33.0847H104.635V35.7417H108.199V33.0847H109.106V39.306H108.199V36.5842H104.635V39.306H103.727Z" fill="#363843"/>
<path d="M116.432 37.5562L117.015 38.1395C116.851 38.3641 116.63 38.5801 116.354 38.7875C115.749 39.2196 115.105 39.4356 114.423 39.4356C113.567 39.4356 112.833 39.1202 112.219 38.4894C111.614 37.8587 111.312 37.094 111.312 36.1953C111.312 35.2967 111.614 34.532 112.219 33.9012C112.824 33.2705 113.537 32.9551 114.358 32.9551C115.213 32.9551 115.922 33.2489 116.483 33.8364C117.054 34.424 117.339 35.1671 117.339 36.0657C117.339 36.1089 117.326 36.2212 117.3 36.4027L117.274 36.5323L112.219 36.5193C112.254 37.081 112.483 37.5692 112.906 37.9839C113.338 38.3901 113.844 38.5931 114.423 38.5931C114.95 38.5931 115.447 38.4203 115.913 38.0747C116.138 37.8932 116.311 37.7204 116.432 37.5562ZM112.219 35.7417H116.432C116.363 35.18 116.134 34.7178 115.745 34.3549C115.365 33.9833 114.902 33.7975 114.358 33.7975C113.814 33.7975 113.338 33.9876 112.932 34.3678C112.526 34.748 112.288 35.206 112.219 35.7417Z" fill="#363843"/>
<path d="M120.837 39.306V33.9272H118.634V33.0847H123.948V33.9272H121.745V39.306H120.837Z" fill="#363843"/>
<path d="M127.844 40.8613V38.4635H128.298C128.505 38.2475 128.687 37.9623 128.842 37.6081C129.214 36.8131 129.4 35.9102 129.4 34.8992V33.0847H133.677V38.4635H134.649V40.8613H133.742V39.306H128.752V40.8613H127.844ZM129.27 38.4635H132.77V33.9272H130.307V34.8992C130.307 35.8756 130.134 36.7699 129.789 37.5822C129.633 37.9278 129.46 38.2216 129.27 38.4635Z" fill="#363843"/>
<path d="M135.617 39.306V38.3987C135.669 38.4333 135.721 38.4549 135.772 38.4635C135.885 38.5067 136.006 38.5283 136.135 38.5283C136.403 38.5283 136.611 38.4505 136.758 38.295C136.913 38.1395 137.043 37.7895 137.146 37.2452C137.25 36.6922 137.302 35.9102 137.302 34.8992V33.0847H141.838V39.306H140.931V33.9272H138.209V34.8992C138.209 35.8151 138.162 36.5798 138.067 37.1933C137.98 37.7982 137.846 38.2604 137.665 38.5801C137.483 38.8999 137.28 39.1245 137.056 39.2541C136.84 39.3751 136.576 39.4356 136.265 39.4356C136.109 39.4356 135.958 39.414 135.811 39.3708C135.768 39.3621 135.703 39.3405 135.617 39.306Z" fill="#363843"/>
<path d="M143.971 39.306L145.397 37.0378C145.164 36.9687 144.948 36.852 144.749 36.6878C144.317 36.3249 144.101 35.8151 144.101 35.1584C144.101 34.5622 144.308 34.0697 144.723 33.6809C145.146 33.2834 145.695 33.0847 146.369 33.0847H149.026V39.306H148.119V37.2322H146.304L145.008 39.306H143.971ZM146.369 36.3897H148.119V33.9272H146.369C145.954 33.9272 145.622 34.0395 145.371 34.2641C145.129 34.4888 145.008 34.7869 145.008 35.1584C145.008 35.53 145.129 35.8281 145.371 36.0528C145.622 36.2774 145.954 36.3897 146.369 36.3897Z" fill="#363843"/>
<path d="M153.824 39.306L156.481 35.6121L154.083 33.0847H155.185L157.972 36.0657V33.0847H158.879V36.0657L161.666 33.0847H162.767L160.369 35.6121L163.026 39.306H161.99L159.786 36.2601L158.879 37.2322V39.306H157.972V37.2322L157.064 36.2601L154.861 39.306H153.824Z" fill="#363843"/>
<path d="M164.782 39.306V33.0847H165.689V37.7506L169.448 33.0847H170.226V39.306H169.319V34.64L165.56 39.306H164.782Z" fill="#363843"/>
<path d="M172.171 38.3339L172.754 37.7506C172.892 37.9235 173.048 38.066 173.221 38.1784C173.618 38.4549 174.046 38.5931 174.504 38.5931C174.996 38.5931 175.368 38.4981 175.619 38.308C175.869 38.1179 175.994 37.8673 175.994 37.5562C175.994 37.2452 175.869 36.9946 175.619 36.8045C175.368 36.6144 174.996 36.5193 174.504 36.5193H173.791V35.6769H174.504C174.876 35.6769 175.174 35.5818 175.398 35.3917C175.623 35.2016 175.735 34.9727 175.735 34.7048C175.735 34.437 175.632 34.2209 175.424 34.0568C175.217 33.8839 174.91 33.7975 174.504 33.7975C174.081 33.7975 173.7 33.9185 173.363 34.1605C173.199 34.2728 173.061 34.3894 172.949 34.5104L172.301 33.8623C172.43 33.7241 172.62 33.5729 172.871 33.4087C173.389 33.1063 173.934 32.9551 174.504 32.9551C175.126 32.9551 175.636 33.1322 176.033 33.4865C176.439 33.8321 176.643 34.2382 176.643 34.7048C176.643 35.18 176.478 35.5473 176.15 35.8065C176.003 35.9275 175.843 36.0139 175.67 36.0657C175.886 36.1176 176.09 36.204 176.28 36.3249C176.694 36.6014 176.902 37.0119 176.902 37.5562C176.902 38.0747 176.69 38.5197 176.267 38.8912C175.852 39.2541 175.264 39.4356 174.504 39.4356C173.873 39.4356 173.29 39.2541 172.754 38.8912C172.53 38.727 172.335 38.5413 172.171 38.3339Z" fill="#363843"/>
<path d="M179.175 39.306V33.0847H180.083V35.7417H183.647V33.0847H184.554V39.306H183.647V36.5842H180.083V39.306H179.175Z" fill="#363843"/>
<path d="M187.214 39.306V33.0847H188.121V37.7506L191.88 33.0847H192.657V39.306H191.75V34.64L187.992 39.306H187.214Z" fill="#363843"/>
<path d="M65.3544 24.1525V10.0946H75.697V12.9061H68.3668V16.2198H74.0904V19.0314H68.3668V24.1525H65.3544Z" fill="#363843"/>
<path d="M84.1287 20.8389L85.5344 22.7467C85.2533 23.0279 84.8918 23.2956 84.45 23.55C83.486 24.0856 82.4417 24.3533 81.3171 24.3533C79.8711 24.3533 78.6393 23.8513 77.6218 22.8471C76.6043 21.843 76.0955 20.638 76.0955 19.2322C76.0955 17.8264 76.5976 16.6215 77.6017 15.6173C78.6059 14.6132 79.8108 14.1111 81.2166 14.1111C82.5689 14.1111 83.727 14.5931 84.691 15.5571C85.6549 16.5211 86.1369 17.6792 86.1369 19.0314C86.1369 19.1653 86.1168 19.4531 86.0767 19.895L86.0365 20.2364H78.9071C79.0678 20.7317 79.3623 21.1401 79.7908 21.4614C80.2326 21.7827 80.8083 21.9434 81.5179 21.9434C82.2676 21.9434 82.917 21.7627 83.4659 21.4012C83.7337 21.2271 83.9546 21.0397 84.1287 20.8389ZM78.9071 18.2281H83.3253C83.1647 17.7461 82.8902 17.3444 82.5019 17.0231C82.1137 16.6884 81.6518 16.5211 81.1162 16.5211C80.5807 16.5211 80.1188 16.6884 79.7305 17.0231C79.3422 17.3444 79.0678 17.7461 78.9071 18.2281Z" fill="#363843"/>
<path d="M88.1515 24.1525V14.3119H90.8627V15.7177H90.9631C91.1773 15.4232 91.425 15.1554 91.7061 14.9144C92.3488 14.3789 93.0718 14.1111 93.8751 14.1111C94.906 14.1111 95.7629 14.4927 96.4457 15.2558C97.1419 16.0056 97.49 16.9963 97.49 18.2281V24.1525H94.7788V18.6297C94.7788 18.0273 94.6181 17.5587 94.2968 17.2239C93.9755 16.8892 93.5337 16.7219 92.9714 16.7219C92.3689 16.7219 91.8668 16.9294 91.4651 17.3444C91.0635 17.7595 90.8627 18.2883 90.8627 18.931V24.1525H88.1515Z" fill="#363843"/>
<path d="M100.095 24.1525V14.3119H102.806V24.1525H100.095ZM100.336 12.5647C100.042 12.2568 99.8944 11.902 99.8944 11.5004C99.8944 11.0987 100.048 10.7506 100.356 10.456C100.664 10.1481 101.032 9.99414 101.461 9.99414C101.889 9.99414 102.251 10.1481 102.545 10.456C102.853 10.7506 103.007 11.0987 103.007 11.5004C103.007 11.902 102.853 12.2568 102.545 12.5647C102.237 12.8593 101.869 13.0066 101.441 13.0066C101.012 13.0066 100.644 12.8593 100.336 12.5647Z" fill="#363843"/>
<path d="M104.004 24.1525L107.519 19.1318L104.205 14.3119H107.318L109.186 17.3244H109.266L111.134 14.3119H114.247L110.933 19.1318L114.447 24.1525H111.335L109.266 20.9393H109.186L107.117 24.1525H104.004Z" fill="#363843"/>
<path d="M120.275 20.7384V17.0231H118.568V14.5128H119.472C120.208 14.5128 120.577 14.1111 120.577 13.3078V11.5004H122.987V14.5128H125.196V17.0231H122.987V20.3368C122.987 20.7786 123.1 21.1267 123.328 21.3811C123.569 21.6221 123.89 21.7426 124.292 21.7426C124.573 21.7426 124.834 21.7091 125.075 21.6422C125.155 21.6288 125.263 21.5953 125.396 21.5418V24.0521C125.343 24.0789 125.256 24.1123 125.135 24.1525C125.015 24.1793 124.928 24.1994 124.874 24.2128C124.499 24.3065 124.071 24.3533 123.589 24.3533C122.571 24.3533 121.761 24.0387 121.159 23.4095C120.57 22.7802 120.275 21.8899 120.275 20.7384Z" fill="#363843"/>
<path d="M134.748 20.8389L136.153 22.7467C135.872 23.0279 135.511 23.2956 135.069 23.55C134.105 24.0856 133.061 24.3533 131.936 24.3533C130.49 24.3533 129.258 23.8513 128.241 22.8471C127.223 21.843 126.714 20.638 126.714 19.2322C126.714 17.8264 127.216 16.6215 128.221 15.6173C129.225 14.6132 130.43 14.1111 131.835 14.1111C133.188 14.1111 134.346 14.5931 135.31 15.5571C136.274 16.5211 136.756 17.6792 136.756 19.0314C136.756 19.1653 136.736 19.4531 136.696 19.895L136.655 20.2364H129.526C129.687 20.7317 129.981 21.1401 130.41 21.4614C130.851 21.7827 131.427 21.9434 132.137 21.9434C132.886 21.9434 133.536 21.7627 134.085 21.4012C134.353 21.2271 134.573 21.0397 134.748 20.8389ZM129.526 18.2281H133.944C133.784 17.7461 133.509 17.3444 133.121 17.0231C132.733 16.6884 132.271 16.5211 131.735 16.5211C131.2 16.5211 130.738 16.6884 130.349 17.0231C129.961 17.3444 129.687 17.7461 129.526 18.2281Z" fill="#363843"/>
<path d="M138.871 24.1525V10.0946H141.582V24.1525H138.871Z" fill="#363843"/>
<path d="M151.732 20.8389L153.137 22.7467C152.856 23.0279 152.495 23.2956 152.053 23.55C151.089 24.0856 150.045 24.3533 148.92 24.3533C147.474 24.3533 146.242 23.8513 145.225 22.8471C144.207 21.843 143.698 20.638 143.698 19.2322C143.698 17.8264 144.201 16.6215 145.205 15.6173C146.209 14.6132 147.414 14.1111 148.82 14.1111C150.172 14.1111 151.33 14.5931 152.294 15.5571C153.258 16.5211 153.74 17.6792 153.74 19.0314C153.74 19.1653 153.72 19.4531 153.68 19.895L153.639 20.2364H146.51C146.671 20.7317 146.965 21.1401 147.394 21.4614C147.836 21.7827 148.411 21.9434 149.121 21.9434C149.871 21.9434 150.52 21.7627 151.069 21.4012C151.337 21.2271 151.558 21.0397 151.732 20.8389ZM146.51 18.2281H150.928C150.768 17.7461 150.493 17.3444 150.105 17.0231C149.717 16.6884 149.255 16.5211 148.719 16.5211C148.184 16.5211 147.722 16.6884 147.333 17.0231C146.945 17.3444 146.671 17.7461 146.51 18.2281Z" fill="#363843"/>
<path d="M162.783 20.638L164.49 22.3451C164.249 22.6932 163.915 23.0279 163.486 23.3492C162.549 24.0186 161.511 24.3533 160.373 24.3533C158.928 24.3533 157.696 23.8513 156.678 22.8471C155.661 21.843 155.152 20.638 155.152 19.2322C155.152 17.8264 155.661 16.6215 156.678 15.6173C157.696 14.6132 158.928 14.1111 160.373 14.1111C161.511 14.1111 162.549 14.4458 163.486 15.1153C163.915 15.4366 164.249 15.7713 164.49 16.1194L162.783 17.8264C162.609 17.6122 162.395 17.4114 162.141 17.2239C161.578 16.8223 160.989 16.6215 160.373 16.6215C159.664 16.6215 159.068 16.8692 158.586 17.3645C158.104 17.8599 157.863 18.4825 157.863 19.2322C157.863 19.982 158.104 20.6046 158.586 21.0999C159.068 21.5953 159.664 21.843 160.373 21.843C160.989 21.843 161.578 21.6422 162.141 21.2405C162.395 21.0531 162.609 20.8522 162.783 20.638Z" fill="#363843"/>
<path d="M168.824 21.0999C169.306 21.5953 169.901 21.843 170.611 21.843C171.321 21.843 171.916 21.5953 172.398 21.0999C172.88 20.6046 173.121 19.982 173.121 19.2322C173.121 18.4825 172.88 17.8599 172.398 17.3645C171.916 16.8692 171.321 16.6215 170.611 16.6215C169.901 16.6215 169.306 16.8692 168.824 17.3645C168.342 17.8599 168.101 18.4825 168.101 19.2322C168.101 19.982 168.342 20.6046 168.824 21.0999ZM166.916 22.8471C165.898 21.843 165.389 20.638 165.389 19.2322C165.389 17.8264 165.898 16.6215 166.916 15.6173C167.933 14.6132 169.165 14.1111 170.611 14.1111C172.057 14.1111 173.289 14.6132 174.306 15.6173C175.324 16.6215 175.833 17.8264 175.833 19.2322C175.833 20.638 175.324 21.843 174.306 22.8471C173.289 23.8513 172.057 24.3533 170.611 24.3533C169.165 24.3533 167.933 23.8513 166.916 22.8471Z" fill="#363843"/>
<path d="M177.838 24.1525V14.3119H180.549V15.7177H180.649C180.837 15.4098 181.051 15.142 181.292 14.9144C181.908 14.3789 182.597 14.1111 183.36 14.1111C184.231 14.1111 184.98 14.399 185.61 14.9747C185.877 15.2157 186.098 15.4968 186.272 15.8182H186.373C186.587 15.5102 186.862 15.2291 187.196 14.9747C187.933 14.399 188.729 14.1111 189.586 14.1111C190.577 14.1111 191.394 14.4726 192.036 15.1956C192.679 15.9052 193 16.8491 193 18.0273V24.1525H190.289V18.4289C190.289 17.2909 189.753 16.7219 188.682 16.7219C188.12 16.7219 187.658 16.9093 187.297 17.2842C186.949 17.6457 186.775 18.1277 186.775 18.7302V24.1525H184.063V18.4289C184.063 17.2909 183.528 16.7219 182.457 16.7219C181.894 16.7219 181.432 16.9093 181.071 17.2842C180.723 17.6457 180.549 18.1277 180.549 18.7302V24.1525H177.838Z" fill="#363843"/>
<path d="M-5.08923e-05 20.1866C-4.97481e-05 7.09904 19.6288 0.981839 32.6647 0.98184C45.7007 0.981841 56.3803 17.656 56.3803 30.7436C56.3802 43.8311 38.5413 48.9375 25.5053 48.9375C7.83054 48.9375 -5.20364e-05 33.2741 -5.08923e-05 20.1866Z" fill="#1A59BD"/>
<mask id="mask0_144_81" style="mask-type:alpha" maskUnits="userSpaceOnUse" x="0" y="0" width="57" height="49">
<path d="M-5.08923e-05 20.1827C-4.97481e-05 7.09513 19.6288 0.977933 32.6647 0.977934C45.7007 0.977935 56.3803 17.6521 56.3803 30.7396C56.3802 43.8272 38.5413 48.9336 25.5053 48.9336C7.83054 48.9336 -5.20364e-05 33.2702 -5.08923e-05 20.1827Z" fill="#1A59BD"/>
</mask>
<g mask="url(#mask0_144_81)">
<path fill-rule="evenodd" clip-rule="evenodd" d="M9.1644 21.907C3.42789 25.1242 0.264583 29.2926 0.599361 34.4389C0.999249 40.5861 4.01593 47.644 8.58868 53.0457C13.1913 58.4826 18.8554 61.6767 24.339 61.32C30.835 60.8974 38.8943 58.8254 45.1154 55.2971C51.4462 51.7066 54.9363 47.2144 54.6075 42.1603C54.1941 35.805 51.8304 29.025 47.5615 24.0466C43.3762 19.1658 37.3139 15.9356 29.0408 16.4738C22.4721 16.9011 14.8842 18.6993 9.1644 21.907ZM5.99452 16.2547C12.7789 12.45 21.3744 10.4783 28.6201 10.007C39.0772 9.3267 47.0691 13.5168 52.481 19.8282C57.8091 26.0418 60.5856 34.2259 61.0743 41.7397C61.6478 50.5547 55.3993 56.9149 48.3124 60.9341C41.1158 65.0156 32.0782 67.3107 24.7597 67.7868C16.4289 68.3288 8.95245 63.5053 3.6425 57.2328C-1.69731 50.925 -5.36514 42.5814 -5.86746 34.8596C-6.4349 26.1368 -0.773164 20.0501 5.99452 16.2547Z" fill="white"/>
<path fill-rule="evenodd" clip-rule="evenodd" d="M13.9259 34.808C9.83321 37.1033 7.83004 39.9236 8.04621 43.2467C8.3275 47.5707 10.4654 52.6039 13.7351 56.4662C17.0346 60.3639 20.9713 62.504 24.6389 62.2654C29.3188 61.961 35.1306 60.463 39.5878 57.9351C44.1548 55.345 46.3646 52.2795 46.1544 49.0486C45.8596 44.5165 44.1716 39.7037 41.1643 36.1965C38.2407 32.787 34.0259 30.5323 28.2151 30.9103C23.4624 31.2195 18.002 32.5221 13.9259 34.808ZM10.7561 29.1557C15.8966 26.2728 22.3647 24.7967 27.7944 24.4435C35.7893 23.9234 41.9335 27.138 46.0838 31.9781C50.1503 36.7205 52.2511 42.9374 52.6212 48.6279C53.0761 55.6197 48.1078 60.5533 42.7848 63.5722C37.352 66.6533 30.562 68.3743 25.0596 68.7322C18.5448 69.156 12.7958 65.3866 8.78892 60.6534C4.7522 55.8849 1.9631 49.566 1.57939 43.6674C1.13056 36.7678 5.63216 32.0292 10.7561 29.1557Z" fill="white"/>
<path fill-rule="evenodd" clip-rule="evenodd" d="M21.3189 47.2758C19.5305 48.2788 19.1535 49.2093 19.2035 49.9767C19.3185 51.7449 20.2246 53.9399 21.6676 55.6445C23.1404 57.3843 24.6556 58.047 25.7775 57.974C27.9117 57.8352 30.5729 57.142 32.5575 56.0164C34.6519 54.8286 35.0671 53.7629 35.0232 53.0878C34.8946 51.1115 34.1539 49.0562 32.9151 47.6116C31.76 46.2646 30.1351 45.3772 27.7758 45.5307C25.5689 45.6743 23.0907 46.2822 21.3189 47.2758ZM18.149 41.6235C20.9854 40.0329 24.4711 39.2515 27.3552 39.0639C31.8984 38.7683 35.4528 40.6156 37.8346 43.3931C40.1326 46.073 41.2861 49.5324 41.49 52.6672C41.7786 57.1032 38.6049 60.0369 35.7545 61.6534C32.7943 63.3323 29.1549 64.2485 26.1982 64.4408C22.2291 64.699 18.9016 62.407 16.7214 59.8316C14.5114 57.221 12.9541 53.7402 12.7366 50.3973C12.4541 46.0536 15.3294 43.2048 18.149 41.6235Z" fill="white"/>
</g>
</svg>
