<svg width="46" height="46" viewBox="0 0 46 46" fill="none" xmlns="http://www.w3.org/2000/svg">
<circle cx="23" cy="23" r="23" fill="#5C9BFF"/>
<g clip-path="url(#clip0_124_2112)">
<rect width="20" height="20" transform="translate(13 13)" fill="#5C9BFF"/>
<path d="M32.9582 28.4963C32.9017 28.3259 32.5418 28.0748 31.8788 27.7437C31.6992 27.6393 31.4432 27.4974 31.1121 27.3175C30.7806 27.1375 30.4798 26.9717 30.2101 26.8202C29.9398 26.6687 29.6867 26.5219 29.4501 26.3801C29.4123 26.3517 29.2939 26.2689 29.0951 26.1313C28.896 25.9941 28.7282 25.8923 28.5906 25.8258C28.4533 25.7598 28.3183 25.7266 28.1857 25.7266C27.9964 25.7266 27.7598 25.8616 27.4759 26.1313C27.1919 26.4014 26.9314 26.6947 26.6948 27.0122C26.4581 27.3296 26.2071 27.6229 25.9422 27.8928C25.6769 28.1628 25.459 28.2977 25.2887 28.2977C25.2033 28.2977 25.0967 28.2739 24.969 28.2268C24.8413 28.1795 24.7442 28.139 24.6775 28.1063C24.6115 28.0729 24.4981 28.0068 24.337 27.9071C24.1756 27.8076 24.0858 27.7532 24.0669 27.7437C22.7697 27.0238 21.6571 26.1999 20.729 25.2722C19.8011 24.3439 18.9772 23.2314 18.2575 21.934C18.248 21.9151 18.1935 21.8251 18.0941 21.6642C17.9946 21.5031 17.9283 21.3896 17.8952 21.3232C17.862 21.257 17.8218 21.1598 17.7745 21.032C17.7273 20.9042 17.7035 20.7977 17.7035 20.7124C17.7035 20.5421 17.8385 20.3242 18.1084 20.059C18.3782 19.794 18.6719 19.5429 18.989 19.3063C19.3064 19.0698 19.5997 18.8093 19.8696 18.5253C20.1395 18.2412 20.2744 18.0046 20.2744 17.8152C20.2744 17.6827 20.2413 17.5476 20.1751 17.4104C20.1088 17.2728 20.007 17.1049 19.8696 16.906C19.7322 16.7071 19.6494 16.5889 19.6209 16.5508C19.4791 16.3142 19.3324 16.061 19.1807 15.7911C19.029 15.5212 18.8635 15.2204 18.6835 14.889C18.5036 14.5578 18.3617 14.302 18.2574 14.1221C17.9262 13.4594 17.6753 13.0994 17.5048 13.0427C17.4384 13.0143 17.3389 13 17.2065 13C16.9507 13 16.6169 13.0473 16.2051 13.1421C15.793 13.2368 15.4688 13.3361 15.232 13.4404C14.7585 13.6392 14.2567 14.2168 13.7263 15.173C13.2434 16.063 13.002 16.9439 13.002 17.8149C13.002 18.0704 13.0185 18.319 13.0517 18.5607C13.0848 18.8021 13.144 19.0744 13.2293 19.3775C13.3145 19.6805 13.3832 19.9056 13.4351 20.0521C13.4871 20.1988 13.5842 20.4615 13.7263 20.8404C13.8682 21.2192 13.9535 21.4511 13.9819 21.5364C14.3133 22.4644 14.7063 23.2929 15.1608 24.0221C15.9085 25.2342 16.929 26.4868 18.2215 27.7794C19.5141 29.072 20.7665 30.0924 21.9786 30.8404C22.7077 31.2949 23.5365 31.6878 24.4644 32.0194C24.5497 32.0477 24.7816 32.1328 25.1603 32.2752C25.5391 32.4172 25.8019 32.5143 25.9486 32.5664C26.0953 32.6185 26.3204 32.6873 26.6232 32.7726C26.9266 32.8579 27.1986 32.9171 27.44 32.9505C27.6816 32.9832 27.9302 33 28.1858 33C29.0568 33 29.9377 32.7585 30.8278 32.2756C31.784 31.7454 32.3615 31.2435 32.5603 30.7696C32.6649 30.5331 32.7639 30.2088 32.8586 29.7968C32.9536 29.3849 33.0008 29.0512 33.0008 28.7955C33.0011 28.6625 32.9868 28.5632 32.9582 28.4963Z" fill="white"/>
</g>
<defs>
<clipPath id="clip0_124_2112">
<rect width="20" height="20" fill="white" transform="translate(13 13)"/>
</clipPath>
</defs>
</svg>
