<svg width="49" height="34" viewBox="0 0 49 34" fill="none" xmlns="http://www.w3.org/2000/svg">
<path d="M4.68 9.23H7.2C7.704 9.23 8.112 9.08 8.424 8.78C8.748 8.468 8.91 8.078 8.91 7.61C8.91 7.142 8.748 6.758 8.424 6.458C8.112 6.146 7.704 5.99 7.2 5.99H4.68V9.23ZM1.98 16.25V14.45H0.54V12.47H1.98V11.39H0.54V9.23H1.98V3.65H7.29C8.574 3.65 9.612 4.022 10.404 4.766C11.208 5.498 11.61 6.416 11.61 7.52C11.61 8.624 11.208 9.548 10.404 10.292C9.612 11.024 8.574 11.39 7.29 11.39H4.68V12.47H8.55V14.45H4.68V16.25H1.98Z" fill="#363843"/>
<path d="M14.17 31.75V22.93H16.33L18.94 26.26L21.55 22.93H23.71V31.75H21.28V26.62L18.94 29.59L16.6 26.62V31.75H14.17ZM32.7128 28.78L33.9728 30.49C33.7208 30.742 33.3968 30.982 33.0008 31.21C32.1368 31.69 31.2008 31.93 30.1928 31.93C28.8968 31.93 27.7928 31.48 26.8808 30.58C25.9688 29.68 25.5128 28.6 25.5128 27.34C25.5128 26.08 25.9628 25 26.8628 24.1C27.7628 23.2 28.8428 22.75 30.1028 22.75C31.3148 22.75 32.3528 23.182 33.2168 24.046C34.0808 24.91 34.5128 25.948 34.5128 27.16C34.5128 27.28 34.4948 27.538 34.4588 27.934L34.4228 28.24H28.0328C28.1768 28.684 28.4408 29.05 28.8248 29.338C29.2208 29.626 29.7368 29.77 30.3728 29.77C31.0448 29.77 31.6268 29.608 32.1188 29.284C32.3588 29.128 32.5568 28.96 32.7128 28.78ZM28.0328 26.44H31.9928C31.8488 26.008 31.6028 25.648 31.2548 25.36C30.9068 25.06 30.4928 24.91 30.0128 24.91C29.5328 24.91 29.1188 25.06 28.7708 25.36C28.4228 25.648 28.1768 26.008 28.0328 26.44ZM42.6184 28.6L44.1484 30.13C43.9324 30.442 43.6324 30.742 43.2484 31.03C42.4084 31.63 41.4784 31.93 40.4584 31.93C39.1624 31.93 38.0584 31.48 37.1464 30.58C36.2344 29.68 35.7784 28.6 35.7784 27.34C35.7784 26.08 36.2344 25 37.1464 24.1C38.0584 23.2 39.1624 22.75 40.4584 22.75C41.4784 22.75 42.4084 23.05 43.2484 23.65C43.6324 23.938 43.9324 24.238 44.1484 24.55L42.6184 26.08C42.4624 25.888 42.2704 25.708 42.0424 25.54C41.5384 25.18 41.0104 25 40.4584 25C39.8224 25 39.2884 25.222 38.8564 25.666C38.4244 26.11 38.2084 26.668 38.2084 27.34C38.2084 28.012 38.4244 28.57 38.8564 29.014C39.2884 29.458 39.8224 29.68 40.4584 29.68C41.0104 29.68 41.5384 29.5 42.0424 29.14C42.2704 28.972 42.4624 28.792 42.6184 28.6ZM45.634 31.516C45.358 31.24 45.22 30.898 45.22 30.49C45.22 30.082 45.358 29.74 45.634 29.464C45.91 29.188 46.252 29.05 46.66 29.05C47.068 29.05 47.41 29.188 47.686 29.464C47.962 29.74 48.1 30.082 48.1 30.49C48.1 30.898 47.962 31.24 47.686 31.516C47.41 31.792 47.068 31.93 46.66 31.93C46.252 31.93 45.91 31.792 45.634 31.516Z" fill="#363843"/>
<path d="M22.5 6.75L1 28.25" stroke="#363843" stroke-width="2"/>
</svg>
