<svg width="99" height="84" viewBox="0 0 99 84" fill="none" xmlns="http://www.w3.org/2000/svg">
<path d="M99 50.3607C99 73.285 64.5331 84 41.6429 84C18.7526 84 0 54.7932 0 31.8689C0 8.94451 31.3241 0 54.2143 0C85.25 0 99 27.4363 99 50.3607Z" fill="#292A2E"/>
<rect x="15" y="23" width="72" height="40" rx="10" fill="#C9FF56"/>
<path d="M31.25 54L23.45 33H28.25L33.74 48.45H33.86L39.35 33H44.15L36.35 54H31.25ZM47.2918 54V33H51.7918V54H47.2918ZM57.1941 54V33H66.0441C68.2641 33 70.0641 33.66 71.4441 34.98C72.8441 36.3 73.5441 37.99 73.5441 40.05C73.5441 42.11 72.8441 43.8 71.4441 45.12C70.0641 46.44 68.2641 47.1 66.0441 47.1H61.6941V54H57.1941ZM61.6941 42.9H65.8941C66.7941 42.9 67.5141 42.64 68.0541 42.12C68.6141 41.58 68.8941 40.89 68.8941 40.05C68.8941 39.21 68.6141 38.53 68.0541 38.01C67.5141 37.47 66.7941 37.2 65.8941 37.2H61.6941V42.9Z" fill="#363843"/>
</svg>
