<svg width="108" height="84" viewBox="0 0 108 84" fill="none" xmlns="http://www.w3.org/2000/svg">
<path d="M104 50.3607C104 73.285 69.5331 84 46.6429 84C23.7526 84 5 54.7932 5 31.8689C5 8.94451 36.3241 0 59.2143 0C90.25 0 104 27.4363 104 50.3607Z" fill="#1A59BD"/>
<rect y="23" width="108" height="40" rx="10" fill="#C9FF56"/>
<path d="M10.7 54V33H14.75L21.95 42L29.15 33H33.2V54H28.7V40.2L21.95 48.6L15.2 40.2V54H10.7ZM44.1406 45.15H49.2406L46.7506 38.25H46.6306L44.1406 45.15ZM36.0406 54L44.1406 33H49.2406L57.3406 54H52.5406L50.7406 49.2H42.6406L40.8406 54H36.0406ZM60.1824 54V33H64.6824V42L72.7824 33H78.1824L70.3824 41.7L78.7824 54H73.5324L67.3824 45L64.6824 47.85V54H60.1824ZM96.6523 47.25L99.6523 50.25C99.0323 51.01 98.2823 51.71 97.4023 52.35C95.3623 53.75 93.1123 54.45 90.6523 54.45C87.4323 54.45 84.7223 53.38 82.5223 51.24C80.3423 49.1 79.2523 46.52 79.2523 43.5C79.2523 40.48 80.3423 37.9 82.5223 35.76C84.7223 33.62 87.4323 32.55 90.6523 32.55C93.1123 32.55 95.3223 33.25 97.2823 34.65C98.1223 35.25 98.8623 35.95 99.5023 36.75L96.5023 39.75C96.1023 39.23 95.5923 38.73 94.9723 38.25C93.6523 37.25 92.2123 36.75 90.6523 36.75C88.7723 36.75 87.1723 37.41 85.8523 38.73C84.5523 40.03 83.9023 41.62 83.9023 43.5C83.9023 45.38 84.5523 46.98 85.8523 48.3C87.1723 49.6 88.7723 50.25 90.6523 50.25C92.2323 50.25 93.7223 49.75 95.1223 48.75C95.7623 48.27 96.2723 47.77 96.6523 47.25Z" fill="#363843"/>
</svg>
